<svg id="SvgjsSvg1049" xmlns="http://www.w3.org/2000/svg" version="1.1" xmlns:xlink="http://www.w3.org/1999/xlink" xmlns:svgjs="http://svgjs.com/svgjs" width="94" height="24" viewBox="0 0 94 24"><title>Shape</title><desc>Created with Avocode.</desc><defs id="SvgjsDefs1050"></defs><path id="SvgjsPath1051" d="M1072.78 3275L1067 3275L1067 3293.73L1072.9 3293.73C1075.01 3293.73 1076.8100000000002 3293.47 1078.3200000000002 3292.87C1079.8400000000001 3292.27 1081.0300000000002 3291.31 1081.8300000000002 3289.92C1082.64 3288.54 1083.0600000000002 3286.7400000000002 1083.0600000000002 3284.44C1083.0600000000002 3282.46 1082.8000000000002 3280.84 1082.2700000000002 3279.53C1081.7400000000002 3278.2200000000003 1080.9300000000003 3277.23 1079.8400000000001 3276.51C1078.14 3275.4100000000003 1075.8400000000001 3275 1072.7800000000002 3275ZM1076.84 3289.82C1076.06 3290.36 1074.8899999999999 3290.65 1073.4399999999998 3290.65L1071.37 3290.65L1071.36 3278.08L1073.1 3278.08C1074.81 3278.09 1076.08 3278.36 1076.9299999999998 3278.97C1077.5499999999997 3279.4199999999996 1077.9899999999998 3280.06 1078.2699999999998 3280.9199999999996C1078.5499999999997 3281.7899999999995 1078.6799999999998 3282.8799999999997 1078.6799999999998 3284.24C1078.6799999999998 3285.5899999999997 1078.58 3286.74 1078.2899999999997 3287.68C1078.0099999999998 3288.6099999999997 1077.5499999999997 3289.33 1076.8399999999997 3289.8199999999997Z " fill="#a02021" fill-opacity="1" transform="matrix(1,0,0,1,-1031,-3272)"></path><path id="SvgjsPath1052" d="M1072.78 3275L1067 3275L1067 3293.73L1072.9 3293.73C1075.01 3293.73 1076.8100000000002 3293.47 1078.3200000000002 3292.87C1079.8400000000001 3292.27 1081.0300000000002 3291.31 1081.8300000000002 3289.92C1082.64 3288.54 1083.0600000000002 3286.7400000000002 1083.0600000000002 3284.44C1083.0600000000002 3282.46 1082.8000000000002 3280.84 1082.2700000000002 3279.53C1081.7400000000002 3278.2200000000003 1080.9300000000003 3277.23 1079.8400000000001 3276.51C1078.14 3275.4100000000003 1075.8400000000001 3275 1072.7800000000002 3275ZM1076.84 3289.82C1076.06 3290.36 1074.8899999999999 3290.65 1073.4399999999998 3290.65L1071.37 3290.65L1071.36 3278.08L1073.1 3278.08C1074.81 3278.09 1076.08 3278.36 1076.9299999999998 3278.97C1077.5499999999997 3279.4199999999996 1077.9899999999998 3280.06 1078.2699999999998 3280.9199999999996C1078.5499999999997 3281.7899999999995 1078.6799999999998 3282.8799999999997 1078.6799999999998 3284.24C1078.6799999999998 3285.5899999999997 1078.58 3286.74 1078.2899999999997 3287.68C1078.0099999999998 3288.6099999999997 1077.5499999999997 3289.33 1076.8399999999997 3289.8199999999997Z " fill="#474747" fill-opacity="1" transform="matrix(1,0,0,1,-1031,-3272)"></path><path id="SvgjsPath1053" d="M1085 3293.73L1089.37 3293.73L1089.37 3285.75L1094.4299999999998 3285.75L1094.4299999999998 3282.7L1089.37 3282.7L1089.37 3278.08L1097.1799999999998 3278.08L1097.1799999999998 3275L1084.9999999999998 3275Z " fill="#474747" fill-opacity="1" transform="matrix(1,0,0,1,-1031,-3272)"></path><path id="SvgjsPath1054" d="M1100.01 3293.73L1104.39 3293.73L1104.39 3275L1100.01 3275C1100.01 3275 1099.98 3293.73 1100.01 3293.73 " fill="#474747" fill-opacity="1" transform="matrix(1,0,0,1,-1031,-3272)"></path><path id="SvgjsPath1055" d="M1124.04 3275L1119.6399999999999 3275L1119.6399999999999 3285.75L1111.5099999999998 3275L1107.9999999999998 3275L1107.9999999999998 3293.73L1112.3999999999999 3293.73L1112.3999999999999 3282.7L1120.4499999999998 3293.73L1124.0399999999997 3293.73Z " fill="#474747" fill-opacity="1" transform="matrix(1,0,0,1,-1031,-3272)"></path><path id="SvgjsPath1056" d="M1085 3293.73L1089.37 3293.73L1089.37 3285.75L1094.4299999999998 3285.75L1094.4299999999998 3282.7L1089.37 3282.7L1089.37 3278.08L1097.1799999999998 3278.08L1097.1799999999998 3275L1084.9999999999998 3275Z " fill="#474747" fill-opacity="1" transform="matrix(1,0,0,1,-1031,-3272)"></path><path id="SvgjsPath1057" d="M1124.04 3275L1119.6399999999999 3275L1119.6399999999999 3285.75L1111.5099999999998 3275L1107.9999999999998 3275L1107.9999999999998 3293.73L1112.3999999999999 3293.73L1112.3999999999999 3282.7L1120.4499999999998 3293.73L1124.0399999999997 3293.73Z " fill="#474747" fill-opacity="1" transform="matrix(1,0,0,1,-1031,-3272)"></path><path id="SvgjsPath1058" d="M1048.39 3292.52L1046.42 3289.32L1044.0900000000001 3285.55L1043.89 3285.23C1044.01 3285.2 1044.1200000000001 3285.16 1044.23 3285.13C1046.9 3284.23 1048.46 3281.84 1048.46 3278.44C1048.46 3276.75 1047.76 3275.2000000000003 1046.43 3274.03C1046.24 3273.8700000000003 1046.04 3273.7200000000003 1045.8200000000002 3273.5800000000004C1044.0500000000002 3272.4300000000003 1041.66 3272.0000000000005 1038.4700000000003 3272.0000000000005L1032.3600000000004 3272.0000000000005C1031.9700000000003 3272.0000000000005 1031.9300000000003 3272.2200000000003 1032.0800000000004 3272.4200000000005C1032.2200000000005 3272.6000000000004 1032.3800000000003 3272.8300000000004 1032.4500000000003 3273.4300000000007L1032.4500000000003 3292.2400000000007C1032.3800000000003 3293.000000000001 1032.2200000000003 3293.250000000001 1032.0800000000004 3293.4300000000007C1031.9300000000003 3293.620000000001 1032.0000000000005 3293.850000000001 1032.3900000000003 3293.850000000001L1036.8500000000004 3293.850000000001L1036.8500000000004 3285.870000000001L1038.8700000000003 3285.870000000001L1040.3000000000004 3288.2400000000007L1042.0900000000004 3291.2100000000005L1042.9600000000003 3292.6600000000003C1044.0600000000002 3294.4800000000005 1045.0300000000002 3295.4900000000002 1046.9600000000003 3295.7100000000005C1047.2200000000003 3295.7400000000007 1047.5000000000002 3295.7600000000007 1047.8000000000002 3295.7600000000007L1048.1000000000001 3295.7600000000007C1048.7900000000002 3295.7600000000007 1049.47 3295.4900000000007 1049.89 3295.310000000001C1049.95 3295.290000000001 1050 3295.270000000001 1050.0600000000002 3295.250000000001C1050.5700000000002 3295.030000000001 1050.43 3294.690000000001 1050.1100000000001 3294.570000000001C1049.7500000000002 3294.420000000001 1049.38 3294.150000000001 1048.39 3292.520000000001ZM1036.85 3282.82L1036.85 3275.13L1039.6799999999998 3275.13C1041.08 3275.13 1042.1499999999999 3275.3 1042.9499999999998 3276.01C1043.2499999999998 3276.2900000000004 1043.4799999999998 3276.6200000000003 1043.6399999999999 3277.0200000000004C1043.83 3277.5000000000005 1043.9299999999998 3278.0900000000006 1043.9299999999998 3278.7900000000004C1043.9299999999998 3279.8100000000004 1043.84 3282.8200000000006 1039.6799999999998 3282.8200000000006Z " fill="#474747" fill-opacity="1" transform="matrix(1,0,0,1,-1031,-3272)"></path><path id="SvgjsPath1059" d="M1055.38 3285.75L1060.45 3285.75L1060.45 3282.7L1055.38 3282.7L1055.38 3278.0699999999997L1063.19 3278.0699999999997L1063.19 3274.9999999999995L1051 3274.9999999999995L1051 3293.7299999999996L1063.19 3293.7299999999996L1063.19 3290.6199999999994L1055.38 3290.6199999999994Z " fill="#474747" fill-opacity="1" transform="matrix(1,0,0,1,-1031,-3272)"></path></svg>