<?xml version="1.0" encoding="UTF-8" standalone="no"?>
<!-- Generator: Adobe Illustrator 19.0.0, SVG Export Plug-In . SVG Version: 6.00 Build 0)  -->

<svg
   xmlns:dc="http://purl.org/dc/elements/1.1/"
   xmlns:cc="http://creativecommons.org/ns#"
   xmlns:rdf="http://www.w3.org/1999/02/22-rdf-syntax-ns#"
   xmlns:svg="http://www.w3.org/2000/svg"
   xmlns="http://www.w3.org/2000/svg"
   xmlns:sodipodi="http://sodipodi.sourceforge.net/DTD/sodipodi-0.dtd"
   xmlns:inkscape="http://www.inkscape.org/namespaces/inkscape"
   version="1.1"
   id="Layer_1"
   x="0px"
   y="0px"
   viewBox="0 0 458.24563 293.20761"
   xml:space="preserve"
   inkscape:version="0.91 r"
   sodipodi:docname="google1.svg"
   width="458.24564"
   height="293.20761"><metadata
     id="metadata43"><rdf:RDF><cc:Work
         rdf:about=""><dc:format>image/svg+xml</dc:format><dc:type
           rdf:resource="http://purl.org/dc/dcmitype/StillImage" /><dc:title></dc:title></cc:Work></rdf:RDF></metadata><defs
     id="defs41" /><sodipodi:namedview
     pagecolor="#ffffff"
     bordercolor="#666666"
     borderopacity="1"
     objecttolerance="10"
     gridtolerance="10"
     guidetolerance="10"
     inkscape:pageopacity="0"
     inkscape:pageshadow="2"
     inkscape:window-width="1855"
     inkscape:window-height="1056"
     id="namedview39"
     showgrid="false"
     fit-margin-top="0"
     fit-margin-left="0"
     fit-margin-right="0"
     fit-margin-bottom="0"
     inkscape:zoom="0.51500722"
     inkscape:cx="229.12265"
     inkscape:cy="146.604"
     inkscape:window-x="65"
     inkscape:window-y="24"
     inkscape:window-maximized="1"
     inkscape:current-layer="Layer_1" /><g
     id="g3"
     transform="translate(-3.5306246e-4,-82.51939)"><path
       style="fill:#f34a38"
       d="m 160.777,259.368 71.594,0 c -12.567,35.53 -46.603,61.004 -86.45,60.71 -48.349,-0.357 -88.327,-39.035 -90.204,-87.349 -2.012,-51.789 39.537,-94.563 90.887,-94.563 23.479,0 44.905,8.946 61.058,23.605 3.826,3.473 9.65,3.495 13.413,-0.047 l 26.296,-24.749 c 4.112,-3.871 4.127,-10.408 0.027,-14.292 C 221.781,98.414 187.417,83.287 149.522,82.547 68.696,80.969 0.567,147.238 0.004,228.078 c -0.568,81.447 65.285,147.649 146.6,147.649 78.199,0 142.081,-61.229 146.36,-138.358 0.114,-0.967 0.189,-33.648 0.189,-33.648 l -132.376,0 c -5.426,0 -9.824,4.398 -9.824,9.824 l 0,35.999 c 0,5.426 4.399,9.824 9.824,9.824 z"
       id="path5"
       inkscape:connector-curvature="0" /><path
       style="fill:#f34a38"
       d="m 414.464,206.99 0,-35.173 c 0,-4.755 -3.854,-8.609 -8.609,-8.609 l -29.604,0 c -4.755,0 -8.609,3.854 -8.609,8.609 l 0,35.173 -35.173,0 c -4.755,0 -8.609,3.854 -8.609,8.609 l 0,29.604 c 0,4.755 3.854,8.609 8.609,8.609 l 35.173,0 0,35.173 c 0,4.755 3.854,8.609 8.609,8.609 l 29.604,0 c 4.755,0 8.609,-3.854 8.609,-8.609 l 0,-35.173 35.173,0 c 4.755,0 8.609,-3.854 8.609,-8.609 l 0,-29.604 c 0,-4.755 -3.854,-8.609 -8.609,-8.609 l -35.173,0 0,0 z"
       id="path7"
       inkscape:connector-curvature="0" /></g><g
     id="g9"
     transform="translate(-3.5306246e-4,-82.51939)" /><g
     id="g11"
     transform="translate(-3.5306246e-4,-82.51939)" /><g
     id="g13"
     transform="translate(-3.5306246e-4,-82.51939)" /><g
     id="g15"
     transform="translate(-3.5306246e-4,-82.51939)" /><g
     id="g17"
     transform="translate(-3.5306246e-4,-82.51939)" /><g
     id="g19"
     transform="translate(-3.5306246e-4,-82.51939)" /><g
     id="g21"
     transform="translate(-3.5306246e-4,-82.51939)" /><g
     id="g23"
     transform="translate(-3.5306246e-4,-82.51939)" /><g
     id="g25"
     transform="translate(-3.5306246e-4,-82.51939)" /><g
     id="g27"
     transform="translate(-3.5306246e-4,-82.51939)" /><g
     id="g29"
     transform="translate(-3.5306246e-4,-82.51939)" /><g
     id="g31"
     transform="translate(-3.5306246e-4,-82.51939)" /><g
     id="g33"
     transform="translate(-3.5306246e-4,-82.51939)" /><g
     id="g35"
     transform="translate(-3.5306246e-4,-82.51939)" /><g
     id="g37"
     transform="translate(-3.5306246e-4,-82.51939)" /></svg>