<svg id="SvgjsSvg1026" xmlns="http://www.w3.org/2000/svg" version="1.1" xmlns:xlink="http://www.w3.org/1999/xlink" xmlns:svgjs="http://svgjs.com/svgjs" width="16" height="15" viewBox="0 0 16 15"><title>LinkedIn</title><desc>Created with Avocode.</desc><defs id="SvgjsDefs1027"></defs><path id="SvgjsPath1028" d="M1143.57 231.58C1143.57 230.22 1143.07 229.3 1141.83 229.3C1140.8799999999999 229.3 1140.32 229.92000000000002 1140.07 230.53C1139.98 230.74 1139.96 231.04 1139.96 231.35L1139.96 237L1136.53 237C1136.53 237 1136.57 227.83 1136.53 226.88L1139.96 226.88L1139.96 228.31C1139.95 228.32 1139.94 228.33 1139.94 228.34L1139.96 228.34L1139.96 228.31C1140.41 227.62 1141.23 226.64000000000001 1143.05 226.64000000000001C1145.3 226.64000000000001 1147 228.09 1147 231.19000000000003L1147 237.00000000000003L1143.57 237.00000000000003ZM1132.89 225.5C1131.74 225.5 1131 224.72 1131 223.75C1131 222.76 1131.77 222 1132.94 222C1134.1100000000001 222 1134.8400000000001 222.76 1134.8600000000001 223.75C1134.8600000000001 224.72 1134.1100000000001 225.5 1132.92 225.5ZM1134.63 237L1134.63 226.88L1131.2 226.88L1131.2 237Z " fill="#2c97de" fill-opacity="1" transform="matrix(1,0,0,1,-1131,-222)"></path></svg>