<?xml version="1.0" encoding="UTF-8" standalone="no"?>
<svg
   xmlns:dc="http://purl.org/dc/elements/1.1/"
   xmlns:cc="http://creativecommons.org/ns#"
   xmlns:rdf="http://www.w3.org/1999/02/22-rdf-syntax-ns#"
   xmlns:svg="http://www.w3.org/2000/svg"
   xmlns="http://www.w3.org/2000/svg"
   xmlns:sodipodi="http://sodipodi.sourceforge.net/DTD/sodipodi-0.dtd"
   xmlns:inkscape="http://www.inkscape.org/namespaces/inkscape"
   version="1.0"
   width="59.835159pt"
   height="56.724777pt"
   viewBox="0 0 59.835159 56.724777"
   preserveAspectRatio="xMidYMid meet"
   id="svg2"
   inkscape:version="0.91 r"
   sodipodi:docname="imoto-white.svg">
  <defs
     id="defs14" />
  <sodipodi:namedview
     pagecolor="#ffffff"
     bordercolor="#666666"
     borderopacity="1"
     objecttolerance="10"
     gridtolerance="10"
     guidetolerance="10"
     inkscape:pageopacity="0"
     inkscape:pageshadow="2"
     inkscape:window-width="1855"
     inkscape:window-height="1056"
     id="namedview12"
     showgrid="false"
     fit-margin-top="0"
     fit-margin-left="0"
     fit-margin-right="0"
     fit-margin-bottom="0"
     inkscape:zoom="3.2"
     inkscape:cx="37.29395"
     inkscape:cy="35.157286"
     inkscape:window-x="65"
     inkscape:window-y="24"
     inkscape:window-maximized="1"
     inkscape:current-layer="svg2" />
  <metadata
     id="metadata4">
Created by potrace 1.10, written by Peter Selinger 2001-2011
<rdf:RDF>
  <cc:Work
     rdf:about="">
    <dc:format>image/svg+xml</dc:format>
    <dc:type
       rdf:resource="http://purl.org/dc/dcmitype/StillImage" />
    <dc:title></dc:title>
  </cc:Work>
</rdf:RDF>
</metadata>
  <g
     transform="matrix(0.05,0,0,-0.05,-2.1648397,58.09895)"
     id="g6"
     style="fill:#ffffff;stroke:none">
    <path
       d="m 1020,1120 c -53,-53 -51,-123 6,-177 92,-86 214,-33 214,92 0,118 -135,170 -220,85 z"
       id="path8"
       inkscape:connector-curvature="0" />
    <path
       d="M 360,970 C 153,904 27,700 45,458 c 43,-603 955,-559 955,47 0,335 -321,568 -640,465 z M 702,770 C 879,655 887,383 715,253 498,87 197,237 197,510 c 0,262 280,407 505,260 z"
       id="path10"
       inkscape:connector-curvature="0" />
  </g>
</svg>
