<svg id="SvgjsSvg1088" xmlns="http://www.w3.org/2000/svg" version="1.1" xmlns:xlink="http://www.w3.org/1999/xlink" xmlns:svgjs="http://svgjs.com/svgjs" width="58" height="55" viewBox="0 0 58 55"><title>logo</title><desc>Created with Avocode.</desc><defs id="SvgjsDefs1089"><clipPath id="SvgjsClipPath1092"><path id="SvgjsPath1091" d="M921 63.5C921 50.52131 931.29745 40 944 40C956.70255 40 967 50.52131 967 63.5C967 76.47869 956.70255 87 944 87C931.29745 87 921 76.47869 921 63.5Z " fill="#ffffff"></path></clipPath></defs><path id="SvgjsPath1090" d="M921 63.5C921 50.52131 931.29745 40 944 40C956.70255 40 967 50.52131 967 63.5C967 76.47869 956.70255 87 944 87C931.29745 87 921 76.47869 921 63.5Z " fill-opacity="0" fill="#ffffff" stroke-dasharray="0" stroke-linejoin="miter" stroke-linecap="butt" stroke-opacity="1" stroke="#ffffff" stroke-miterlimit="50" stroke-width="10" clip-path="url(&quot;#SvgjsClipPath1092&quot;)" transform="matrix(1,0,0,1,-921,-32)"></path><path id="SvgjsPath1093" d="M966 38.5C966 34.91015 968.91015 32 972.5 32C976.08985 32 979 34.91015 979 38.5C979 42.08985 976.08985 45 972.5 45C968.91015 45 966 42.08985 966 38.5Z " fill="#ffffff" fill-opacity="1" transform="matrix(1,0,0,1,-921,-32)"></path></svg>