<?xml version="1.0" standalone="no"?>
<!DOCTYPE svg PUBLIC "-//W3C//DTD SVG 20010904//EN"
 "http://www.w3.org/TR/2001/REC-SVG-20010904/DTD/svg10.dtd">
<svg version="1.0" xmlns="http://www.w3.org/2000/svg"
 width="700.000000pt" height="700.000000pt" viewBox="0 0 700.000000 700.000000"
 preserveAspectRatio="xMidYMid meet">
<metadata>
Created by potrace 1.11, written by Peter Selinger 2001-2013
</metadata>
<g transform="translate(0.000000,700.000000) scale(0.100000,-0.100000)"
fill="#000000" stroke="none">
<path d="M1297 5094 c-1 -1 -74 -4 -162 -8 -88 -3 -191 -8 -230 -11 -38 -2
-108 -6 -155 -9 -47 -3 -110 -8 -140 -10 -162 -14 -321 -21 -457 -21 l-152 0
18 -30 c10 -16 58 -95 106 -175 49 -80 95 -157 104 -172 110 -189 647 -1070
655 -1077 13 -10 283 -116 596 -232 118 -44 231 -86 250 -94 19 -8 256 -97
525 -199 270 -102 501 -189 515 -195 24 -9 22 -12 -90 -123 -64 -62 -145 -140
-180 -173 -133 -124 -219 -239 -188 -250 7 -3 96 -34 198 -69 255 -89 563
-205 698 -263 21 -9 46 -19 57 -24 11 -4 49 -21 85 -37 133 -60 123 -59 240
-17 107 37 318 118 605 230 88 35 219 84 290 109 206 74 215 77 215 85 0 4
-13 27 -29 52 -31 49 -89 109 -288 298 -73 69 -134 132 -137 140 -3 9 -8 21
-12 28 -3 6 10 16 33 23 21 6 47 16 58 21 24 10 500 195 800 311 116 44 219
84 230 88 33 14 468 174 625 230 132 48 180 72 180 90 0 20 283 508 548 947
156 258 282 476 282 489 0 9 -1755 13 -1763 4 -7 -9 -459 -554 -492 -595 -79
-95 -109 -133 -145 -175 -21 -25 -77 -92 -125 -150 -47 -58 -103 -125 -123
-149 -61 -73 -384 -464 -530 -641 -74 -91 -138 -167 -142 -170 -3 -3 -43 -51
-89 -108 -46 -56 -87 -101 -92 -100 -4 2 -82 96 -173 210 -91 114 -176 220
-189 235 -39 45 -126 150 -222 268 -49 61 -92 112 -96 115 -3 3 -144 172 -313
375 -169 204 -357 441 -418 528 -123 177 -248 315 -311 346 -54 26 -127 40
-247 47 -93 6 -220 10 -223 8z"/>
<path d="M3998 3835 c-5 -6 -131 -34 -178 -40 -154 -21 -496 -22 -620 -1 -14
3 -47 7 -75 11 -27 3 -65 8 -82 10 -18 3 -50 7 -70 10 l-38 6 50 -29 c234
-131 378 -297 458 -528 l33 -94 27 56 c99 201 298 440 461 555 38 27 62 49 54
49 -8 0 -17 -2 -20 -5z"/>
</g>
</svg>
