<svg id="SvgjsSvg1019" xmlns="http://www.w3.org/2000/svg" version="1.1" xmlns:xlink="http://www.w3.org/1999/xlink" xmlns:svgjs="http://svgjs.com/svgjs" width="25" height="26" viewBox="0 0 25 26"><title>Shape</title><desc>Created with Avocode.</desc><defs id="SvgjsDefs1020"></defs><path id="SvgjsPath1021" d="M759.81 1873.63C759.2399999999999 1873.63 758.8399999999999 1873.22 758.8399999999999 1872.7L756.9999999999999 1872.7C756.9799999999999 1873.27 757.3799999999999 1873.96 757.7899999999998 1874.3500000000001C758.3499999999998 1874.9 759.0699999999998 1875.1000000000001 759.8599999999999 1875.1000000000001C761.2399999999999 1875.1000000000001 762.56 1874.3500000000001 762.56 1872.92C762.56 1872.24 762.17 1871.45 761.43 1871.26C761.9399999999999 1870.99 762.16 1870.43 762.16 1869.91C762.16 1868.68 761.18 1868 759.9399999999999 1868C759.2299999999999 1868 758.6099999999999 1868.19 758.17 1868.57C757.7299999999999 1868.9399999999998 757.43 1869.46 757.36 1870.1499999999999L759.04 1870.1499999999999C759.03 1869.7299999999998 759.3199999999999 1869.3899999999999 759.77 1869.3899999999999C760.18 1869.3899999999999 760.49 1869.6599999999999 760.49 1870.06C760.49 1870.51 760.15 1870.78 759.69 1870.78L759.5100000000001 1870.78L759.5100000000001 1871.92C759.6100000000001 1871.89 759.7100000000002 1871.8600000000001 759.82 1871.8600000000001C760.32 1871.8600000000001 760.7800000000001 1872.2500000000002 760.7800000000001 1872.7500000000002C760.7700000000001 1873.2800000000002 760.3600000000001 1873.6300000000003 759.8100000000001 1873.6300000000003Z " fill="#ffffff" fill-opacity="1" transform="matrix(1,0,0,1,-751,-1859)"></path><path id="SvgjsPath1022" d="M766.56 1868L764 1868L764 1874.57L766.56 1874.57C768.4799999999999 1874.57 770.0899999999999 1873.1299999999999 770.0899999999999 1871.28C770.0899999999999 1869.44 768.4899999999999 1868 766.56 1868ZM765.81 1873.13L765.81 1869.45L766.2299999999999 1869.45C767.3899999999999 1869.45 768.2099999999999 1870.1100000000001 768.2099999999999 1871.29C768.2099999999999 1872.57 767.29 1873.1299999999999 766.2099999999999 1873.1299999999999Z " fill="#ffffff" fill-opacity="1" transform="matrix(1,0,0,1,-751,-1859)"></path><path id="SvgjsPath1023" d="M774.42 1875.81L770.88 1877.97L771.95 1878.55C769.9000000000001 1881.1299999999999 766.7800000000001 1882.6499999999999 763.48 1882.6499999999999C757.52 1882.6499999999999 752.66 1877.8 752.66 1871.83C752.66 1871.3799999999999 752.29 1871 751.8299999999999 1871C751.3699999999999 1871 750.9999999999999 1871.38 750.9999999999999 1871.83C750.9999999999999 1878.71 756.5899999999999 1884.31 763.4799999999999 1884.31C767.3899999999999 1884.31 771.0699999999999 1882.47 773.43 1879.36L774.52 1879.9599999999998Z " fill="#ffffff" fill-opacity="1" transform="matrix(1,0,0,1,-751,-1859)"></path><path id="SvgjsPath1024" d="M763.4 1859C759.25 1859 755.4499999999999 1861.02 753.11 1864.42L752 1863.88L752.28 1868.0200000000002L755.72 1865.7000000000003L754.63 1865.1600000000003C756.66 1862.3300000000004 759.89 1860.6700000000003 763.4 1860.6700000000003C769.36 1860.6700000000003 774.22 1865.5200000000002 774.22 1871.4800000000002C774.22 1871.9400000000003 774.59 1872.3100000000002 775.0500000000001 1872.3100000000002C775.5100000000001 1872.3100000000002 775.8800000000001 1871.9400000000003 775.8800000000001 1871.4800000000002C775.8800000000001 1864.5900000000001 770.2800000000001 1859.0000000000002 763.4000000000001 1859.0000000000002Z " fill="#ffffff" fill-opacity="1" transform="matrix(1,0,0,1,-751,-1859)"></path></svg>