<svg id="SvgjsSvg1035" xmlns="http://www.w3.org/2000/svg" version="1.1" xmlns:xlink="http://www.w3.org/1999/xlink" xmlns:svgjs="http://svgjs.com/svgjs" width="18" height="18" viewBox="0 0 18 18"><title>Active</title><desc>Created with Avocode.</desc><defs id="SvgjsDefs1036"></defs><path id="SvgjsPath1037" d="M33 522C33 517.02944 37.02944 513 42 513C46.97056 513 51 517.02944 51 522C51 526.97056 46.97056 531 42 531C37.02944 531 33 526.97056 33 522Z " fill="#ffffff" fill-opacity="1" transform="matrix(1,0,0,1,-33,-513)"></path><path id="SvgjsPath1038" d="M37 521.5C37 519.01472 39.01472 517 41.5 517C43.98528 517 46 519.01472 46 521.5C46 523.98528 43.98528 526 41.5 526C39.01472 526 37 523.98528 37 521.5Z " fill="#ff8402" fill-opacity="1" transform="matrix(1,0,0,1,-33,-513)"></path></svg>