<svg id="SvgjsSvg1068" xmlns="http://www.w3.org/2000/svg" version="1.1" xmlns:xlink="http://www.w3.org/1999/xlink" xmlns:svgjs="http://svgjs.com/svgjs" width="54" height="52" viewBox="0 0 54 52"><title>1474431476_007_054_appartment_scheme_architectural_plan</title><desc>Created with Avocode.</desc><defs id="SvgjsDefs1069"></defs><path id="SvgjsPath1070" d="M1153 112L1149 112L1149 94L1117 94L1117 144L1169 144L1169 112L1165 112 " fill="#c2e4f8" fill-opacity="1" transform="matrix(1,0,0,1,-1116,-93)"></path><path id="SvgjsPath1071" d="M1169 145L1117 145C1116.45 145 1116 144.55 1116 144L1116 94C1116 93.45 1116.45 93 1117 93L1149 93C1149.55 93 1150 93.45 1150 94L1150 111L1153 111C1153.55 111 1154 111.45 1154 112C1154 112.55 1153.55 113 1153 113L1149 113C1148.45 113 1148 112.55 1148 112L1148 95L1118 95L1118 143L1168 143L1168 113L1165 113C1164.45 113 1164 112.55 1164 112C1164 111.45 1164.45 111 1165 111L1169 111C1169.55 111 1170 111.45 1170 112L1170 144C1170 144.55 1169.55 145 1169 145Z " fill="#0a94e3" fill-opacity="1" transform="matrix(1,0,0,1,-1116,-93)"></path><path id="SvgjsPath1072" d="M1159 109C1158.45 109 1158 108.55 1158 108L1158 94C1158 93.45 1158.45 93 1159 93C1159.55 93 1160 93.45 1160 94L1160 108C1160 108.55 1159.55 109 1159 109Z " fill="#0a94e3" fill-opacity="1" transform="matrix(1,0,0,1,-1116,-93)"></path><path id="SvgjsPath1073" d="M1159 109C1158.74 109 1158.49 108.9 1158.29 108.71L1154.29 104.71C1153.8999999999999 104.32 1153.8999999999999 103.67999999999999 1154.29 103.28999999999999C1154.68 102.89999999999999 1155.32 102.89999999999999 1155.71 103.28999999999999L1159 106.58999999999999L1162.29 103.28999999999999C1162.68 102.89999999999999 1163.32 102.89999999999999 1163.71 103.28999999999999C1164.1000000000001 103.67999999999999 1164.1000000000001 104.32 1163.71 104.71L1159.71 108.71C1159.51 108.89999999999999 1159.26 109 1159 109Z " fill="#0a94e3" fill-opacity="1" transform="matrix(1,0,0,1,-1116,-93)"></path><path id="SvgjsPath1074" d="M1137 99C1136.45 99 1136 98.55 1136 98L1136 94C1136 93.45 1136.45 93 1137 93C1137.55 93 1138 93.45 1138 94L1138 98C1138 98.55 1137.55 99 1137 99Z " fill="#0a94e3" fill-opacity="1" transform="matrix(1,0,0,1,-1116,-93)"></path><path id="SvgjsPath1075" d="M1169 133L1153 133C1152.45 133 1152 132.55 1152 132C1152 131.45 1152.45 131 1153 131L1169 131C1169.55 131 1170 131.45 1170 132C1170 132.55 1169.55 133 1169 133Z " fill="#0a94e3" fill-opacity="1" transform="matrix(1,0,0,1,-1116,-93)"></path><path id="SvgjsPath1076" d="M1137 121L1133 121C1132.45 121 1132 120.55 1132 120C1132 119.45 1132.45 119 1133 119L1137 119C1137.55 119 1138 119.45 1138 120C1138 120.55 1137.55 121 1137 121Z " fill="#0a94e3" fill-opacity="1" transform="matrix(1,0,0,1,-1116,-93)"></path><path id="SvgjsPath1077" d="M1121 121L1117 121C1116.45 121 1116 120.55 1116 120C1116 119.45 1116.45 119 1117 119L1121 119C1121.55 119 1122 119.45 1122 120C1122 120.55 1121.55 121 1121 121Z " fill="#0a94e3" fill-opacity="1" transform="matrix(1,0,0,1,-1116,-93)"></path><path id="SvgjsPath1078" d="M1141 133L1137 133C1136.45 133 1136 132.55 1136 132C1136 131.45 1136.45 131 1137 131L1141 131C1141.55 131 1142 131.45 1142 132C1142 132.55 1141.55 133 1141 133Z " fill="#0a94e3" fill-opacity="1" transform="matrix(1,0,0,1,-1116,-93)"></path><path id="SvgjsPath1079" d="M1137 145C1136.45 145 1136 144.55 1136 144L1136 110C1136 109.45 1136.45 109 1137 109C1137.55 109 1138 109.45 1138 110L1138 144C1138 144.55 1137.55 145 1137 145Z " fill="#0a94e3" fill-opacity="1" transform="matrix(1,0,0,1,-1116,-93)"></path></svg>