<svg id="SvgjsSvg1069" xmlns="http://www.w3.org/2000/svg" version="1.1" xmlns:xlink="http://www.w3.org/1999/xlink" xmlns:svgjs="http://svgjs.com/svgjs" width="58" height="48" viewBox="0 0 58 48"><title>double-king-size-bed</title><desc>Created with Avocode.</desc><defs id="SvgjsDefs1070"></defs><path id="SvgjsPath1071" d="M1462.32 1662.16L1462.32 1643.5900000000001L1459.73 1641.0000000000002L1419.97 1641.0000000000002L1417.38 1643.5900000000001L1417.38 1662.16L1411 1672.25L1468.7 1672.25ZM1457.13 1659.14C1453.7900000000002 1658.2800000000002 1448.0100000000002 1657.21 1439.8500000000001 1657.21C1431.69 1657.21 1425.91 1658.28 1422.5700000000002 1659.14L1422.5700000000002 1646.19L1457.13 1646.19Z " fill="#ff8402" fill-opacity="1" transform="matrix(1,0,0,1,-1411,-1641)"></path><path id="SvgjsPath1072" d="M1411 1676L1411 1681.19L1417.05 1681.19L1417.05 1688.3400000000001L1422.24 1688.3400000000001L1422.24 1681.19L1457.69 1681.19L1457.69 1688.3400000000001L1462.89 1688.3400000000001L1462.89 1681.19L1468.93 1681.19L1468.93 1676Z " fill="#ff8402" fill-opacity="1" transform="matrix(1,0,0,1,-1411,-1641)"></path><path id="SvgjsPath1073" d="M1437.64 1654.27L1437.64 1651.25C1437.64 1649.46 1435.0300000000002 1648 1431.8200000000002 1648C1428.6100000000001 1648 1426.0000000000002 1649.46 1426.0000000000002 1651.25L1426.0000000000002 1655.79C1426.0000000000002 1655.79 1429.4300000000003 1654.92 1431.7900000000002 1654.7C1433.9200000000003 1654.5 1437.64 1654.27 1437.64 1654.27Z " fill="#ff8402" fill-opacity="1" transform="matrix(1,0,0,1,-1411,-1641)"></path><path id="SvgjsPath1074" d="M1453.64 1655.79L1453.64 1651.25C1453.64 1649.46 1451.0300000000002 1648 1447.8200000000002 1648C1444.6100000000001 1648 1442.0000000000002 1649.46 1442.0000000000002 1651.25L1442.0000000000002 1654.27C1442.0000000000002 1654.27 1445.7200000000003 1654.5 1447.8500000000001 1654.7C1450.21 1654.92 1453.64 1655.79 1453.64 1655.79Z " fill="#ff8402" fill-opacity="1" transform="matrix(1,0,0,1,-1411,-1641)"></path></svg>