<svg id="SvgjsSvg1017" xmlns="http://www.w3.org/2000/svg" version="1.1" xmlns:xlink="http://www.w3.org/1999/xlink" xmlns:svgjs="http://svgjs.com/svgjs" width="15" height="17" viewBox="0 0 15 17"><title>Shape</title><desc>Created with Avocode.</desc><defs id="SvgjsDefs1018"></defs><path id="SvgjsPath1019" d="M493 368.5V370.17H491.33V368.5ZM496.33 368.5V370.17H494.66999999999996V368.5ZM499.67 368.5V370.17H498V368.5ZM500.5 362.67V361H498.83V362.67H492.16999999999996V361H490.49999999999994V362.67H489.66999999999996C488.73999999999995 362.67 488.00999999999993 363.42 488.00999999999993 364.33000000000004L487.99999999999994 376.00000000000006C487.99999999999994 376.9200000000001 488.73999999999995 377.6700000000001 489.66999999999996 377.6700000000001H501.33C502.25 377.6700000000001 503 376.9200000000001 503 376.00000000000006V364.33000000000004C503 363.42 502.25 362.67 501.33 362.67ZM489.67 376V366.83H501.33000000000004V376Z " fill="#7e8890" fill-opacity="1" transform="matrix(1,0,0,1,-488,-361)"></path></svg>