<svg id="SvgjsSvg1023" xmlns="http://www.w3.org/2000/svg" version="1.1" xmlns:xlink="http://www.w3.org/1999/xlink" xmlns:svgjs="http://svgjs.com/svgjs" width="99" height="99" viewBox="0 0 99 99"><title>Oval</title><desc>Created with Avocode.</desc><defs id="SvgjsDefs1024"></defs><path id="SvgjsPath1025" d="M282.5 255C309.84 255 332 232.84 332 205.5C332 178.16 309.84 156 282.5 156C255.16 156 233 178.16 233 205.5C233 232.84 255.16 255 282.5 255Z " fill="#f5f6f7" fill-opacity="1" transform="matrix(1,0,0,1,-233,-156)"></path><path id="SvgjsPath1026" d="M305 231L257 231C255.34 231 254 229.66 254 228L254 196C254 194.34 255.34 193 257 193L305 193C306.66 193 308 194.34 308 196L308 228C308 229.66 306.66 231 305 231 " fill="#ffffff" fill-opacity="1" transform="matrix(1,0,0,1,-233,-156)"></path><path id="SvgjsPath1027" d="M305 231L257 231C255.34 231 254 229.66 254 228L254 196C254 194.34 255.34 193 257 193L305 193C306.66 193 308 194.34 308 196L308 228C308 229.66 306.66 231 305 231Z " fill-opacity="0" fill="#ffffff" stroke-dasharray="0" stroke-linejoin="miter" stroke-linecap="butt" stroke-opacity="1" stroke="#0195e6" stroke-miterlimit="50" stroke-width="2" transform="matrix(1,0,0,1,-233,-156)"></path><path id="SvgjsPath1028" d="M268.98 207L258 218L261 221L268.98 213L269 213.02L269.02 213L277 221L280 218Z " fill="#d0e8f9" fill-opacity="1" transform="matrix(1,0,0,1,-233,-156)"></path><path id="SvgjsPath1029" d="M268.98 207L258 218L261 221L268.98 213L269 213.02L269.02 213L277 221L280 218Z " fill-opacity="0" fill="#ffffff" stroke-dasharray="0" stroke-linejoin="miter" stroke-linecap="butt" stroke-opacity="1" stroke="#0096e6" stroke-miterlimit="50" stroke-width="2" transform="matrix(1,0,0,1,-233,-156)"></path><path id="SvgjsPath1030" d="M268.99 213L263 219L263 227L275 227L275 219Z " fill="#d0e8f9" fill-opacity="1" transform="matrix(1,0,0,1,-233,-156)"></path><path id="SvgjsPath1031" d="M268.99 213L263 219L263 227L275 227L275 219Z " fill-opacity="0" fill="#ffffff" stroke-dasharray="0" stroke-linejoin="miter" stroke-linecap="butt" stroke-opacity="1" stroke="#0096e6" stroke-miterlimit="50" stroke-width="2" transform="matrix(1,0,0,1,-233,-156)"></path><path id="SvgjsPath1032" d="M285 211L304 211 " fill-opacity="0" fill="#ffffff" stroke-dasharray="0" stroke-linejoin="miter" stroke-linecap="butt" stroke-opacity="1" stroke="#0195e6" stroke-miterlimit="50" stroke-width="2" transform="matrix(1,0,0,1,-233,-156)"></path><path id="SvgjsPath1033" d="M295 217L304 217 " fill-opacity="0" fill="#ffffff" stroke-dasharray="0" stroke-linejoin="miter" stroke-linecap="butt" stroke-opacity="1" stroke="#0195e6" stroke-miterlimit="50" stroke-width="2" transform="matrix(1,0,0,1,-233,-156)"></path><path id="SvgjsPath1034" d="M285 217L291 217 " fill-opacity="0" fill="#ffffff" stroke-dasharray="0" stroke-linejoin="miter" stroke-linecap="butt" stroke-opacity="1" stroke="#0195e6" stroke-miterlimit="50" stroke-width="2" transform="matrix(1,0,0,1,-233,-156)"></path><path id="SvgjsPath1035" d="M299 223L304 223 " fill-opacity="0" fill="#ffffff" stroke-dasharray="0" stroke-linejoin="miter" stroke-linecap="butt" stroke-opacity="1" stroke="#0195e6" stroke-miterlimit="50" stroke-width="2" transform="matrix(1,0,0,1,-233,-156)"></path><path id="SvgjsPath1036" d="M285 223L295 223 " fill-opacity="0" fill="#ffffff" stroke-dasharray="0" stroke-linejoin="miter" stroke-linecap="butt" stroke-opacity="1" stroke="#0195e6" stroke-miterlimit="50" stroke-width="2" transform="matrix(1,0,0,1,-233,-156)"></path><path id="SvgjsPath1037" d="M312 185C312 182.79 310.21 181 308 181C305.79 181 304 182.79 304 185C304 187.21 305.79 189 308 189C310.21 189 312 187.21 312 185 " fill="#d0e8f9" fill-opacity="1" transform="matrix(1,0,0,1,-233,-156)"></path><path id="SvgjsPath1038" d="M312 185C312 182.79 310.21 181 308 181C305.79 181 304 182.79 304 185C304 187.21 305.79 189 308 189C310.21 189 312 187.21 312 185Z " fill-opacity="0" fill="#ffffff" stroke-dasharray="0" stroke-linejoin="miter" stroke-linecap="butt" stroke-opacity="1" stroke="#0096e6" stroke-miterlimit="50" stroke-width="2" transform="matrix(1,0,0,1,-233,-156)"></path><path id="SvgjsPath1039" d="M304 185C304 184.27 304.21 183.59 304.56 183L254 183L254 187L304.56 187C304.21 186.41 304 185.73 304 185 " fill="#d0e8f9" fill-opacity="1" transform="matrix(1,0,0,1,-233,-156)"></path><path id="SvgjsPath1040" d="M304 185C304 184.27 304.21 183.59 304.56 183L254 183L254 187L304.56 187C304.21 186.41 304 185.73 304 185Z " fill-opacity="0" fill="#ffffff" stroke-dasharray="0" stroke-linejoin="miter" stroke-linecap="butt" stroke-opacity="1" stroke="#0096e6" stroke-miterlimit="50" stroke-width="2" transform="matrix(1,0,0,1,-233,-156)"></path><path id="SvgjsPath1041" d="M268 200C268 198.34 266.66 197 265 197C263.34 197 262 198.34 262 200C262 201.66 263.34 203 265 203C266.66 203 268 201.66 268 200 " fill="#d0e8f9" fill-opacity="1" transform="matrix(1,0,0,1,-233,-156)"></path><path id="SvgjsPath1042" d="M268 200C268 198.34 266.66 197 265 197C263.34 197 262 198.34 262 200C262 201.66 263.34 203 265 203C266.66 203 268 201.66 268 200Z " fill-opacity="0" fill="#ffffff" stroke-dasharray="0" stroke-linejoin="miter" stroke-linecap="butt" stroke-opacity="1" stroke="#0096e6" stroke-miterlimit="50" stroke-width="2" transform="matrix(1,0,0,1,-233,-156)"></path><path id="SvgjsPath1043" d="M300 200C300 198.34 298.66 197 297 197C295.34 197 294 198.34 294 200C294 201.66 295.34 203 297 203C298.66 203 300 201.66 300 200 " fill="#d0e8f9" fill-opacity="1" transform="matrix(1,0,0,1,-233,-156)"></path><path id="SvgjsPath1044" d="M300 200C300 198.34 298.66 197 297 197C295.34 197 294 198.34 294 200C294 201.66 295.34 203 297 203C298.66 203 300 201.66 300 200Z " fill-opacity="0" fill="#ffffff" stroke-dasharray="0" stroke-linejoin="miter" stroke-linecap="butt" stroke-opacity="1" stroke="#0096e6" stroke-miterlimit="50" stroke-width="2" transform="matrix(1,0,0,1,-233,-156)"></path><path id="SvgjsPath1045" d="M265 187L265 199 " fill-opacity="0" fill="#ffffff" stroke-dasharray="0" stroke-linejoin="miter" stroke-linecap="butt" stroke-opacity="1" stroke="#0195e6" stroke-miterlimit="50" stroke-width="2" transform="matrix(1,0,0,1,-233,-156)"></path><path id="SvgjsPath1046" d="M297 187L297 199 " fill-opacity="0" fill="#ffffff" stroke-dasharray="0" stroke-linejoin="miter" stroke-linecap="butt" stroke-opacity="1" stroke="#0195e6" stroke-miterlimit="50" stroke-width="2" transform="matrix(1,0,0,1,-233,-156)"></path></svg>