<svg id="SvgjsSvg1047" xmlns="http://www.w3.org/2000/svg" version="1.1" xmlns:xlink="http://www.w3.org/1999/xlink" xmlns:svgjs="http://svgjs.com/svgjs" width="63" height="53" viewBox="0 0 63 53"><title>cube-with-arrows</title><desc>Created with Avocode.</desc><defs id="SvgjsDefs1048"></defs><path id="SvgjsPath1049" d="M1235.41 1669.32C1235.0900000000001 1668.54 1234.2 1668.1699999999998 1233.43 1668.5C1232.65 1668.82 1232.29 1669.72 1232.6100000000001 1670.5L1233.5700000000002 1672.84L1228.4500000000003 1670.6999999999998L1228.4500000000003 1647.87C1228.4500000000003 1647.2199999999998 1228.0500000000002 1646.6499999999999 1227.4500000000003 1646.4299999999998L1207.9600000000003 1639.2499999999998L1207.9600000000003 1634.2299999999998L1209.7300000000002 1636.0199999999998C1210.0200000000002 1636.3199999999997 1210.4100000000003 1636.4699999999998 1210.8000000000002 1636.4699999999998C1211.1900000000003 1636.4699999999998 1211.5800000000002 1636.3199999999997 1211.8700000000001 1636.0199999999998C1212.46 1635.4199999999998 1212.46 1634.4499999999998 1211.8700000000001 1633.8599999999997L1207.5100000000002 1629.4499999999996C1206.9200000000003 1628.8499999999997 1205.9600000000003 1628.8499999999997 1205.3700000000001 1629.4499999999996L1201.0100000000002 1633.8599999999997C1200.4200000000003 1634.4499999999996 1200.4200000000003 1635.4199999999996 1201.0100000000002 1636.0199999999998C1201.6000000000001 1636.6199999999997 1202.5600000000002 1636.6199999999997 1203.1500000000003 1636.0199999999998L1204.9300000000003 1634.2299999999998L1204.9300000000003 1639.2499999999998L1185.4300000000003 1646.4299999999998C1184.8300000000004 1646.6499999999999 1184.4300000000003 1647.2199999999998 1184.4300000000003 1647.87L1184.4300000000003 1670.6999999999998L1179.3100000000004 1672.84L1180.2800000000004 1670.5C1180.6000000000004 1669.72 1180.2300000000005 1668.82 1179.4600000000005 1668.5C1178.6800000000005 1668.17 1177.8000000000004 1668.54 1177.4800000000005 1669.32L1175.1200000000006 1675.08C1174.9600000000005 1675.46 1174.9600000000005 1675.8799999999999 1175.1200000000006 1676.26C1175.2700000000007 1676.6299999999999 1175.5600000000006 1676.93 1175.9400000000005 1677.08L1181.6300000000006 1679.47C1181.8200000000006 1679.55 1182.0200000000007 1679.59 1182.2100000000005 1679.59C1182.8000000000004 1679.59 1183.3700000000006 1679.23 1183.6100000000006 1678.6399999999999C1183.9300000000005 1677.86 1183.5600000000006 1676.9699999999998 1182.7900000000006 1676.6399999999999L1180.4700000000007 1675.6699999999998L1185.9200000000008 1673.3899999999999L1205.9200000000008 1680.7599999999998C1205.9200000000008 1680.7599999999998 1206.2100000000007 1680.8499999999997 1206.4400000000007 1680.8499999999997C1206.6800000000007 1680.8499999999997 1206.9600000000007 1680.7599999999998 1206.9600000000007 1680.7599999999998L1226.9600000000007 1673.3899999999999L1232.4100000000008 1675.6699999999998L1230.0900000000008 1676.6399999999999C1229.3200000000008 1676.9699999999998 1228.9500000000007 1677.86 1229.270000000001 1678.6399999999999C1229.520000000001 1679.2299999999998 1230.0800000000008 1679.59 1230.670000000001 1679.59C1230.870000000001 1679.59 1231.060000000001 1679.55 1231.250000000001 1679.47L1236.950000000001 1677.08C1237.3200000000008 1676.9299999999998 1237.610000000001 1676.6299999999999 1237.770000000001 1676.26C1237.920000000001 1675.8799999999999 1237.920000000001 1675.46 1237.770000000001 1675.08ZM1187.46 1669.39L1187.46 1650.23L1204.93 1657.3600000000001L1204.93 1662.2600000000002ZM1190.06 1671.66L1204.9299999999998 1665.5600000000002L1204.9299999999998 1677.13ZM1207.96 1665.56L1222.82 1671.6599999999999L1207.96 1677.1299999999999ZM1190.06 1647.98L1204.9299999999998 1642.51L1204.9299999999998 1654.05ZM1222.82 1647.98L1207.96 1654.05L1207.96 1642.51ZM1207.96 1662.26L1207.96 1657.36L1225.42 1650.2299999999998L1225.42 1669.3899999999999Z " fill="#ff8402" fill-opacity="1" transform="matrix(1,0,0,1,-1175,-1628)"></path></svg>