<svg id="SvgjsSvg1000" xmlns="http://www.w3.org/2000/svg" version="1.1" xmlns:xlink="http://www.w3.org/1999/xlink" xmlns:svgjs="http://svgjs.com/svgjs" width="8" height="8" viewBox="0 0 8 8"><title>Oval</title><desc>Created with Avocode.</desc><defs id="SvgjsDefs1001"><clipPath id="SvgjsClipPath1009"><path id="SvgjsPath1008" d="M725 559C725 556.79086 726.79086 555 729 555C731.20914 555 733 556.79086 733 559C733 561.20914 731.20914 563 729 563C726.79086 563 725 561.20914 725 559Z " fill="#ffffff"></path></clipPath></defs><path id="SvgjsPath1007" d="M725 559C725 556.79086 726.79086 555 729 555C731.20914 555 733 556.79086 733 559C733 561.20914 731.20914 563 729 563C726.79086 563 725 561.20914 725 559Z " fill-opacity="0" fill="#ffffff" stroke-dasharray="0" stroke-linejoin="miter" stroke-linecap="butt" stroke-opacity="0.5" stroke="#ffffff" stroke-miterlimit="50" stroke-width="4" clip-path="url(&quot;#SvgjsClipPath1009&quot;)" transform="matrix(1,0,0,1,-725,-555)"></path></svg>