<svg id="SvgjsSvg1000" xmlns="http://www.w3.org/2000/svg" version="1.1" xmlns:xlink="http://www.w3.org/1999/xlink" xmlns:svgjs="http://svgjs.com/svgjs" width="110" height="110" viewBox="0 0 110 110"><title>Oval 3</title><desc>Created with Avocode.</desc><defs id="SvgjsDefs1001"></defs><path id="SvgjsPath1007" d="M389 251C389 220.62434 413.62434 196 444 196C474.37566 196 499 220.62434 499 251C499 281.37566 474.37566 306 444 306C413.62434 306 389 281.37566 389 251Z " fill="#101414" fill-opacity="1" transform="matrix(1,0,0,1,-389,-196)"></path><path id="SvgjsPath1008" d="M439 250L436 250L436 260C436 261.1 436.9 262 438 262L454 262C455.1 262 456 261.1 456 260L456 248C456 246.9 455.1 246 454 246L450.83 246L449 244L442 244L442 247L439 247ZM446 259C443.24 259 441 256.76 441 254C441 251.24 443.24 249 446 249C448.76 249 451 251.24 451 254C451 256.76 448.76 259 446 259ZM436 244L433 244L433 246L436 246L436 249L438 249L438 246L441 246L441 244L438 244L438 241L436 241ZM442.8 254C442.8 252.23 444.23 250.8 446 250.8C447.77 250.8 449.2 252.23000000000002 449.2 254C449.2 255.77 447.77 257.2 446 257.2C444.23 257.2 442.8 255.76999999999998 442.8 254Z " fill="#ffffff" fill-opacity="1" transform="matrix(1,0,0,1,-389,-196)"></path></svg>