<svg id="SvgjsSvg1031" xmlns="http://www.w3.org/2000/svg" version="1.1" xmlns:xlink="http://www.w3.org/1999/xlink" xmlns:svgjs="http://svgjs.com/svgjs" width="44" height="60" viewBox="0 0 44 60"><title>1474422403_017_249_power_electricity_electric_socket_cord_plug</title><desc>Created with Avocode.</desc><defs id="SvgjsDefs1032"></defs><path id="SvgjsPath1033" d="M734 136L736 136C738.21 136 740 134.21 740 132L740 98C740 95.79 738.21 94 736 94L702 94C699.79 94 698 95.79 698 98L698 132C698 134.21 699.79 136 702 136L704 136 " fill="#ffffff" fill-opacity="1" transform="matrix(1,0,0,1,-697,-93)"></path><path id="SvgjsPath1034" d="M736 137L734 137C733.45 137 733 136.55 733 136C733 135.45 733.45 135 734 135L736 135C737.65 135 739 133.65 739 132L739 98C739 96.35 737.65 95 736 95L702 95C700.35 95 699 96.35 699 98L699 132C699 133.65 700.35 135 702 135L704 135C704.55 135 705 135.45 705 136C705 136.55 704.55 137 704 137L702 137C699.24 137 697 134.76 697 132L697 98C697 95.24 699.24 93 702 93L736 93C738.76 93 741 95.24 741 98L741 132C741 134.76 738.76 137 736 137Z " fill="#0a94e3" fill-opacity="1" transform="matrix(1,0,0,1,-697,-93)"></path><path id="SvgjsPath1035" d="M704 115C704 106.71573000000001 710.71573 100 719 100C727.28427 100 734 106.71573 734 115C734 123.28426999999999 727.28427 130 719 130C710.71573 130 704 123.28427 704 115Z " fill="#c2e4f8" fill-opacity="1" transform="matrix(1,0,0,1,-697,-93)"></path><path id="SvgjsPath1036" d="M725 122C723.9 122 723 122.9 723 124L723 132L727 132L727 124C727 122.9 726.1 122 725 122Z " fill="#ffffff" fill-opacity="1" transform="matrix(1,0,0,1,-697,-93)"></path><path id="SvgjsPath1037" d="M723 133C722.45 133 722 132.55 722 132L722 124C722 122.35 723.35 121 725 121C726.65 121 728 122.35 728 124L728 132C728 132.55 727.55 133 727 133ZM726 131L726 124C726 123.45 725.55 123 725 123C724.45 123 724 123.45 724 124L724 131Z " fill="#0a94e3" fill-opacity="1" transform="matrix(1,0,0,1,-697,-93)"></path><path id="SvgjsPath1038" d="M713 122C711.9 122 711 122.9 711 124L711 132L715 132L715 124C715 122.9 714.1 122 713 122Z " fill="#ffffff" fill-opacity="1" transform="matrix(1,0,0,1,-697,-93)"></path><path id="SvgjsPath1039" d="M711 133C710.45 133 710 132.55 710 132L710 124C710 122.35 711.35 121 713 121C714.65 121 716 122.35 716 124L716 132C716 132.55 715.55 133 715 133ZM714 131L714 124C714 123.45 713.55 123 713 123C712.45 123 712 123.45 712 124L712 131Z " fill="#0a94e3" fill-opacity="1" transform="matrix(1,0,0,1,-697,-93)"></path><path id="SvgjsPath1040" d="M710 115C710 113.34315 711.34315 112 713 112C714.65685 112 716 113.34315 716 115C716 116.65685 714.65685 118 713 118C711.34315 118 710 116.65685 710 115Z " fill="#ffffff" fill-opacity="1" transform="matrix(1,0,0,1,-697,-93)"></path><path id="SvgjsPath1041" d="M709 115C709 112.79 710.79 111 713 111C715.21 111 717 112.79 717 115C717 117.21 715.21 119 713 119C710.79 119 709 117.21 709 115ZM711 115C711 116.1 711.9 117 713 117C714.1 117 715 116.1 715 115C715 113.9 714.1 113 713 113C711.9 113 711 113.9 711 115Z " fill="#0a94e3" fill-opacity="1" transform="matrix(1,0,0,1,-697,-93)"></path><path id="SvgjsPath1042" d="M722 115C722 113.34315 723.34315 112 725 112C726.65685 112 728 113.34315 728 115C728 116.65685 726.65685 118 725 118C723.34315 118 722 116.65685 722 115Z " fill="#ffffff" fill-opacity="1" transform="matrix(1,0,0,1,-697,-93)"></path><path id="SvgjsPath1043" d="M721 115C721 112.79 722.79 111 725 111C727.21 111 729 112.79 729 115C729 117.21 727.21 119 725 119C722.79 119 721 117.21 721 115ZM723 115C723 116.1 723.9 117 725 117C726.1 117 727 116.1 727 115C727 113.9 726.1 113 725 113C723.9 113 723 113.9 723 115Z " fill="#0a94e3" fill-opacity="1" transform="matrix(1,0,0,1,-697,-93)"></path><path id="SvgjsPath1044" d="M717 152L717 146L721 146L721 152 " fill="#c2e4f8" fill-opacity="1" transform="matrix(1,0,0,1,-697,-93)"></path><path id="SvgjsPath1045" d="M721 153C720.45 153 720 152.55 720 152L720 147L718 147L718 152C718 152.55 717.55 153 717 153C716.45 153 716 152.55 716 152L716 146C716 145.45 716.45 145 717 145L721 145C721.55 145 722 145.45 722 146L722 152C722 152.55 721.55 153 721 153Z " fill="#0a94e3" fill-opacity="1" transform="matrix(1,0,0,1,-697,-93)"></path><path id="SvgjsPath1046" d="M708 136L708 132L730 132L730 136Z " fill="#ffffff" fill-opacity="1" transform="matrix(1,0,0,1,-697,-93)"></path><path id="SvgjsPath1047" d="M708 137C707.45 137 707 136.55 707 136L707 132C707 131.45 707.45 131 708 131L730 131C730.55 131 731 131.45 731 132L731 136C731 136.55 730.55 137 730 137ZM729 135L729 133L709 133L709 135Z " fill="#0a94e3" fill-opacity="1" transform="matrix(1,0,0,1,-697,-93)"></path><path id="SvgjsPath1048" d="M731 124.98C730.79 124.98 730.58 124.92 730.4 124.78C729.9599999999999 124.45 729.87 123.82000000000001 730.1999999999999 123.38C732.03 120.94 732.9999999999999 118.05 732.9999999999999 115C732.9999999999999 107.28 726.7199999999999 101 718.9999999999999 101C711.2799999999999 101 704.9999999999999 107.28 704.9999999999999 115C704.9999999999999 118.05 705.9699999999999 120.94 707.7999999999998 123.38C708.1299999999999 123.82 708.0399999999998 124.44999999999999 707.5999999999998 124.78C707.1599999999997 125.11 706.5299999999997 125.02 706.1999999999998 124.58C704.1099999999998 121.8 702.9999999999998 118.48 702.9999999999998 115C702.9999999999998 106.18 710.1799999999997 99 718.9999999999998 99C727.8199999999998 99 734.9999999999998 106.18 734.9999999999998 115C734.9999999999998 118.48 733.8899999999998 121.8 731.7999999999997 124.58C731.5999999999997 124.84 731.2999999999997 124.98 730.9999999999998 124.98Z " fill="#0a94e3" fill-opacity="1" transform="matrix(1,0,0,1,-697,-93)"></path><path id="SvgjsPath1049" d="M728 136L728 142C728 144.21 726.21 146 724 146L714 146C711.79 146 710 144.21 710 142L710 136Z " fill="#ffffff" fill-opacity="1" transform="matrix(1,0,0,1,-697,-93)"></path><path id="SvgjsPath1050" d="M714 147C711.24 147 709 144.76 709 142L709 136C709 135.45 709.45 135 710 135L728 135C728.55 135 729 135.45 729 136L729 142C729 144.76 726.76 147 724 147ZM711 142C711 143.65 712.35 145 714 145L724 145C725.65 145 727 143.65 727 142L727 137L711 137Z " fill="#0a94e3" fill-opacity="1" transform="matrix(1,0,0,1,-697,-93)"></path></svg>