<svg id="SvgjsSvg1075" xmlns="http://www.w3.org/2000/svg" version="1.1" xmlns:xlink="http://www.w3.org/1999/xlink" xmlns:svgjs="http://svgjs.com/svgjs" width="45" height="45" viewBox="0 0 45 45"><title>enlarge</title><desc>Created with Avocode.</desc><defs id="SvgjsDefs1076"></defs><path id="SvgjsPath1077" d="M1463.42 1868C1462.69 1868 1462.1000000000001 1868.59 1462.1000000000001 1869.32C1462.1000000000001 1870.05 1462.69 1870.6499999999999 1463.42 1870.6499999999999L1466.3600000000001 1870.6499999999999L1452.7600000000002 1884.2499999999998C1451.5600000000002 1883.4199999999998 1450.1000000000001 1882.9299999999998 1448.5400000000002 1882.9299999999998C1446.9200000000003 1882.9299999999998 1445.4200000000003 1883.4499999999998 1444.2000000000003 1884.33L1430.5200000000002 1870.6499999999999L1433.4600000000003 1870.6499999999999C1434.1900000000003 1870.6499999999999 1434.7800000000002 1870.05 1434.7800000000002 1869.32C1434.7800000000002 1868.59 1434.1900000000003 1868 1433.4600000000003 1868L1427.3200000000002 1868C1426.5900000000001 1868 1426.0000000000002 1868.59 1426.0000000000002 1869.32L1426.0000000000002 1875.46C1426.0000000000002 1876.19 1426.5900000000001 1876.78 1427.3200000000002 1876.78C1428.0500000000002 1876.78 1428.65 1876.19 1428.65 1875.46L1428.65 1872.52L1442.3500000000001 1886.23C1441.5500000000002 1887.41 1441.0800000000002 1888.85 1441.0800000000002 1890.39C1441.0800000000002 1891.95 1441.5700000000002 1893.4 1442.39 1894.6000000000001L1428.65 1908.3400000000001L1428.65 1905.4C1428.65 1904.67 1428.0500000000002 1904.0800000000002 1427.3200000000002 1904.0800000000002C1426.5900000000001 1904.0800000000002 1426.0000000000002 1904.67 1426.0000000000002 1905.4L1426.0000000000002 1911.5400000000002C1426.0000000000002 1912.2700000000002 1426.5900000000001 1912.8600000000001 1427.3200000000002 1912.8600000000001L1433.4600000000003 1912.8600000000001C1434.1900000000003 1912.8600000000001 1434.7800000000002 1912.2700000000002 1434.7800000000002 1911.5400000000002C1434.7800000000002 1910.8100000000002 1434.1900000000003 1910.2100000000003 1433.4600000000003 1910.2100000000003L1430.5200000000002 1910.2100000000003L1444.2500000000002 1896.4800000000002C1445.4700000000003 1897.3400000000001 1446.9400000000003 1897.8400000000001 1448.5400000000002 1897.8400000000001C1452.65 1897.8400000000001 1455.9900000000002 1894.5000000000002 1455.9900000000002 1890.39C1455.9900000000002 1888.8000000000002 1455.4900000000002 1887.3200000000002 1454.6400000000003 1886.1100000000001L1468.2300000000002 1872.5200000000002L1468.2300000000002 1875.4600000000003C1468.2300000000002 1876.1900000000003 1468.8200000000002 1876.7800000000002 1469.5500000000002 1876.7800000000002C1470.2900000000002 1876.7800000000002 1470.88 1876.1900000000003 1470.88 1875.4600000000003L1470.88 1869.3200000000002C1470.88 1868.5900000000001 1470.2900000000002 1868.0000000000002 1469.5500000000002 1868.0000000000002ZM1443.73 1890.39C1443.73 1887.74 1445.89 1885.5800000000002 1448.54 1885.5800000000002C1449.74 1885.5800000000002 1450.83 1886.0200000000002 1451.67 1886.7500000000002C1451.73 1886.8400000000001 1451.79 1886.9300000000003 1451.8700000000001 1887.0100000000002C1451.95 1887.0900000000001 1452.0500000000002 1887.1500000000003 1452.14 1887.2100000000003C1452.89 1888.0600000000002 1453.3400000000001 1889.1700000000003 1453.3400000000001 1890.3900000000003C1453.3400000000001 1893.0400000000004 1451.19 1895.1900000000003 1448.5400000000002 1895.1900000000003C1445.89 1895.1900000000003 1443.7300000000002 1893.0400000000002 1443.7300000000002 1890.3900000000003Z " fill="#ff8402" fill-opacity="1" transform="matrix(1,0,0,1,-1426,-1868)"></path><path id="SvgjsPath1078" d="M1469.51 1904.05C1468.78 1904.05 1468.18 1904.6399999999999 1468.18 1905.37L1468.18 1908.31L1458.26 1898.3899999999999C1457.74 1897.87 1456.9 1897.87 1456.39 1898.3899999999999C1455.8700000000001 1898.8999999999999 1455.8700000000001 1899.7399999999998 1456.39 1900.2599999999998L1466.3100000000002 1910.1799999999998L1463.3700000000001 1910.1799999999998C1462.64 1910.1799999999998 1462.0500000000002 1910.7799999999997 1462.0500000000002 1911.5099999999998C1462.0500000000002 1912.2399999999998 1462.64 1912.8299999999997 1463.3700000000001 1912.8299999999997L1469.5100000000002 1912.8299999999997C1470.2400000000002 1912.8299999999997 1470.8300000000002 1912.2399999999998 1470.8300000000002 1911.5099999999998L1470.8300000000002 1905.3699999999997C1470.8300000000002 1904.6399999999996 1470.2400000000002 1904.0499999999997 1469.5100000000002 1904.0499999999997Z " fill="#ff8402" fill-opacity="1" transform="matrix(1,0,0,1,-1426,-1868)"></path></svg>