<svg id="SvgjsSvg1000" xmlns="http://www.w3.org/2000/svg" version="1.1" xmlns:xlink="http://www.w3.org/1999/xlink" xmlns:svgjs="http://svgjs.com/svgjs" width="45" height="45" viewBox="0 0 45 45"><title>Shape</title><desc>Created with Avocode.</desc><defs id="SvgjsDefs1001"></defs><path id="SvgjsPath1007" d="M509 511.5C509 523.93 519.07 534 531.5 534C543.93 534 554 523.93 554 511.5C554 499.07 543.93 489 531.5 489C519.07 489 509 499.07 509 511.5ZM513.22 511.5C513.22 501.4 521.4 493.22 531.5 493.22C541.6 493.22 549.78 501.40000000000003 549.78 511.5C549.78 521.6 541.6 529.78 531.5 529.78C521.4 529.78 513.22 521.6 513.22 511.5ZM528.67 501.07L528.67 513.53C528.67 514.89 529.89 515.72 531.5 515.72C533.07 515.72 534.33 514.85 534.33 513.53L534.33 501.07C534.33 499.74 533.07 498.87 531.5 498.87C529.89 498.87 528.67 499.71 528.67 501.07ZM531.5 518.53C533.05 518.53 534.31 519.79 534.31 521.3399999999999C534.31 522.8899999999999 533.05 524.1499999999999 531.5 524.1499999999999C529.95 524.1499999999999 528.69 522.8899999999999 528.69 521.3399999999999C528.69 519.79 529.95 518.53 531.5 518.53Z " fill="#e2574c" fill-opacity="1" transform="matrix(1,0,0,1,-509,-489)"></path></svg>