<svg id="SvgjsSvg1079" xmlns="http://www.w3.org/2000/svg" version="1.1" xmlns:xlink="http://www.w3.org/1999/xlink" xmlns:svgjs="http://svgjs.com/svgjs" width="20" height="29" viewBox="0 0 20 29"><title>facebook-placeholder-for-locate-places-on-maps</title><desc>Created with Avocode.</desc><defs id="SvgjsDefs1080"></defs><path id="SvgjsPath1081" d="M759.95 5875.05C758.1 5870.59 754.07 5869 750.8100000000001 5869C746.45 5869 741.6400000000001 5871.93 741.0000000000001 5877.98L741.0000000000001 5879.209999999999C741.0000000000001 5879.259999999999 741.0200000000001 5879.73 741.0400000000001 5879.959999999999C741.4000000000001 5882.839999999999 743.6700000000001 5885.899999999999 745.3600000000001 5888.779999999999C747.1900000000002 5891.869999999999 749.0800000000002 5894.909999999999 750.9500000000002 5897.939999999999C752.1000000000001 5895.959999999999 753.2500000000001 5893.949999999999 754.3800000000001 5892.019999999999C754.69 5891.459999999998 755.0500000000001 5890.8899999999985 755.3600000000001 5890.3499999999985C755.5600000000002 5889.989999999999 755.9500000000002 5889.629999999998 756.1300000000001 5889.299999999998C757.9500000000002 5885.949999999998 760.8900000000001 5882.579999999998 760.8900000000001 5879.259999999998L760.8900000000001 5877.899999999999C760.8900000000001 5877.539999999999 760.44 5876.279999999999 760.4200000000001 5876.199999999999C760.3100000000001 5875.819999999999 760.1 5875.409999999999 759.95 5875.049999999999ZM747.51 5879.98C747.41 5879.7 747.41 5879.139999999999 747.41 5879.08L747.41 5878.29C747.41 5876.0199999999995 749.3299999999999 5874.99 751 5874.99C753.05 5874.99 754.64 5876.639999999999 754.64 5878.7C754.64 5880.76 752.9399999999999 5882.4 750.89 5882.4C749.61 5882.4 748.1999999999999 5881.759999999999 747.51 5879.98Z " fill="#ff8402" fill-opacity="1" transform="matrix(1,0,0,1,-741,-5869)"></path></svg>