<svg id="SvgjsSvg1015" xmlns="http://www.w3.org/2000/svg" version="1.1" xmlns:xlink="http://www.w3.org/1999/xlink" xmlns:svgjs="http://svgjs.com/svgjs" width="27" height="27" viewBox="0 0 27 27"><title>Shape</title><desc>Created with Avocode.</desc><defs id="SvgjsDefs1016"></defs><path id="SvgjsPath1017" d="M752.48 1403.02C752.22 1403.02 752 1402.8 752 1402.54L752 1378.48C752 1378.22 752.22 1378 752.48 1378L767.89 1378C768.15 1378 768.37 1378.22 768.37 1378.48L768.37 1386.66L769.8100000000001 1386.66C770.08 1386.66 770.3000000000001 1386.88 770.3000000000001 1387.14C770.3000000000001 1387.41 770.08 1387.6200000000001 769.8100000000001 1387.6200000000001L767.8900000000001 1387.6200000000001C767.6200000000001 1387.6200000000001 767.4100000000001 1387.41 767.4100000000001 1387.14L767.4100000000001 1378.96L762.59 1378.96L762.59 1380.41C762.59 1380.67 762.38 1380.89 762.11 1380.89C761.85 1380.89 761.63 1380.67 761.63 1380.41L761.63 1378.96L752.96 1378.96L752.96 1390.51L754.4100000000001 1390.51C754.6700000000001 1390.51 754.8900000000001 1390.73 754.8900000000001 1390.99C754.8900000000001 1391.26 754.6700000000001 1391.47 754.4100000000001 1391.47L752.96 1391.47L752.96 1402.06L761.63 1402.06L761.63 1391.47L760.1899999999999 1391.47C759.92 1391.47 759.6999999999999 1391.26 759.6999999999999 1390.99C759.6999999999999 1390.73 759.92 1390.51 760.1899999999999 1390.51L761.63 1390.51L761.63 1386.18C761.63 1385.91 761.85 1385.7 762.11 1385.7C762.38 1385.7 762.59 1385.91 762.59 1386.18L762.59 1396.28L764.0400000000001 1396.28C764.3000000000001 1396.28 764.5200000000001 1396.5 764.5200000000001 1396.77C764.5200000000001 1397.03 764.3000000000001 1397.25 764.0400000000001 1397.25L762.59 1397.25L762.59 1402.06L777.0400000000001 1402.06L777.0400000000001 1397.25L769.8100000000001 1397.25C769.5500000000001 1397.25 769.33 1397.03 769.33 1396.77C769.33 1396.5 769.5500000000001 1396.28 769.8100000000001 1396.28L777.0400000000001 1396.28L777.0400000000001 1387.62L775.59 1387.62C775.33 1387.62 775.11 1387.4099999999999 775.11 1387.1399999999999C775.11 1386.8799999999999 775.33 1386.6599999999999 775.59 1386.6599999999999L777.52 1386.6599999999999C777.78 1386.6599999999999 778 1386.8799999999999 778 1387.1399999999999L778 1402.54C778 1402.8 777.78 1403.02 777.52 1403.02Z " fill="#ffffff" fill-opacity="1" transform="matrix(1,0,0,1,-751.5,-1377.5)"></path><path id="SvgjsPath1018" d="M752.48 1403.02C752.22 1403.02 752 1402.8 752 1402.54L752 1378.48C752 1378.22 752.22 1378 752.48 1378L767.89 1378C768.15 1378 768.37 1378.22 768.37 1378.48L768.37 1386.66L769.8100000000001 1386.66C770.08 1386.66 770.3000000000001 1386.88 770.3000000000001 1387.14C770.3000000000001 1387.41 770.08 1387.6200000000001 769.8100000000001 1387.6200000000001L767.8900000000001 1387.6200000000001C767.6200000000001 1387.6200000000001 767.4100000000001 1387.41 767.4100000000001 1387.14L767.4100000000001 1378.96L762.59 1378.96L762.59 1380.41C762.59 1380.67 762.38 1380.89 762.11 1380.89C761.85 1380.89 761.63 1380.67 761.63 1380.41L761.63 1378.96L752.96 1378.96L752.96 1390.51L754.4100000000001 1390.51C754.6700000000001 1390.51 754.8900000000001 1390.73 754.8900000000001 1390.99C754.8900000000001 1391.26 754.6700000000001 1391.47 754.4100000000001 1391.47L752.96 1391.47L752.96 1402.06L761.63 1402.06L761.63 1391.47L760.1899999999999 1391.47C759.92 1391.47 759.6999999999999 1391.26 759.6999999999999 1390.99C759.6999999999999 1390.73 759.92 1390.51 760.1899999999999 1390.51L761.63 1390.51L761.63 1386.18C761.63 1385.91 761.85 1385.7 762.11 1385.7C762.38 1385.7 762.59 1385.91 762.59 1386.18L762.59 1396.28L764.0400000000001 1396.28C764.3000000000001 1396.28 764.5200000000001 1396.5 764.5200000000001 1396.77C764.5200000000001 1397.03 764.3000000000001 1397.25 764.0400000000001 1397.25L762.59 1397.25L762.59 1402.06L777.0400000000001 1402.06L777.0400000000001 1397.25L769.8100000000001 1397.25C769.5500000000001 1397.25 769.33 1397.03 769.33 1396.77C769.33 1396.5 769.5500000000001 1396.28 769.8100000000001 1396.28L777.0400000000001 1396.28L777.0400000000001 1387.62L775.59 1387.62C775.33 1387.62 775.11 1387.4099999999999 775.11 1387.1399999999999C775.11 1386.8799999999999 775.33 1386.6599999999999 775.59 1386.6599999999999L777.52 1386.6599999999999C777.78 1386.6599999999999 778 1386.8799999999999 778 1387.1399999999999L778 1402.54C778 1402.8 777.78 1403.02 777.52 1403.02Z " fill-opacity="0" fill="#ffffff" stroke-dasharray="0" stroke-linejoin="miter" stroke-linecap="butt" stroke-opacity="1" stroke="#ffffff" stroke-miterlimit="50" stroke-width="1" transform="matrix(1,0,0,1,-751.5,-1377.5)"></path></svg>