<svg id="SvgjsSvg1019" xmlns="http://www.w3.org/2000/svg" version="1.1" xmlns:xlink="http://www.w3.org/1999/xlink" xmlns:svgjs="http://svgjs.com/svgjs" width="4" height="8" viewBox="0 0 4 8"><title>Shape</title><desc>Created with Avocode.</desc><defs id="SvgjsDefs1020"></defs><path id="SvgjsPath1021" d="M702.49 415.75C702.49 416.26 702.04 416.72 701.45 416.72C700.96 416.72 700.6800000000001 416.43 700.69 415.96000000000004C700.69 415.55 701.0300000000001 415.00000000000006 701.71 415.00000000000006C702.23 415.00000000000006 702.49 415.3500000000001 702.49 415.75000000000006ZM700.12 422.71C700.53 422.71 701.58 422.34 702.55 421.34999999999997L702.3199999999999 421.03999999999996C701.92 421.34999999999997 701.52 421.51 701.4 421.51C701.3 421.51 701.26 421.38 701.36 421.02L701.9 418.95C702.1 418.2 702.03 417.71 701.62 417.71C701.13 417.71 699.99 418.2 699 419.03999999999996L699.2 419.37999999999994C699.5200000000001 419.16999999999996 700.0500000000001 418.94999999999993 700.1700000000001 418.94999999999993C700.2600000000001 418.94999999999993 700.2500000000001 419.0799999999999 700.1700000000001 419.38999999999993L699.7 421.35999999999996C699.4200000000001 422.46 699.71 422.71 700.12 422.71Z " fill="#7e8890" fill-opacity="1" transform="matrix(1,0,0,1,-699,-415)"></path></svg>