<svg id="SvgjsSvg1016" xmlns="http://www.w3.org/2000/svg" version="1.1" xmlns:xlink="http://www.w3.org/1999/xlink" xmlns:svgjs="http://svgjs.com/svgjs" width="4" height="8" viewBox="0 0 4 8"><title>Shape</title><desc>Created with Avocode.</desc><defs id="SvgjsDefs1017"></defs><path id="SvgjsPath1018" d="M700.49 266.75C700.49 267.26 700.04 267.72 699.45 267.72C698.96 267.72 698.6800000000001 267.43 698.69 266.96000000000004C698.69 266.55 699.0300000000001 266.00000000000006 699.71 266.00000000000006C700.23 266.00000000000006 700.49 266.3500000000001 700.49 266.75000000000006ZM698.12 273.71C698.53 273.71 699.58 273.34 700.55 272.34999999999997L700.3199999999999 272.03999999999996C699.92 272.34999999999997 699.52 272.51 699.4 272.51C699.3 272.51 699.26 272.38 699.36 272.02L699.9 269.95C700.1 269.2 700.03 268.71 699.62 268.71C699.13 268.71 697.99 269.2 697 270.03999999999996L697.2 270.37999999999994C697.5200000000001 270.16999999999996 698.0500000000001 269.94999999999993 698.1700000000001 269.94999999999993C698.2600000000001 269.94999999999993 698.2500000000001 270.0799999999999 698.1700000000001 270.38999999999993L697.7 272.35999999999996C697.4200000000001 273.46 697.71 273.71 698.12 273.71Z " fill="#ffffff" fill-opacity="1" transform="matrix(1,0,0,1,-697,-266)"></path></svg>