<svg id="SvgjsSvg1012" xmlns="http://www.w3.org/2000/svg" version="1.1" xmlns:xlink="http://www.w3.org/1999/xlink" xmlns:svgjs="http://svgjs.com/svgjs" width="91" height="86" viewBox="0 0 91 86"><title>Oval</title><desc>Created with Avocode.</desc><defs id="SvgjsDefs1013"><clipPath id="SvgjsClipPath1016"><path id="SvgjsPath1015" d="M751 242.5C751 222.34161 767.34161 206 787.5 206C807.65839 206 824 222.34161 824 242.5C824 262.65839 807.65839 279 787.5 279C767.34161 279 751 262.65839 751 242.5Z " fill="#ffffff"></path></clipPath></defs><path id="SvgjsPath1014" d="M751 242.5C751 222.34161 767.34161 206 787.5 206C807.65839 206 824 222.34161 824 242.5C824 262.65839 807.65839 279 787.5 279C767.34161 279 751 262.65839 751 242.5Z " fill-opacity="0" fill="#ffffff" stroke-dasharray="0" stroke-linejoin="miter" stroke-linecap="butt" stroke-opacity="1" stroke="#ffffff" stroke-miterlimit="50" stroke-width="18" clip-path="url(&quot;#SvgjsClipPath1016&quot;)" transform="matrix(1,0,0,1,-751,-193)"></path><path id="SvgjsPath1017" d="M822 203C822 197.47715 826.47715 193 832 193C837.52285 193 842 197.47715 842 203C842 208.52285 837.52285 213 832 213C826.47715 213 822 208.52285 822 203Z " fill="#ff8402" fill-opacity="1" transform="matrix(1,0,0,1,-751,-193)"></path></svg>