<svg id="SvgjsSvg1023" xmlns="http://www.w3.org/2000/svg" version="1.1" xmlns:xlink="http://www.w3.org/1999/xlink" xmlns:svgjs="http://svgjs.com/svgjs" width="15" height="15" viewBox="0 0 15 15"><title>Shape</title><desc>Created with Avocode.</desc><defs id="SvgjsDefs1024"></defs><path id="SvgjsPath1025" d="M758 367.25C758 371.25 761.25 374.5 765.25 374.5C769.25 374.5 772.5 371.25 772.5 367.25C772.5 363.25 769.25 360 765.25 360C761.25 360 758 363.25 758 367.25ZM759.36 367.25C759.36 364 762 361.36 765.25 361.36C768.5 361.36 771.14 364 771.14 367.25C771.14 370.5 768.5 373.14 765.25 373.14C762 373.14 759.36 370.5 759.36 367.25ZM764.34 363.89L764.34 367.9C764.34 368.34 764.73 368.60999999999996 765.25 368.60999999999996C765.76 368.60999999999996 766.16 368.33 766.16 367.9L766.16 363.89C766.16 363.46 765.76 363.18 765.25 363.18C764.73 363.18 764.34 363.45 764.34 363.89ZM765.25 369.52C765.75 369.52 766.15 369.91999999999996 766.15 370.41999999999996C766.15 370.91999999999996 765.75 371.33 765.25 371.33C764.75 371.33 764.35 370.91999999999996 764.35 370.41999999999996C764.35 369.91999999999996 764.75 369.52 765.25 369.52Z " fill="#ff2a19" fill-opacity="1" transform="matrix(1,0,0,1,-758,-360)"></path></svg>