<svg id="SvgjsSvg1000" xmlns="http://www.w3.org/2000/svg" version="1.1" xmlns:xlink="http://www.w3.org/1999/xlink" xmlns:svgjs="http://svgjs.com/svgjs" width="99" height="99" viewBox="0 0 99 99"><title>Oval</title><desc>Created with Avocode.</desc><defs id="SvgjsDefs1001"></defs><path id="SvgjsPath1007" d="M831.5 254C858.84 254 881 231.84 881 204.5C881 177.16 858.84 155 831.5 155C804.16 155 782 177.16 782 204.5C782 231.84 804.16 254 831.5 254Z " fill="#f5f6f7" fill-opacity="1" transform="matrix(1,0,0,1,-782,-155)"></path><path id="SvgjsPath1008" d="M825.58 195.58C826.97 193.57000000000002 827.7900000000001 191.13000000000002 827.7900000000001 188.5C827.7900000000001 181.6 822.19 176 815.2900000000001 176C813.4000000000001 176 811.6100000000001 176.43 810.0000000000001 177.19 " fill="#ffffff" fill-opacity="1" transform="matrix(1,0,0,1,-782,-155)"></path><path id="SvgjsPath1009" d="M825.58 195.58C826.97 193.57000000000002 827.7900000000001 191.13000000000002 827.7900000000001 188.5C827.7900000000001 181.6 822.19 176 815.2900000000001 176C813.4000000000001 176 811.6100000000001 176.43 810.0000000000001 177.19 " fill-opacity="0" fill="#ffffff" stroke-dasharray="0" stroke-linejoin="miter" stroke-linecap="butt" stroke-opacity="1" stroke="#0195e6" stroke-miterlimit="50" stroke-width="2" transform="matrix(1,0,0,1,-782,-155)"></path><path id="SvgjsPath1010" d="M821 202L821 227.16 " fill-opacity="0" fill="#ffffff" stroke-dasharray="0" stroke-linejoin="miter" stroke-linecap="butt" stroke-opacity="1" stroke="#0195e6" stroke-miterlimit="50" stroke-width="2" transform="matrix(1,0,0,1,-782,-155)"></path><path id="SvgjsPath1011" d="M862.29 216.8L847.8 231.29000000000002C846.77 232.32000000000002 845 232.21 843.8399999999999 231.06000000000003L827.2199999999999 214.44000000000003C826.05 213.26000000000002 825.2699999999999 211.75000000000003 825.0299999999999 210.17000000000002L823.0599999999998 197.02C822.5999999999998 193.98000000000002 824.9799999999998 191.60000000000002 828.0199999999999 192.06L841.1699999999998 194.03C842.7499999999999 194.27 844.2599999999999 195.05 845.4399999999998 196.22L862.0599999999998 212.84C863.2099999999998 214 863.3199999999998 215.77 862.2899999999998 216.8 " fill="#d0e8f9" fill-opacity="1" transform="matrix(1,0,0,1,-782,-155)"></path><path id="SvgjsPath1012" d="M862.29 216.8L847.8 231.29000000000002C846.77 232.32000000000002 845 232.21 843.8399999999999 231.06000000000003L827.2199999999999 214.44000000000003C826.05 213.26000000000002 825.2699999999999 211.75000000000003 825.0299999999999 210.17000000000002L823.0599999999998 197.02C822.5999999999998 193.98000000000002 824.9799999999998 191.60000000000002 828.0199999999999 192.06L841.1699999999998 194.03C842.7499999999999 194.27 844.2599999999999 195.05 845.4399999999998 196.22L862.0599999999998 212.84C863.2099999999998 214 863.3199999999998 215.77 862.2899999999998 216.8Z " fill-opacity="0" fill="#ffffff" stroke-dasharray="0" stroke-linejoin="miter" stroke-linecap="butt" stroke-opacity="1" stroke="#0096e6" stroke-miterlimit="50" stroke-width="2" transform="matrix(1,0,0,1,-782,-155)"></path><path id="SvgjsPath1013" d="M823.06 197.02C822.5999999999999 193.98000000000002 824.9799999999999 191.60000000000002 828.02 192.06L835.31 193.15C835.75 191.85 836 190.45000000000002 836 189C836 181.82 830.18 176 823 176C815.82 176 810 181.82 810 189C810 196.18 815.82 202 823 202C823.27 202 823.53 201.98 823.8 201.96Z " fill="#ffffff" fill-opacity="1" transform="matrix(1,0,0,1,-782,-155)"></path><path id="SvgjsPath1014" d="M823.06 197.02C822.5999999999999 193.98000000000002 824.9799999999999 191.60000000000002 828.02 192.06L835.31 193.15C835.75 191.85 836 190.45000000000002 836 189C836 181.82 830.18 176 823 176C815.82 176 810 181.82 810 189C810 196.18 815.82 202 823 202C823.27 202 823.53 201.98 823.8 201.96L823.06 197.02Z " fill-opacity="0" fill="#ffffff" stroke-dasharray="0" stroke-linejoin="miter" stroke-linecap="butt" stroke-opacity="1" stroke="#0195e6" stroke-miterlimit="50" stroke-width="2" transform="matrix(1,0,0,1,-782,-155)"></path><path id="SvgjsPath1015" d="M836 202.45C833.96 202.45 832.04 201.97 830.32 201.13C825.99 199.01999999999998 823 194.59 823 189.45C823 189.10999999999999 823.03 188.78 823.05 188.45C823.1999999999999 186.47 823.79 184.63 824.7199999999999 183 " fill-opacity="0" fill="#ffffff" stroke-dasharray="0" stroke-linejoin="miter" stroke-linecap="butt" stroke-opacity="1" stroke="#0195e6" stroke-miterlimit="50" stroke-width="2" transform="matrix(1,0,0,1,-782,-155)"></path><path id="SvgjsPath1016" d="M828.5 219.97L825 216.47L826.92 214.55C825.92 213.43 825.25 212.07000000000002 825.03 210.65L823.8 202.43C823.53 202.44 823.27 202.47 823 202.47C820.83 202.47 818.8 201.94 817 201L817 229.47L823 234.47L829 229.47L829 227.47L825 223.47Z " fill="#ffffff" fill-opacity="1" transform="matrix(1,0,0,1,-782,-155)"></path><path id="SvgjsPath1017" d="M828.5 219.97L825 216.47L826.92 214.55C825.92 213.43 825.25 212.07000000000002 825.03 210.65L823.8 202.43C823.53 202.44 823.27 202.47 823 202.47C820.83 202.47 818.8 201.94 817 201L817 229.47L823 234.47L829 229.47L829 227.47L825 223.47L828.5 219.97Z " fill-opacity="0" fill="#ffffff" stroke-dasharray="0" stroke-linejoin="miter" stroke-linecap="butt" stroke-opacity="1" stroke="#0195e6" stroke-miterlimit="50" stroke-width="2" transform="matrix(1,0,0,1,-782,-155)"></path><path id="SvgjsPath1018" d="M836 202C836 203.66 834.66 205 833 205C831.34 205 830 203.66 830 202C830 200.34 831.34 199 833 199C834.66 199 836 200.34 836 202Z " fill-opacity="0" fill="#ffffff" stroke-dasharray="0" stroke-linejoin="miter" stroke-linecap="butt" stroke-opacity="1" stroke="#0195e6" stroke-miterlimit="50" stroke-width="2" transform="matrix(1,0,0,1,-782,-155)"></path><path id="SvgjsPath1019" d="M826 185C826 186.66 824.66 188 823 188C821.34 188 820 186.66 820 185C820 183.34 821.34 182 823 182C824.66 182 826 183.34 826 185Z " fill-opacity="0" fill="#ffffff" stroke-dasharray="0" stroke-linejoin="miter" stroke-linecap="butt" stroke-opacity="1" stroke="#0195e6" stroke-miterlimit="50" stroke-width="2" transform="matrix(1,0,0,1,-782,-155)"></path><path id="SvgjsPath1020" d="M846 225.36L852.36 219 " fill-opacity="0" fill="#ffffff" stroke-dasharray="0" stroke-linejoin="miter" stroke-linecap="butt" stroke-opacity="1" stroke="#0195e6" stroke-miterlimit="50" stroke-width="2" transform="matrix(1,0,0,1,-782,-155)"></path><path id="SvgjsPath1021" d="M843 223.24L847.24 219 " fill-opacity="0" fill="#ffffff" stroke-dasharray="0" stroke-linejoin="miter" stroke-linecap="butt" stroke-opacity="1" stroke="#0195e6" stroke-miterlimit="50" stroke-width="2" transform="matrix(1,0,0,1,-782,-155)"></path><path id="SvgjsPath1022" d="M840 220.36L846.36 214 " fill-opacity="0" fill="#ffffff" stroke-dasharray="0" stroke-linejoin="miter" stroke-linecap="butt" stroke-opacity="1" stroke="#0195e6" stroke-miterlimit="50" stroke-width="2" transform="matrix(1,0,0,1,-782,-155)"></path></svg>