<svg id="SvgjsSvg1074" xmlns="http://www.w3.org/2000/svg" version="1.1" xmlns:xlink="http://www.w3.org/1999/xlink" xmlns:svgjs="http://svgjs.com/svgjs" width="44" height="27" viewBox="0 0 44 27"><title>Fill 356</title><desc>Created with Avocode.</desc><defs id="SvgjsDefs1075"></defs><path id="SvgjsPath1076" d="M848.28 470.67C848.28 475.46000000000004 844.41 479.35 839.64 479.35C834.87 479.35 831 475.46000000000004 831 470.67C831 465.88 834.87 462 839.64 462C844.41 462 848.28 465.88 848.28 470.67 " fill="#e2574c" fill-opacity="1" transform="matrix(1,0,0,1,-812,-453)"></path><path id="SvgjsPath1077" d="M832.57 476.18C832.33 475.89 832.11 475.58 831.9100000000001 475.26H834.97C835.1600000000001 474.96999999999997 835.32 474.65999999999997 835.47 474.34999999999997H831.4100000000001C831.2700000000001 474.04999999999995 831.1500000000001 473.73999999999995 831.0500000000001 473.42999999999995H835.84C836.12 472.55999999999995 836.2800000000001 471.63999999999993 836.2800000000001 470.66999999999996C836.2800000000001 470.03999999999996 836.21 469.42999999999995 836.09 468.84H830.8000000000001C830.86 468.52 830.95 468.21999999999997 831.0500000000001 467.91999999999996H835.84C835.73 467.59999999999997 835.61 467.29999999999995 835.47 466.99999999999994H831.4100000000001C831.5600000000001 466.67999999999995 831.7300000000001 466.37999999999994 831.9100000000001 466.0799999999999H834.97C834.77 465.75999999999993 834.5500000000001 465.44999999999993 834.3100000000001 465.1599999999999H832.57C832.84 464.8399999999999 833.13 464.5299999999999 833.44 464.2499999999999C831.9100000000001 462.8499999999999 829.87 461.9999999999999 827.6400000000001 461.9999999999999C822.8700000000001 461.9999999999999 819.0000000000001 465.8799999999999 819.0000000000001 470.6699999999999C819.0000000000001 475.4599999999999 822.8700000000001 479.3499999999999 827.6400000000001 479.3499999999999C829.8700000000001 479.3499999999999 831.9100000000001 478.4999999999999 833.44 477.0999999999999C833.75 476.81999999999994 834.0500000000001 476.50999999999993 834.3100000000001 476.1799999999999H832.57 " fill="#26a6d1" fill-opacity="1" transform="matrix(1,0,0,1,-812,-453)"></path><path id="SvgjsPath1078" d="M832.83 473.74C831.63 473.74 831 473.19 831 472.14C831 470.9 831.8 470 832.88 470C833.77 470 834.33 470.51 834.33 471.3C834.33 471.57 834.3000000000001 471.82 834.2 472.19H832.0600000000001C831.98 472.7 832.36 472.93 833.0000000000001 472.93C833.3800000000001 472.93 833.7200000000001 472.86 834.1000000000001 472.7L833.9400000000002 473.59C833.5700000000002 473.69 833.2100000000002 473.73999999999995 832.8300000000002 473.73999999999995ZM832.86 470.82C832.52 470.82 832.27 471.05 832.17 471.46H833.36C833.36 471.38 833.48 470.83 832.86 470.82Z " fill="#000066" fill-opacity="1" transform="matrix(1,0,0,1,-812,-453)"></path><path id="SvgjsPath1079" d="M834.41 471.22C834.41 471.67 834.67 471.99 835.25 472.22C835.69 472.40000000000003 835.76 472.46000000000004 835.76 472.62C835.76 472.84000000000003 835.5699999999999 472.95 835.13 472.94C834.8 472.94 834.51 472.9 834.16 472.8L834 473.63C834.31 473.71 834.75 473.73 835.14 473.74C836.3 473.74 836.83 473.36 836.83 472.54C836.83 472.04 836.61 471.75 836.0600000000001 471.54C835.6 471.35 835.5400000000001 471.31 835.5400000000001 471.15000000000003C835.5400000000001 470.95000000000005 835.7300000000001 470.85 836.08 470.85C836.3000000000001 470.85 836.59 470.87 836.87 470.90000000000003L837.03 470.07000000000005C836.74 470.03000000000003 836.31 470.00000000000006 836.06 470.00000000000006C834.8299999999999 470.00000000000006 834.41 470.55000000000007 834.41 471.2200000000001 " fill="#000066" fill-opacity="1" transform="matrix(1,0,0,1,-812,-453)"></path><path id="SvgjsPath1080" d="M829.1 473.68L829.12 473.3C828.85 473.6 828.48 473.74 827.99 473.74C827.4 473.74 827 473.34000000000003 827 472.76C827 471.88 827.7 471.37 828.9 471.37C829.02 471.37 829.18 471.38 829.34 471.4C829.37 471.28 829.38 471.22999999999996 829.38 471.16999999999996C829.38 470.92999999999995 829.1899999999999 470.84 828.6899999999999 470.84C828.1899999999999 470.84 827.8499999999999 470.90999999999997 827.54 471L827.6999999999999 470.19C828.2299999999999 470.05 828.5899999999999 470 828.9899999999999 470C829.9199999999998 470 830.4099999999999 470.37 830.4099999999999 471.05C830.4199999999998 471.24 830.3499999999999 471.61 830.3199999999998 471.77000000000004C830.2799999999999 472.00000000000006 830.0299999999999 473.36 829.9999999999998 473.68000000000006ZM828.97 472.06C828.36 472.06 828.0500000000001 472.24 828.0500000000001 472.61C828.0500000000001 472.83000000000004 828.2 472.97 828.4300000000001 472.97C828.8700000000001 472.97 829.19 472.6 829.21 472.08000000000004C829.1 472.06000000000006 829.0500000000001 472.06000000000006 828.97 472.06000000000006Z " fill="#000066" fill-opacity="1" transform="matrix(1,0,0,1,-812,-453)"></path><path id="SvgjsPath1081" d="M838.63 473.4C838.33 473.47999999999996 838.1 473.52 837.85 473.52C837.3000000000001 473.52 837 473.24 837 472.72999999999996C836.98 472.59 837.12 471.96 837.15 471.78C837.18 471.59999999999997 837.66 469 837.66 469H838.73L838.5600000000001 469.86H839.11L838.96 470.74H838.4100000000001C838.4100000000001 470.74 838.1100000000001 472.26 838.1100000000001 472.38C838.1100000000001 472.56 838.2200000000001 472.64 838.4800000000001 472.64C838.6000000000001 472.64 838.6900000000002 472.63 838.7700000000001 472.61L838.6300000000001 473.40000000000003 " fill="#000066" fill-opacity="1" transform="matrix(1,0,0,1,-812,-453)"></path><path id="SvgjsPath1082" d="M841.68 470.87L841.9899999999999 470.07C841.4199999999998 469.86 841.06 470.15999999999997 840.7299999999999 470.58C840.7299999999999 470.58 840.67 470.65 840.6099999999999 470.71999999999997V470.09H839.6099999999999C839.4699999999999 471.2 839.2299999999999 472.33 839.05 473.44L839 473.69H840.08C840.1800000000001 473.12 840.2700000000001 472.66 840.35 472.3C840.58 471.29 840.97 470.98 841.5500000000001 471.12C841.4100000000001 471.41 841.34 471.74 841.34 472.11C841.34 473.01 841.82 473.75 843.0300000000001 473.75C844.2500000000001 473.75 845.1300000000001 473.09 845.1300000000001 471.6C845.1300000000001 470.71000000000004 844.5400000000001 470.01000000000005 843.44 470.01000000000005C842.6500000000001 470.01000000000005 842.0400000000001 470.33000000000004 841.6800000000001 470.87000000000006ZM842.51 472.08C842.51 471.51 842.85 470.85999999999996 843.39 470.85999999999996C843.83 470.85999999999996 843.98 471.21 843.98 471.58C843.98 472.39 843.64 472.87 843.12 472.87C842.74 472.88 842.51 472.56 842.51 472.08Z " fill="#000066" fill-opacity="1" transform="matrix(1,0,0,1,-812,-453)"></path><path id="SvgjsPath1083" d="M826.68 473.4H825.6099999999999L826.2499999999999 470.02L824.7799999999999 473.4H823.7999999999998L823.6199999999999 470.03999999999996L822.9799999999999 473.4H821.9999999999999L822.8299999999999 469H824.5099999999999L824.6499999999999 471.45L825.7199999999999 469H827.5299999999999L826.6799999999998 473.4 " fill="#000066" fill-opacity="1" transform="matrix(1,0,0,1,-812,-453)"></path><path id="SvgjsPath1084" d="M832.83 472.74C831.63 472.74 831 472.19 831 471.14C831 469.9 831.8 469 832.88 469C833.77 469 834.33 469.51 834.33 470.3C834.33 470.57 834.3000000000001 470.82 834.2 471.19H832.0600000000001C831.98 471.7 832.36 471.93 833.0000000000001 471.93C833.3800000000001 471.93 833.7200000000001 471.86 834.1000000000001 471.7L833.9400000000002 472.59C833.5700000000002 472.69 833.2100000000002 472.73999999999995 832.8300000000002 472.73999999999995ZM832.86 469.82C832.52 469.82 832.27 470.05 832.17 470.46H833.36C833.36 470.38 833.48 469.83 832.86 469.82Z " fill="#ffffff" fill-opacity="1" transform="matrix(1,0,0,1,-812,-453)"></path><path id="SvgjsPath1085" d="M834.41 470.22C834.41 470.67 834.67 470.99 835.25 471.22C835.69 471.40000000000003 835.76 471.46000000000004 835.76 471.62C835.76 471.84000000000003 835.5699999999999 471.95 835.13 471.94C834.8 471.94 834.51 471.9 834.16 471.8L834 472.63C834.31 472.71 834.75 472.73 835.14 472.74C836.3 472.74 836.83 472.36 836.83 471.54C836.83 471.04 836.61 470.75 836.0600000000001 470.54C835.6 470.35 835.5400000000001 470.31 835.5400000000001 470.15000000000003C835.5400000000001 469.95000000000005 835.7300000000001 469.85 836.08 469.85C836.3000000000001 469.85 836.59 469.87 836.87 469.90000000000003L837.03 469.07000000000005C836.74 469.03000000000003 836.31 469.00000000000006 836.06 469.00000000000006C834.8299999999999 469.00000000000006 834.41 469.55000000000007 834.41 470.2200000000001 " fill="#ffffff" fill-opacity="1" transform="matrix(1,0,0,1,-812,-453)"></path><path id="SvgjsPath1086" d="M829.1 472.68L829.12 472.3C828.85 472.6 828.48 472.74 827.99 472.74C827.4 472.74 827 472.34000000000003 827 471.76C827 470.88 827.7 470.37 828.9 470.37C829.02 470.37 829.18 470.38 829.34 470.4C829.37 470.28 829.38 470.22999999999996 829.38 470.16999999999996C829.38 469.92999999999995 829.1899999999999 469.84 828.6899999999999 469.84C828.1899999999999 469.84 827.8499999999999 469.90999999999997 827.54 470L827.6999999999999 469.19C828.2399999999999 469.05 828.5899999999999 469 828.9899999999999 469C829.9199999999998 469 830.4099999999999 469.37 830.4099999999999 470.05C830.4199999999998 470.24 830.3499999999999 470.6 830.3199999999998 470.77000000000004C830.2799999999999 471.00000000000006 830.0299999999999 472.36 829.9999999999998 472.68000000000006ZM828.97 471.06C828.36 471.06 828.0500000000001 471.24 828.0500000000001 471.61C828.0500000000001 471.83000000000004 828.2 471.97 828.4300000000001 471.97C828.8700000000001 471.97 829.19 471.6 829.21 471.08000000000004C829.1 471.06000000000006 829.0500000000001 471.06000000000006 828.97 471.06000000000006Z " fill="#ffffff" fill-opacity="1" transform="matrix(1,0,0,1,-812,-453)"></path><path id="SvgjsPath1087" d="M838.63 473.4C838.33 473.47999999999996 838.1 473.52 837.85 473.52C837.3000000000001 473.52 837 473.24 837 472.72999999999996C836.98 472.59 837.12 471.96 837.15 471.78C837.18 471.59999999999997 837.66 469 837.66 469H838.73L838.5600000000001 469.86H839.11L838.96 470.74H838.4100000000001C838.4100000000001 470.74 838.1100000000001 472.26 838.1100000000001 472.38C838.1100000000001 472.56 838.2200000000001 472.64 838.4800000000001 472.64C838.6000000000001 472.64 838.6900000000002 472.63 838.7700000000001 472.61L838.6300000000001 473.40000000000003 " fill="#ffffff" fill-opacity="1" transform="matrix(1,0,0,1,-812,-453)"></path><path id="SvgjsPath1088" d="M843.78 471.87C843.4 471.87 843.17 471.55 843.17 471.07C843.17 470.5 843.51 469.86 844.05 469.86C844.49 469.86 844.64 470.21000000000004 844.64 470.58000000000004C844.64 471.39000000000004 844.31 471.87000000000006 843.78 471.87000000000006ZM844.1 469C842.82 469 842 469.85 842 471.11C842 472 842.49 472.74 843.69 472.74C844.9100000000001 472.74 845.7900000000001 472.09000000000003 845.7900000000001 470.6C845.7900000000001 469.70000000000005 845.2 469 844.1 469Z " fill="#ffffff" fill-opacity="1" transform="matrix(1,0,0,1,-812,-453)"></path><path id="SvgjsPath1089" d="M839.61 470.04C839.47 471.15000000000003 839.23 472.28000000000003 839.0500000000001 473.40000000000003L839.0000000000001 473.64000000000004H840.0800000000002C840.4700000000001 471.48 840.6000000000001 470.87000000000006 841.4200000000002 471.09000000000003L841.8100000000002 470.07000000000005C841.2400000000001 469.86000000000007 840.8700000000001 470.16 840.5400000000002 470.58000000000004C840.5700000000002 470.39000000000004 840.6300000000002 470.21000000000004 840.6100000000002 470.04H839.6100000000002 " fill="#ffffff" fill-opacity="1" transform="matrix(1,0,0,1,-812,-453)"></path><path id="SvgjsPath1090" d="M826.68 473.4H825.6099999999999L826.2499999999999 470.02L824.7799999999999 473.4H823.7999999999998L823.6199999999999 470.03999999999996L822.9799999999999 473.4H821.9999999999999L822.8299999999999 469H824.5099999999999L824.5999999999999 471.72L825.7799999999999 469H827.5299999999999L826.6799999999998 473.4 " fill="#ffffff" fill-opacity="1" transform="matrix(1,0,0,1,-812,-453)"></path><path id="SvgjsPath1091" d="M812 457C812 454.79086 813.79086 453 816 453H851.33C853.5391400000001 453 855.33 454.79086 855.33 457V475C855.33 477.20914 853.5391400000001 479 851.33 479H816C813.79086 479 812 477.20914 812 475Z " fill="#0c1463" fill-opacity="0.74" transform="matrix(1,0,0,1,-812,-453)"></path><path id="SvgjsPath1092" d="M848.28 465.67C848.28 470.46000000000004 844.41 474.35 839.64 474.35C834.87 474.35 831 470.46000000000004 831 465.67C831 460.88 834.87 457 839.64 457C844.41 457 848.28 460.88 848.28 465.67 " fill="#e2574c" fill-opacity="1" transform="matrix(1,0,0,1,-812,-453)"></path><path id="SvgjsPath1093" d="M832.57 471.18C832.33 470.89 832.11 470.58 831.9100000000001 470.26H834.97C835.1600000000001 469.96999999999997 835.32 469.65999999999997 835.47 469.34999999999997H831.4100000000001C831.2700000000001 469.04999999999995 831.1500000000001 468.73999999999995 831.0500000000001 468.42999999999995H835.84C836.12 467.55999999999995 836.2800000000001 466.63999999999993 836.2800000000001 465.66999999999996C836.2800000000001 465.03999999999996 836.21 464.42999999999995 836.09 463.84H830.8000000000001C830.86 463.52 830.95 463.21999999999997 831.0500000000001 462.91999999999996H835.84C835.73 462.59999999999997 835.61 462.29999999999995 835.47 461.99999999999994H831.4100000000001C831.5600000000001 461.67999999999995 831.7300000000001 461.37999999999994 831.9100000000001 461.0799999999999H834.97C834.77 460.75999999999993 834.5500000000001 460.44999999999993 834.3100000000001 460.1599999999999H832.57C832.84 459.8399999999999 833.13 459.5299999999999 833.44 459.2499999999999C831.9100000000001 457.8499999999999 829.87 456.9999999999999 827.6400000000001 456.9999999999999C822.8700000000001 456.9999999999999 819.0000000000001 460.8799999999999 819.0000000000001 465.6699999999999C819.0000000000001 470.4599999999999 822.8700000000001 474.3499999999999 827.6400000000001 474.3499999999999C829.8700000000001 474.3499999999999 831.9100000000001 473.4999999999999 833.44 472.0999999999999C833.75 471.81999999999994 834.0500000000001 471.50999999999993 834.3100000000001 471.1799999999999H832.57 " fill="#26a6d1" fill-opacity="1" transform="matrix(1,0,0,1,-812,-453)"></path><path id="SvgjsPath1094" d="M832.83 468.74C831.63 468.74 831 468.19 831 467.14C831 465.9 831.8 465 832.88 465C833.77 465 834.33 465.51 834.33 466.3C834.33 466.57 834.3000000000001 466.82 834.2 467.19H832.0600000000001C831.98 467.7 832.36 467.93 833.0000000000001 467.93C833.3800000000001 467.93 833.7200000000001 467.86 834.1000000000001 467.7L833.9400000000002 468.59C833.5700000000002 468.69 833.2100000000002 468.73999999999995 832.8300000000002 468.73999999999995ZM832.86 465.82C832.52 465.82 832.27 466.05 832.17 466.46H833.36C833.36 466.38 833.48 465.83 832.86 465.82Z " fill="#000066" fill-opacity="1" transform="matrix(1,0,0,1,-812,-453)"></path><path id="SvgjsPath1095" d="M834.41 466.22C834.41 466.67 834.67 466.99 835.25 467.22C835.69 467.40000000000003 835.76 467.46000000000004 835.76 467.62C835.76 467.84000000000003 835.5699999999999 467.95 835.13 467.94C834.8 467.94 834.51 467.9 834.16 467.8L834 468.63C834.31 468.71 834.75 468.73 835.14 468.74C836.3 468.74 836.83 468.36 836.83 467.54C836.83 467.04 836.61 466.75 836.0600000000001 466.54C835.6 466.35 835.5400000000001 466.31 835.5400000000001 466.15000000000003C835.5400000000001 465.95000000000005 835.7300000000001 465.85 836.08 465.85C836.3000000000001 465.85 836.59 465.87 836.87 465.90000000000003L837.03 465.07000000000005C836.74 465.03000000000003 836.31 465.00000000000006 836.06 465.00000000000006C834.8299999999999 465.00000000000006 834.41 465.55000000000007 834.41 466.2200000000001 " fill="#000066" fill-opacity="1" transform="matrix(1,0,0,1,-812,-453)"></path><path id="SvgjsPath1096" d="M829.1 468.68L829.12 468.3C828.85 468.6 828.48 468.74 827.99 468.74C827.4 468.74 827 468.34000000000003 827 467.76C827 466.88 827.7 466.37 828.9 466.37C829.02 466.37 829.18 466.38 829.34 466.4C829.37 466.28 829.38 466.22999999999996 829.38 466.16999999999996C829.38 465.92999999999995 829.1899999999999 465.84 828.6899999999999 465.84C828.1899999999999 465.84 827.8499999999999 465.90999999999997 827.54 466L827.6999999999999 465.19C828.2299999999999 465.05 828.5899999999999 465 828.9899999999999 465C829.9199999999998 465 830.4099999999999 465.37 830.4099999999999 466.05C830.4199999999998 466.24 830.3499999999999 466.61 830.3199999999998 466.77000000000004C830.2799999999999 467.00000000000006 830.0299999999999 468.36 829.9999999999998 468.68000000000006ZM828.97 467.06C828.36 467.06 828.0500000000001 467.24 828.0500000000001 467.61C828.0500000000001 467.83000000000004 828.2 467.97 828.4300000000001 467.97C828.8700000000001 467.97 829.19 467.6 829.21 467.08000000000004C829.1 467.06000000000006 829.0500000000001 467.06000000000006 828.97 467.06000000000006Z " fill="#000066" fill-opacity="1" transform="matrix(1,0,0,1,-812,-453)"></path><path id="SvgjsPath1097" d="M838.63 468.4C838.33 468.47999999999996 838.1 468.52 837.85 468.52C837.3000000000001 468.52 837 468.24 837 467.72999999999996C836.98 467.59 837.12 466.96 837.15 466.78C837.18 466.59999999999997 837.66 464 837.66 464H838.73L838.5600000000001 464.86H839.11L838.96 465.74H838.4100000000001C838.4100000000001 465.74 838.1100000000001 467.26 838.1100000000001 467.38C838.1100000000001 467.56 838.2200000000001 467.64 838.4800000000001 467.64C838.6000000000001 467.64 838.6900000000002 467.63 838.7700000000001 467.61L838.6300000000001 468.40000000000003 " fill="#000066" fill-opacity="1" transform="matrix(1,0,0,1,-812,-453)"></path><path id="SvgjsPath1098" d="M841.68 465.87L841.9899999999999 465.07C841.4199999999998 464.86 841.06 465.15999999999997 840.7299999999999 465.58C840.7299999999999 465.58 840.67 465.65 840.6099999999999 465.71999999999997V465.09H839.6099999999999C839.4699999999999 466.2 839.2299999999999 467.33 839.05 468.44L839 468.69H840.08C840.1800000000001 468.12 840.2700000000001 467.66 840.35 467.3C840.58 466.29 840.97 465.98 841.5500000000001 466.12C841.4100000000001 466.41 841.34 466.74 841.34 467.11C841.34 468.01 841.82 468.75 843.0300000000001 468.75C844.2500000000001 468.75 845.1300000000001 468.09 845.1300000000001 466.6C845.1300000000001 465.71000000000004 844.5400000000001 465.01000000000005 843.44 465.01000000000005C842.6500000000001 465.01000000000005 842.0400000000001 465.33000000000004 841.6800000000001 465.87000000000006ZM842.51 467.08C842.51 466.51 842.85 465.85999999999996 843.39 465.85999999999996C843.83 465.85999999999996 843.98 466.21 843.98 466.58C843.98 467.39 843.64 467.87 843.12 467.87C842.74 467.88 842.51 467.56 842.51 467.08Z " fill="#000066" fill-opacity="1" transform="matrix(1,0,0,1,-812,-453)"></path><path id="SvgjsPath1099" d="M826.68 468.4H825.6099999999999L826.2499999999999 465.02L824.7799999999999 468.4H823.7999999999998L823.6199999999999 465.03999999999996L822.9799999999999 468.4H821.9999999999999L822.8299999999999 464H824.5099999999999L824.6499999999999 466.45L825.7199999999999 464H827.5299999999999L826.6799999999998 468.4 " fill="#000066" fill-opacity="1" transform="matrix(1,0,0,1,-812,-453)"></path><path id="SvgjsPath1100" d="M832.83 467.74C831.63 467.74 831 467.19 831 466.14C831 464.9 831.8 464 832.88 464C833.77 464 834.33 464.51 834.33 465.3C834.33 465.57 834.3000000000001 465.82 834.2 466.19H832.0600000000001C831.98 466.7 832.36 466.93 833.0000000000001 466.93C833.3800000000001 466.93 833.7200000000001 466.86 834.1000000000001 466.7L833.9400000000002 467.59C833.5700000000002 467.69 833.2100000000002 467.73999999999995 832.8300000000002 467.73999999999995ZM832.86 464.82C832.52 464.82 832.27 465.05 832.17 465.46H833.36C833.36 465.38 833.48 464.83 832.86 464.82Z " fill="#ffffff" fill-opacity="1" transform="matrix(1,0,0,1,-812,-453)"></path><path id="SvgjsPath1101" d="M834.41 465.22C834.41 465.67 834.67 465.99 835.25 466.22C835.69 466.40000000000003 835.76 466.46000000000004 835.76 466.62C835.76 466.84000000000003 835.5699999999999 466.95 835.13 466.94C834.8 466.94 834.51 466.9 834.16 466.8L834 467.63C834.31 467.71 834.75 467.73 835.14 467.74C836.3 467.74 836.83 467.36 836.83 466.54C836.83 466.04 836.61 465.75 836.0600000000001 465.54C835.6 465.35 835.5400000000001 465.31 835.5400000000001 465.15000000000003C835.5400000000001 464.95000000000005 835.7300000000001 464.85 836.08 464.85C836.3000000000001 464.85 836.59 464.87 836.87 464.90000000000003L837.03 464.07000000000005C836.74 464.03000000000003 836.31 464.00000000000006 836.06 464.00000000000006C834.8299999999999 464.00000000000006 834.41 464.55000000000007 834.41 465.2200000000001 " fill="#ffffff" fill-opacity="1" transform="matrix(1,0,0,1,-812,-453)"></path><path id="SvgjsPath1102" d="M829.1 467.68L829.12 467.3C828.85 467.6 828.48 467.74 827.99 467.74C827.4 467.74 827 467.34000000000003 827 466.76C827 465.88 827.7 465.37 828.9 465.37C829.02 465.37 829.18 465.38 829.34 465.4C829.37 465.28 829.38 465.22999999999996 829.38 465.16999999999996C829.38 464.92999999999995 829.1899999999999 464.84 828.6899999999999 464.84C828.1899999999999 464.84 827.8499999999999 464.90999999999997 827.54 465L827.6999999999999 464.19C828.2399999999999 464.05 828.5899999999999 464 828.9899999999999 464C829.9199999999998 464 830.4099999999999 464.37 830.4099999999999 465.05C830.4199999999998 465.24 830.3499999999999 465.6 830.3199999999998 465.77000000000004C830.2799999999999 466.00000000000006 830.0299999999999 467.36 829.9999999999998 467.68000000000006ZM828.97 466.06C828.36 466.06 828.0500000000001 466.24 828.0500000000001 466.61C828.0500000000001 466.83000000000004 828.2 466.97 828.4300000000001 466.97C828.8700000000001 466.97 829.19 466.6 829.21 466.08000000000004C829.1 466.06000000000006 829.0500000000001 466.06000000000006 828.97 466.06000000000006Z " fill="#ffffff" fill-opacity="1" transform="matrix(1,0,0,1,-812,-453)"></path><path id="SvgjsPath1103" d="M838.63 468.4C838.33 468.47999999999996 838.1 468.52 837.85 468.52C837.3000000000001 468.52 837 468.24 837 467.72999999999996C836.98 467.59 837.12 466.96 837.15 466.78C837.18 466.59999999999997 837.66 464 837.66 464H838.73L838.5600000000001 464.86H839.11L838.96 465.74H838.4100000000001C838.4100000000001 465.74 838.1100000000001 467.26 838.1100000000001 467.38C838.1100000000001 467.56 838.2200000000001 467.64 838.4800000000001 467.64C838.6000000000001 467.64 838.6900000000002 467.63 838.7700000000001 467.61L838.6300000000001 468.40000000000003 " fill="#ffffff" fill-opacity="1" transform="matrix(1,0,0,1,-812,-453)"></path><path id="SvgjsPath1104" d="M843.78 466.87C843.4 466.87 843.17 466.55 843.17 466.07C843.17 465.5 843.51 464.86 844.05 464.86C844.49 464.86 844.64 465.21000000000004 844.64 465.58000000000004C844.64 466.39000000000004 844.31 466.87000000000006 843.78 466.87000000000006ZM844.1 464C842.82 464 842 464.85 842 466.11C842 467 842.49 467.74 843.69 467.74C844.9100000000001 467.74 845.7900000000001 467.09000000000003 845.7900000000001 465.6C845.7900000000001 464.70000000000005 845.2 464 844.1 464Z " fill="#ffffff" fill-opacity="1" transform="matrix(1,0,0,1,-812,-453)"></path><path id="SvgjsPath1105" d="M839.61 465.04C839.47 466.15000000000003 839.23 467.28000000000003 839.0500000000001 468.40000000000003L839.0000000000001 468.64000000000004H840.0800000000002C840.4700000000001 466.48 840.6000000000001 465.87000000000006 841.4200000000002 466.09000000000003L841.8100000000002 465.07000000000005C841.2400000000001 464.86000000000007 840.8700000000001 465.16 840.5400000000002 465.58000000000004C840.5700000000002 465.39000000000004 840.6300000000002 465.21000000000004 840.6100000000002 465.04H839.6100000000002 " fill="#ffffff" fill-opacity="1" transform="matrix(1,0,0,1,-812,-453)"></path><path id="SvgjsPath1106" d="M826.68 468.4H825.6099999999999L826.2499999999999 465.02L824.7799999999999 468.4H823.7999999999998L823.6199999999999 465.03999999999996L822.9799999999999 468.4H821.9999999999999L822.8299999999999 464H824.5099999999999L824.5999999999999 466.72L825.7799999999999 464H827.5299999999999L826.6799999999998 468.4 " fill="#ffffff" fill-opacity="1" transform="matrix(1,0,0,1,-812,-453)"></path></svg>