<svg id="SvgjsSvg1051" xmlns="http://www.w3.org/2000/svg" version="1.1" xmlns:xlink="http://www.w3.org/1999/xlink" xmlns:svgjs="http://svgjs.com/svgjs" width="60" height="48" viewBox="0 0 60 48"><title>1474431394_007_080_map_gps_navigator_road_trip_device_tracker_direction_navigate_navigation</title><desc>Created with Avocode.</desc><defs id="SvgjsDefs1052"></defs><path id="SvgjsPath1053" d="M957 94L903 94C901.9 94 901 94.9 901 96L901 138C901 139.1 901.9 140 903 140L957 140C958.1 140 959 139.1 959 138L959 96C959 94.9 958.1 94 957 94Z " fill="#ffffff" fill-opacity="1" transform="matrix(1,0,0,1,-900,-93)"></path><path id="SvgjsPath1054" d="M903 141C901.35 141 900 139.65 900 138L900 96C900 94.35 901.35 93 903 93L957 93C958.65 93 960 94.35 960 96L960 138C960 139.65 958.65 141 957 141ZM902 96L902 138C902 138.55 902.45 139 903 139L957 139C957.55 139 958 138.55 958 138L958 96C958 95.45 957.55 95 957 95L903 95C902.45 95 902 95.45 902 96Z " fill="#0a94e3" fill-opacity="1" transform="matrix(1,0,0,1,-900,-93)"></path><path id="SvgjsPath1055" d="M905 134L905 98L955 98L955 134Z " fill="#c2e4f8" fill-opacity="1" transform="matrix(1,0,0,1,-900,-93)"></path><path id="SvgjsPath1056" d="M945.77 134L936.15 98L924.62 98L915 134Z " fill="#c2e4f8" fill-opacity="1" transform="matrix(1,0,0,1,-900,-93)"></path><path id="SvgjsPath1057" d="M934 138L926 138C925.45 138 925 137.55 925 137C925 136.45 925.45 136 926 136L934 136C934.55 136 935 136.45 935 137C935 137.55 934.55 138 934 138Z " fill="#0a94e3" fill-opacity="1" transform="matrix(1,0,0,1,-900,-93)"></path><path id="SvgjsPath1058" d="M930 135C929.45 135 929 134.55 929 134L929 127C929 126.45 929.45 126 930 126C930.55 126 931 126.45 931 127L931 134C931 134.55 930.55 135 930 135Z " fill="#0a94e3" fill-opacity="1" transform="matrix(1,0,0,1,-900,-93)"></path><path id="SvgjsPath1059" d="M930 109.57C929.45 109.57 929 109.11999999999999 929 108.57L929 106C929 105.45 929.45 105 930 105C930.55 105 931 105.45 931 106L931 108.57C931 109.11999999999999 930.55 109.57 930 109.57Z " fill="#0a94e3" fill-opacity="1" transform="matrix(1,0,0,1,-900,-93)"></path><path id="SvgjsPath1060" d="M930 103C929.45 103 929 102.55 929 102L929 101C929 100.45 929.45 100 930 100C930.55 100 931 100.45 931 101L931 102C931 102.55 930.55 103 930 103Z " fill="#0a94e3" fill-opacity="1" transform="matrix(1,0,0,1,-900,-93)"></path><path id="SvgjsPath1061" d="M905 134L920.38 98L924.23 98L914.62 134Z " fill="#ffffff" fill-opacity="1" transform="matrix(1,0,0,1,-900,-93)"></path><path id="SvgjsPath1062" d="M905 135C904.66 135 904.35 134.83 904.17 134.55C903.9799999999999 134.27 903.9499999999999 133.92000000000002 904.0799999999999 133.61L919.4599999999999 97.61000000000001C919.6199999999999 97.24000000000001 919.9799999999999 97.00000000000001 920.3799999999999 97.00000000000001L924.2299999999999 97.00000000000001C924.5399999999998 97.00000000000001 924.8299999999999 97.14000000000001 925.0199999999999 97.39000000000001C925.2099999999999 97.64000000000001 925.2799999999999 97.96000000000001 925.1999999999998 98.26000000000002L915.5799999999998 134.26000000000002C915.4599999999998 134.70000000000002 915.0699999999998 135.00000000000003 914.6199999999998 135.00000000000003ZM913.85 133L922.9300000000001 99L921.0500000000001 99L906.5100000000001 133Z " fill="#0a94e3" fill-opacity="1" transform="matrix(1,0,0,1,-900,-93)"></path><path id="SvgjsPath1063" d="M955.23 134L939.85 98L936 98L945.62 134Z " fill="#ffffff" fill-opacity="1" transform="matrix(1,0,0,1,-900,-93)"></path><path id="SvgjsPath1064" d="M945.61 135C945.16 135 944.77 134.7 944.65 134.26L935.03 98.25999999999999C934.9499999999999 97.96 935.02 97.63999999999999 935.2099999999999 97.38999999999999C935.4 97.13999999999999 935.6899999999999 96.99999999999999 935.9999999999999 96.99999999999999L939.8499999999999 96.99999999999999C940.2499999999999 96.99999999999999 940.6099999999999 97.23999999999998 940.7699999999999 97.60999999999999L956.1499999999999 133.60999999999999C956.2799999999999 133.92 956.2499999999999 134.26999999999998 956.0699999999998 134.54999999999998C955.8799999999998 134.82999999999998 955.5699999999998 134.99999999999997 955.2299999999998 134.99999999999997ZM953.72 133L939.19 99L937.3000000000001 99L946.3800000000001 133Z " fill="#0a94e3" fill-opacity="1" transform="matrix(1,0,0,1,-900,-93)"></path><path id="SvgjsPath1065" d="M930 112L923 127L930 121.67L937 127Z " fill="#ffffff" fill-opacity="1" transform="matrix(1,0,0,1,-900,-93)"></path><path id="SvgjsPath1066" d="M936.39 127.8L930 122.92999999999999L923.61 127.8C923.24 128.07 922.73 128.07 922.37 127.78C922.01 127.49 921.9 126.99 922.09 126.58L929.09 111.58C929.26 111.22 929.61 111 930 111C930.39 111 930.74 111.22 930.91 111.58L937.91 126.58C938.1 126.99 937.99 127.49 937.63 127.78C937.4399999999999 127.93 937.22 128 937 128C936.79 128 936.57 127.93 936.39 127.8ZM930.61 120.87L934.38 123.75L930 114.36L925.62 123.75L929.39 120.87C929.5699999999999 120.74000000000001 929.79 120.67 930 120.67C930.21 120.67 930.43 120.74 930.61 120.87Z " fill="#0a94e3" fill-opacity="1" transform="matrix(1,0,0,1,-900,-93)"></path><path id="SvgjsPath1067" d="M905 135C904.45 135 904 134.55 904 134L904 98C904 97.45 904.45 97 905 97L955 97C955.55 97 956 97.45 956 98L956 134C956 134.55 955.55 135 955 135ZM954 133L954 99L906 99L906 133Z " fill="#0a94e3" fill-opacity="1" transform="matrix(1,0,0,1,-900,-93)"></path></svg>