<svg id="SvgjsSvg1008" xmlns="http://www.w3.org/2000/svg" version="1.1" xmlns:xlink="http://www.w3.org/1999/xlink" xmlns:svgjs="http://svgjs.com/svgjs" width="17" height="5" viewBox="0 0 17 5"><title>Shape</title><desc>Created with Avocode.</desc><defs id="SvgjsDefs1009"></defs><path id="SvgjsPath1010" d="M902 416C903.1 416 904 415.1 904 414C904 412.9 903.1 412 902 412C900.9 412 900 412.9 900 414C900 415.1 900.9 416 902 416ZM896 412C894.9 412 894 412.9 894 414C894 415.1 894.9 416 896 416C897.1 416 898 415.1 898 414C898 412.9 897.1 412 896 412ZM892 414C892 415.1 891.1 416 890 416C888.9 416 888 415.1 888 414C888 412.9 888.9 412 890 412C891.1 412 892 412.9 892 414Z " fill="#8c8e8c" fill-opacity="1" transform="matrix(1,0,0,1,-887,-411)"></path></svg>