<svg id="SvgjsSvg1033" xmlns="http://www.w3.org/2000/svg" version="1.1" xmlns:xlink="http://www.w3.org/1999/xlink" xmlns:svgjs="http://svgjs.com/svgjs" width="43" height="26" viewBox="0 0 43 26"><title>Fill 336</title><desc>Created with Avocode.</desc><defs id="SvgjsDefs1034"></defs><path id="SvgjsPath1035" d="M771.67 472C771.15 472 770.89 472.18 770.89 472.53C770.89 472.75 771.02 472.88 771.22 472.88C771.59 472.88 771.86 472.53 771.88 472.01C771.78 472 771.74 472 771.67 472ZM771.78 473.57L771.8 473.2C771.5699999999999 473.49 771.26 473.63 770.8399999999999 473.63C770.3399999999999 473.63 769.9999999999999 473.24 769.9999999999999 472.67C769.9999999999999 471.82 770.5899999999999 471.33000000000004 771.6099999999999 471.33000000000004C771.7199999999999 471.33000000000004 771.8499999999999 471.34000000000003 771.9899999999999 471.36C772.0099999999999 471.24 772.0199999999999 471.19 772.0199999999999 471.13C772.0199999999999 470.9 771.8599999999999 470.81 771.4299999999998 470.81C770.9799999999998 470.81 770.6099999999998 470.92 770.4599999999998 470.97C770.4699999999998 470.91 770.5899999999998 470.18 770.5899999999998 470.18C771.0499999999998 470.05 771.3499999999998 470 771.6899999999998 470C772.4799999999998 470 772.8899999999999 470.35 772.8899999999999 471.02C772.8899999999999 471.2 772.8599999999999 471.41999999999996 772.8199999999998 471.71C772.7399999999998 472.21999999999997 772.5699999999998 473.29999999999995 772.5399999999998 473.57C772.4199999999998 473.57 771.7799999999999 473.57 771.7799999999999 473.57Z " fill="#000066" fill-opacity="1" transform="matrix(1,0,0,1,-758,-453)"></path><path id="SvgjsPath1036" d="M769.68 473.29H768.76L769.29 469.99L768.11 473.29H767.49L767.41 470.01000000000005L766.86 473.29H766L766.72 469H768.0400000000001L768.1200000000001 471.4L768.9200000000001 469H770.3900000000001L769.6800000000001 473.29 " fill="#000066" fill-opacity="1" transform="matrix(1,0,0,1,-758,-453)"></path><path id="SvgjsPath1037" d="M785.67 472C785.15 472 784.89 472.18 784.89 472.53C784.89 472.75 785.02 472.88 785.22 472.88C785.59 472.88 785.86 472.53 785.88 472.01C785.78 472 785.74 472 785.67 472ZM785.78 473.57L785.8 473.2C785.5699999999999 473.49 785.26 473.63 784.8399999999999 473.63C784.3399999999999 473.63 783.9999999999999 473.24 783.9999999999999 472.67C783.9999999999999 471.82 784.5899999999999 471.33000000000004 785.6099999999999 471.33000000000004C785.7199999999999 471.33000000000004 785.8499999999999 471.34000000000003 785.9899999999999 471.36C786.0099999999999 471.24 786.0199999999999 471.19 786.0199999999999 471.13C786.0199999999999 470.9 785.8599999999999 470.81 785.4299999999998 470.81C784.9799999999998 470.81 784.6099999999998 470.92 784.4599999999998 470.97C784.4699999999998 470.91 784.5899999999998 470.18 784.5899999999998 470.18C785.0499999999998 470.05 785.3499999999998 470 785.6899999999998 470C786.4799999999998 470 786.8899999999999 470.35 786.8899999999999 471.02C786.8899999999999 471.2 786.8599999999999 471.41999999999996 786.8199999999998 471.71C786.7399999999998 472.21999999999997 786.5699999999998 473.29999999999995 786.5399999999998 473.57C786.4199999999998 473.57 785.7799999999999 473.57 785.7799999999999 473.57Z " fill="#000066" fill-opacity="1" transform="matrix(1,0,0,1,-758,-453)"></path><path id="SvgjsPath1038" d="M776.39 473.96C776.13 474.03999999999996 775.9399999999999 474.08 775.73 474.08C775.26 474.08 775 473.81 775 473.31C774.99 473.16 775.07 472.75 775.13 472.38C775.18 472.05 775.52 470 775.52 470H776.4399999999999L776.3299999999999 470.53H776.8799999999999L776.7599999999999 471.36999999999995H776.1999999999999C776.0999999999999 472.03 775.9499999999999 472.85999999999996 775.9499999999999 472.96999999999997C775.9499999999999 473.15 776.04 473.21999999999997 776.2599999999999 473.21999999999997C776.3599999999999 473.21999999999997 776.4499999999999 473.21 776.5099999999999 473.19L776.3899999999999 473.96 " fill="#000066" fill-opacity="1" transform="matrix(1,0,0,1,-758,-453)"></path><path id="SvgjsPath1039" d="M778.55 473.63C777.53 473.63 777 473.09 777 472.07C777 470.88 777.68 470 778.6 470C779.35 470 779.83 470.49 779.83 471.26C779.83 471.52 779.8000000000001 471.77 779.72 472.12H777.9C777.84 472.63 778.16 472.84000000000003 778.6899999999999 472.84000000000003C779.02 472.84000000000003 779.31 472.77000000000004 779.64 472.62L779.49 473.49C779.1800000000001 473.58 778.87 473.63 778.55 473.63ZM778.55 470.79C778.26 470.79 778.05 471.02000000000004 777.9699999999999 471.42H778.9799999999999C778.9799999999999 471.34000000000003 779.0699999999999 470.79 778.55 470.79Z " fill="#000066" fill-opacity="1" transform="matrix(1,0,0,1,-758,-453)"></path><path id="SvgjsPath1040" d="M773.35 471.18C773.35 471.62 773.5600000000001 471.93 774.0500000000001 472.15000000000003C774.4200000000001 472.33000000000004 774.48 472.38000000000005 774.48 472.54C774.48 472.76000000000005 774.3100000000001 472.86 773.95 472.86C773.6700000000001 472.86 773.4200000000001 472.81 773.13 472.72C773.13 472.72 773.01 473.49 773 473.52000000000004C773.21 473.57000000000005 773.39 473.61 773.96 473.63000000000005C774.9200000000001 473.63000000000005 775.37 473.26000000000005 775.37 472.46000000000004C775.37 471.98 775.18 471.70000000000005 774.72 471.49C774.34 471.31 774.3000000000001 471.27 774.3000000000001 471.11C774.3000000000001 470.92 774.45 470.82 774.7400000000001 470.82C774.9200000000001 470.82 775.1700000000001 470.84 775.4000000000001 470.88L775.5300000000001 470.07C775.3000000000001 470.03 774.94 470 774.7300000000001 470C773.7000000000002 470 773.3400000000001 470.54 773.3500000000001 471.18 " fill="#000066" fill-opacity="1" transform="matrix(1,0,0,1,-758,-453)"></path><path id="SvgjsPath1041" d="M784.13 470.06C784.39 470.06 784.62 470.13 784.95 470.29L785.1 469.36C784.97 469.31 784.49 469 784.09 469C783.48 469 782.96 469.31 782.59 469.81C782.0600000000001 469.63 781.84 469.99 781.57 470.34L781.33 470.4C781.35 470.28 781.37 470.16999999999996 781.36 470.04999999999995H780.52C780.41 471.12999999999994 780.1999999999999 472.21999999999997 780.04 473.29999999999995L780 473.53999999999996H780.92C781.0699999999999 472.53999999999996 781.16 471.9 781.2099999999999 471.46999999999997L781.55 471.28C781.5999999999999 471.09 781.77 471.02 782.0899999999999 471.03C782.05 471.26 782.0199999999999 471.5 782.0199999999999 471.73999999999995C782.0199999999999 472.88999999999993 782.6399999999999 473.59999999999997 783.6299999999999 473.59999999999997C783.8799999999999 473.59999999999997 784.0999999999999 473.55999999999995 784.4399999999998 473.46999999999997L784.5999999999998 472.48999999999995C784.2999999999998 472.63999999999993 784.0499999999998 472.71 783.8199999999998 472.71C783.2899999999998 472.71 782.9699999999998 472.32 782.9699999999998 471.66999999999996C782.9699999999998 470.71999999999997 783.4499999999998 470.05999999999995 784.1299999999998 470.05999999999995 " fill="#000066" fill-opacity="1" transform="matrix(1,0,0,1,-758,-453)"></path><path id="SvgjsPath1042" d="M791.14 470.24C790.89 469.91 790.62 469.67 790.27 469.67C789.8 469.67 789.38 470.02000000000004 789.11 470.54C788.73131 470.46232000000003 788.34319 470.32807 788.321 470.32035C788.35044 470.03601000000003 788.36989 469.85933 788.36 469.8H787.52C787.41 470.88 787.1999999999999 471.97 787.04 473.05L787 473.29H787.92C788.04 472.48 788.14 471.82 788.2099999999999 471.29C788.5199999999999 471 788.68 470.75 788.9999999999999 470.77000000000004C788.8499999999999 471.11 788.7699999999999 471.50000000000006 788.7699999999999 471.90000000000003C788.7699999999999 472.77000000000004 789.2099999999999 473.35 789.8799999999999 473.35C790.2199999999999 473.35 790.4799999999999 473.23 790.7299999999999 472.96000000000004L790.68 473.29H791.55L792.25 469H791.35ZM789.73 471.8C789.73 471.11 790.02 470.62 790.44 470.62C790.7600000000001 470.62 790.9300000000001 470.86 790.9300000000001 471.31C790.9300000000001 472 790.6300000000001 472.48 790.2 472.48C789.8900000000001 472.48 789.73 472.25 789.73 471.8Z " fill="#000066" fill-opacity="1" transform="matrix(1,0,0,1,-758,-453)"></path><path id="SvgjsPath1043" d="M769.68 473.29H768.76L769.29 469.99L768.12 473.29H767.49L767.41 470.01000000000005L766.86 473.29H766L766.72 469H768.0400000000001L768.07 471.66L768.97 469H770.39L769.68 473.29 " fill="#ffffff" fill-opacity="1" transform="matrix(1,0,0,1,-758,-453)"></path><path id="SvgjsPath1044" d="M771.67 472C771.15 472 770.89 472.18 770.89 472.53C770.89 472.75 771.02 472.88 771.22 472.88C771.59 472.88 771.86 472.53 771.88 472.01C771.78 472 771.74 472 771.67 472ZM771.78 473.57L771.8 473.21C771.5699999999999 473.48999999999995 771.26 473.63 770.8399999999999 473.63C770.3399999999999 473.63 769.9999999999999 473.24 769.9999999999999 472.67C769.9999999999999 471.82 770.5899999999999 471.33000000000004 771.6099999999999 471.33000000000004C771.7199999999999 471.33000000000004 771.8499999999999 471.34000000000003 771.9899999999999 471.36C772.0099999999999 471.24 772.0199999999999 471.19 772.0199999999999 471.13C772.0199999999999 470.9 771.8599999999999 470.81 771.4299999999998 470.81C770.9799999999998 470.81 770.6099999999998 470.92 770.4599999999998 470.97C770.4699999999998 470.91 770.5899999999998 470.18 770.5899999999998 470.18C771.0499999999998 470.05 771.3499999999998 470 771.6899999999998 470C772.4799999999998 470 772.8899999999999 470.35 772.8899999999999 471.02C772.8899999999999 471.2 772.8599999999999 471.41999999999996 772.8199999999998 471.71C772.7399999999998 472.21999999999997 772.5699999999998 473.29999999999995 772.5399999999998 473.57C772.4199999999998 473.57 771.7799999999999 473.57 771.7799999999999 473.57Z " fill="#ffffff" fill-opacity="1" transform="matrix(1,0,0,1,-758,-453)"></path><path id="SvgjsPath1045" d="M785.08 469.22L784.9300000000001 470.15000000000003C784.6 469.99 784.36 469.92 784.11 469.92C783.42 469.92 782.94 470.58000000000004 782.94 471.53000000000003C782.94 472.18 783.2600000000001 472.57000000000005 783.8000000000001 472.57000000000005C784.0200000000001 472.57000000000005 784.2700000000001 472.50000000000006 784.58 472.35L784.4200000000001 473.33000000000004C784.08 473.42 783.8600000000001 473.46000000000004 783.6 473.46000000000004C782.62 473.46000000000004 782 472.75000000000006 782 471.61C782 470.07 782.85 469 784.07 469C784.47 469 784.94 469.17 785.08 469.22 " fill="#ffffff" fill-opacity="1" transform="matrix(1,0,0,1,-758,-453)"></path><path id="SvgjsPath1046" d="M786.67 472C786.15 472 785.89 472.18 785.89 472.53C785.89 472.75 786.02 472.88 786.22 472.88C786.59 472.88 786.86 472.53 786.88 472.01C786.78 472 786.74 472 786.67 472ZM786.78 473.57L786.8 473.21C786.5699999999999 473.48999999999995 786.26 473.63 785.8399999999999 473.63C785.3399999999999 473.63 784.9999999999999 473.24 784.9999999999999 472.67C784.9999999999999 471.82 785.5899999999999 471.33000000000004 786.6099999999999 471.33000000000004C786.7199999999999 471.33000000000004 786.8499999999999 471.34000000000003 786.9899999999999 471.36C787.0099999999999 471.24 787.0199999999999 471.19 787.0199999999999 471.13C787.0199999999999 470.9 786.8599999999999 470.81 786.4299999999998 470.81C785.9799999999998 470.81 785.6099999999998 470.92 785.4599999999998 470.97C785.4699999999998 470.91 785.5899999999998 470.18 785.5899999999998 470.18C786.0499999999998 470.05 786.3499999999998 470 786.6899999999998 470C787.4799999999998 470 787.8899999999999 470.35 787.8899999999999 471.02C787.8899999999999 471.2 787.8599999999999 471.41999999999996 787.8199999999998 471.71C787.7399999999998 472.21999999999997 787.5699999999998 473.29999999999995 787.5399999999998 473.57C787.4199999999998 473.57 786.7799999999999 473.57 786.7799999999999 473.57Z " fill="#ffffff" fill-opacity="1" transform="matrix(1,0,0,1,-758,-453)"></path><path id="SvgjsPath1047" d="M777.39 472.96C777.13 473.03999999999996 776.9399999999999 473.08 776.73 473.08C776.26 473.08 776 472.81 776 472.31C775.99 472.16 776.07 471.75 776.13 471.38C776.18 471.05 776.52 469 776.52 469H777.4399999999999L777.3299999999999 469.53H777.8L777.67 470.36999999999995H777.1999999999999C777.0999999999999 471.03 776.9499999999999 471.85999999999996 776.9499999999999 471.96999999999997C776.9499999999999 472.15 777.04 472.21999999999997 777.2599999999999 472.21999999999997C777.3599999999999 472.21999999999997 777.4499999999999 472.21 777.5099999999999 472.19L777.3899999999999 472.96 " fill="#ffffff" fill-opacity="1" transform="matrix(1,0,0,1,-758,-453)"></path><path id="SvgjsPath1048" d="M778.55 473.63C777.53 473.63 777 473.09 777 472.07C777 470.88 777.68 470 778.6 470C779.35 470 779.83 470.49 779.83 471.26C779.83 471.52 779.8000000000001 471.77 779.72 472.12H777.9C777.84 472.63 778.16 472.84000000000003 778.6899999999999 472.84000000000003C779.02 472.84000000000003 779.31 472.77000000000004 779.64 472.62L779.49 473.49C779.1800000000001 473.58 778.87 473.63 778.55 473.63ZM778.55 470.79C778.26 470.79 778.05 471.02000000000004 777.9699999999999 471.42H778.9799999999999C778.9799999999999 471.34000000000003 779.0699999999999 470.79 778.55 470.79Z " fill="#ffffff" fill-opacity="1" transform="matrix(1,0,0,1,-758,-453)"></path><path id="SvgjsPath1049" d="M773.35 471.18C773.35 471.62 773.5600000000001 471.93 774.0500000000001 472.16C774.4200000000001 472.33000000000004 774.48 472.38000000000005 774.48 472.54C774.48 472.76000000000005 774.3100000000001 472.86 773.95 472.86C773.6700000000001 472.86 773.4200000000001 472.81 773.13 472.72C773.13 472.72 773.01 473.49 773 473.52000000000004C773.21 473.57000000000005 773.39 473.61 773.96 473.63000000000005C774.9200000000001 473.63000000000005 775.37 473.26000000000005 775.37 472.46000000000004C775.37 471.98 775.18 471.70000000000005 774.72 471.49C774.34 471.31 774.3000000000001 471.27 774.3000000000001 471.11C774.3000000000001 470.92 774.45 470.82 774.7400000000001 470.82C774.9200000000001 470.82 775.1700000000001 470.84 775.4000000000001 470.88L775.5300000000001 470.07C775.3000000000001 470.03 774.94 470 774.7300000000001 470C773.7000000000002 470 773.3400000000001 470.54 773.3500000000001 471.18 " fill="#ffffff" fill-opacity="1" transform="matrix(1,0,0,1,-758,-453)"></path><path id="SvgjsPath1050" d="M790.91 473.29L790.9599999999999 472.96000000000004C790.6999999999999 473.23 790.4499999999999 473.35 790.1099999999999 473.35C789.4399999999999 473.35 788.9999999999999 472.77000000000004 788.9999999999999 471.90000000000003C788.9999999999999 470.74 789.6799999999998 469.76000000000005 790.4899999999999 469.76000000000005C790.8499999999999 469.76000000000005 791.1199999999999 469.91 791.3699999999999 470.24000000000007L791.5699999999999 469.00000000000006H792.4799999999999L791.7799999999999 473.2900000000001ZM791.15 471.31C791.15 470.86 790.98 470.62 790.67 470.62C790.25 470.62 789.9599999999999 471.11 789.9599999999999 471.8C789.9599999999999 472.25 790.1099999999999 472.48 790.43 472.48C790.8499999999999 472.48 791.15 472 791.15 471.31Z " fill="#ffffff" fill-opacity="1" transform="matrix(1,0,0,1,-758,-453)"></path><path id="SvgjsPath1051" d="M788.52 470.04C788.41 471.12 788.1999999999999 472.21000000000004 788.04 473.29L788 473.53000000000003H788.92C789.25 471.39000000000004 789.3299999999999 470.98 789.8399999999999 471.03000000000003C789.92 470.59000000000003 790.0799999999999 470.21000000000004 790.1899999999999 470.02000000000004C789.8 469.94000000000005 789.5899999999999 470.15000000000003 789.31 470.57000000000005C789.3299999999999 470.39000000000004 789.3699999999999 470.21000000000004 789.3599999999999 470.0400000000001H788.5199999999999 " fill="#ffffff" fill-opacity="1" transform="matrix(1,0,0,1,-758,-453)"></path><path id="SvgjsPath1052" d="M780.52 470.04C780.41 471.12 780.1999999999999 472.21000000000004 780.04 473.29L780 473.53000000000003H780.92C781.25 471.39000000000004 781.3299999999999 470.98 781.8399999999999 471.03000000000003C781.92 470.59000000000003 782.0799999999999 470.21000000000004 782.1899999999999 470.02000000000004C781.81 469.94000000000005 781.5899999999999 470.15000000000003 781.31 470.57000000000005C781.3299999999999 470.39000000000004 781.3699999999999 470.21000000000004 781.3599999999999 470.0400000000001H780.5199999999999 " fill="#ffffff" fill-opacity="1" transform="matrix(1,0,0,1,-758,-453)"></path><path id="SvgjsPath1053" d="M758 457C758 454.79086 759.79086 453 762 453H797C799.20914 453 801 454.79086 801 457V475C801 477.20914 799.20914 479 797 479H762C759.79086 479 758 477.20914 758 475Z " fill="#0c1463" fill-opacity="0.74" transform="matrix(1,0,0,1,-758,-453)"></path><path id="SvgjsPath1054" d="M781.91 466.46C781.91 471.13 778.13 474.90999999999997 773.4599999999999 474.90999999999997C768.79 474.90999999999997 764.9999999999999 471.13 764.9999999999999 466.46C764.9999999999999 461.78999999999996 768.7899999999998 458 773.4599999999999 458C778.1299999999999 458 781.91 461.79 781.91 466.46 " fill="#e2574c" fill-opacity="1" transform="matrix(1,0,0,1,-758,-453)"></path><path id="SvgjsPath1055" d="M785.27 458C783.0799999999999 458 781.09 458.83 779.59 460.19C779.2800000000001 460.46999999999997 779 460.77 778.74 461.08H780.44C780.6800000000001 461.37 780.8900000000001 461.66999999999996 781.09 461.97999999999996H778.09C777.9100000000001 462.27 777.75 462.56999999999994 777.6 462.87999999999994H781.58C781.71 463.16999999999996 781.83 463.4599999999999 781.9300000000001 463.7699999999999H777.2500000000001C777.1500000000001 464.05999999999995 777.0700000000002 464.3599999999999 777.0000000000001 464.6699999999999H782.1800000000001C782.3000000000001 465.2399999999999 782.3700000000001 465.8399999999999 782.3700000000001 466.4599999999999C782.3700000000001 467.3999999999999 782.2200000000001 468.2999999999999 781.9300000000001 469.13999999999993H777.2500000000001C777.3500000000001 469.44999999999993 777.4700000000001 469.74999999999994 777.6000000000001 470.0399999999999H781.5800000000002C781.4300000000002 470.3499999999999 781.2700000000002 470.6499999999999 781.0900000000001 470.9299999999999H778.0900000000001C778.2900000000002 471.2499999999999 778.5000000000001 471.5499999999999 778.7400000000001 471.82999999999987H780.4400000000002C780.1800000000002 472.14999999999986 779.9000000000002 472.4499999999999 779.5900000000001 472.71999999999986C781.0900000000001 474.07999999999987 783.0800000000002 474.90999999999985 785.2700000000001 474.90999999999985C789.94 474.90999999999985 793.7200000000001 471.1299999999999 793.7200000000001 466.45999999999987C793.7200000000001 461.78999999999985 789.9400000000002 457.9999999999999 785.2700000000001 457.9999999999999 " fill="#ffb300" fill-opacity="1" transform="matrix(1,0,0,1,-758,-453)"></path><path id="SvgjsPath1056" d="M771.67 467C771.15 467 770.89 467.18 770.89 467.53C770.89 467.75 771.02 467.88 771.22 467.88C771.59 467.88 771.86 467.53 771.88 467.01C771.78 467 771.74 467 771.67 467ZM771.78 468.57L771.8 468.2C771.5699999999999 468.49 771.26 468.63 770.8399999999999 468.63C770.3399999999999 468.63 769.9999999999999 468.24 769.9999999999999 467.67C769.9999999999999 466.82 770.5899999999999 466.33000000000004 771.6099999999999 466.33000000000004C771.7199999999999 466.33000000000004 771.8499999999999 466.34000000000003 771.9899999999999 466.36C772.0099999999999 466.24 772.0199999999999 466.19 772.0199999999999 466.13C772.0199999999999 465.9 771.8599999999999 465.81 771.4299999999998 465.81C770.9799999999998 465.81 770.6099999999998 465.92 770.4599999999998 465.97C770.4699999999998 465.91 770.5899999999998 465.18 770.5899999999998 465.18C771.0499999999998 465.05 771.3499999999998 465 771.6899999999998 465C772.4799999999998 465 772.8899999999999 465.35 772.8899999999999 466.02C772.8899999999999 466.2 772.8599999999999 466.41999999999996 772.8199999999998 466.71C772.7399999999998 467.21999999999997 772.5699999999998 468.29999999999995 772.5399999999998 468.57C772.4199999999998 468.57 771.7799999999999 468.57 771.7799999999999 468.57Z " fill="#000066" fill-opacity="1" transform="matrix(1,0,0,1,-758,-453)"></path><path id="SvgjsPath1057" d="M769.68 468.29H768.76L769.29 464.99L768.11 468.29H767.49L767.41 465.01000000000005L766.86 468.29H766L766.72 464H768.0400000000001L768.1200000000001 466.4L768.9200000000001 464H770.3900000000001L769.6800000000001 468.29 " fill="#000066" fill-opacity="1" transform="matrix(1,0,0,1,-758,-453)"></path><path id="SvgjsPath1058" d="M785.67 467C785.15 467 784.89 467.18 784.89 467.53C784.89 467.75 785.02 467.88 785.22 467.88C785.59 467.88 785.86 467.53 785.88 467.01C785.78 467 785.74 467 785.67 467ZM785.78 468.57L785.8 468.2C785.5699999999999 468.49 785.26 468.63 784.8399999999999 468.63C784.3399999999999 468.63 783.9999999999999 468.24 783.9999999999999 467.67C783.9999999999999 466.82 784.5899999999999 466.33000000000004 785.6099999999999 466.33000000000004C785.7199999999999 466.33000000000004 785.8499999999999 466.34000000000003 785.9899999999999 466.36C786.0099999999999 466.24 786.0199999999999 466.19 786.0199999999999 466.13C786.0199999999999 465.9 785.8599999999999 465.81 785.4299999999998 465.81C784.9799999999998 465.81 784.6099999999998 465.92 784.4599999999998 465.97C784.4699999999998 465.91 784.5899999999998 465.18 784.5899999999998 465.18C785.0499999999998 465.05 785.3499999999998 465 785.6899999999998 465C786.4799999999998 465 786.8899999999999 465.35 786.8899999999999 466.02C786.8899999999999 466.2 786.8599999999999 466.41999999999996 786.8199999999998 466.71C786.7399999999998 467.21999999999997 786.5699999999998 468.29999999999995 786.5399999999998 468.57C786.4199999999998 468.57 785.7799999999999 468.57 785.7799999999999 468.57Z " fill="#000066" fill-opacity="1" transform="matrix(1,0,0,1,-758,-453)"></path><path id="SvgjsPath1059" d="M776.39 468.96C776.13 469.03999999999996 775.9399999999999 469.08 775.73 469.08C775.26 469.08 775 468.81 775 468.31C774.99 468.16 775.07 467.75 775.13 467.38C775.18 467.05 775.52 465 775.52 465H776.4399999999999L776.3299999999999 465.53H776.8799999999999L776.7599999999999 466.36999999999995H776.1999999999999C776.0999999999999 467.03 775.9499999999999 467.85999999999996 775.9499999999999 467.96999999999997C775.9499999999999 468.15 776.04 468.21999999999997 776.2599999999999 468.21999999999997C776.3599999999999 468.21999999999997 776.4499999999999 468.21 776.5099999999999 468.19L776.3899999999999 468.96 " fill="#000066" fill-opacity="1" transform="matrix(1,0,0,1,-758,-453)"></path><path id="SvgjsPath1060" d="M778.55 468.63C777.53 468.63 777 468.09 777 467.07C777 465.88 777.68 465 778.6 465C779.35 465 779.83 465.49 779.83 466.26C779.83 466.52 779.8000000000001 466.77 779.72 467.12H777.9C777.84 467.63 778.16 467.84000000000003 778.6899999999999 467.84000000000003C779.02 467.84000000000003 779.31 467.77000000000004 779.64 467.62L779.49 468.49C779.1800000000001 468.58 778.87 468.63 778.55 468.63ZM778.55 465.79C778.26 465.79 778.05 466.02000000000004 777.9699999999999 466.42H778.9799999999999C778.9799999999999 466.34000000000003 779.0699999999999 465.79 778.55 465.79Z " fill="#000066" fill-opacity="1" transform="matrix(1,0,0,1,-758,-453)"></path><path id="SvgjsPath1061" d="M773.35 466.18C773.35 466.62 773.5600000000001 466.93 774.0500000000001 467.15000000000003C774.4200000000001 467.33000000000004 774.48 467.38000000000005 774.48 467.54C774.48 467.76000000000005 774.3100000000001 467.86 773.95 467.86C773.6700000000001 467.86 773.4200000000001 467.81 773.13 467.72C773.13 467.72 773.01 468.49 773 468.52000000000004C773.21 468.57000000000005 773.39 468.61 773.96 468.63000000000005C774.9200000000001 468.63000000000005 775.37 468.26000000000005 775.37 467.46000000000004C775.37 466.98 775.18 466.70000000000005 774.72 466.49C774.34 466.31 774.3000000000001 466.27 774.3000000000001 466.11C774.3000000000001 465.92 774.45 465.82 774.7400000000001 465.82C774.9200000000001 465.82 775.1700000000001 465.84 775.4000000000001 465.88L775.5300000000001 465.07C775.3000000000001 465.03 774.94 465 774.7300000000001 465C773.7000000000002 465 773.3400000000001 465.54 773.3500000000001 466.18 " fill="#000066" fill-opacity="1" transform="matrix(1,0,0,1,-758,-453)"></path><path id="SvgjsPath1062" d="M784.13 465.06C784.39 465.06 784.62 465.13 784.95 465.29L785.1 464.36C784.97 464.31 784.49 464 784.09 464C783.48 464 782.96 464.31 782.59 464.81C782.0600000000001 464.63 781.84 464.99 781.57 465.34L781.33 465.4C781.35 465.28 781.37 465.16999999999996 781.36 465.04999999999995H780.52C780.41 466.12999999999994 780.1999999999999 467.21999999999997 780.04 468.29999999999995L780 468.53999999999996H780.92C781.0699999999999 467.53999999999996 781.16 466.9 781.2099999999999 466.46999999999997L781.55 466.28C781.5999999999999 466.09 781.77 466.02 782.0899999999999 466.03C782.05 466.26 782.0199999999999 466.5 782.0199999999999 466.73999999999995C782.0199999999999 467.88999999999993 782.6399999999999 468.59999999999997 783.6299999999999 468.59999999999997C783.8799999999999 468.59999999999997 784.0999999999999 468.55999999999995 784.4399999999998 468.46999999999997L784.5999999999998 467.48999999999995C784.2999999999998 467.63999999999993 784.0499999999998 467.71 783.8199999999998 467.71C783.2899999999998 467.71 782.9699999999998 467.32 782.9699999999998 466.66999999999996C782.9699999999998 465.71999999999997 783.4499999999998 465.05999999999995 784.1299999999998 465.05999999999995 " fill="#000066" fill-opacity="1" transform="matrix(1,0,0,1,-758,-453)"></path><path id="SvgjsPath1063" d="M791.14 465.24C790.89 464.91 790.62 464.67 790.27 464.67C789.8 464.67 789.38 465.02000000000004 789.11 465.54C788.73131 465.46232000000003 788.34319 465.32807 788.321 465.32035C788.35044 465.03601000000003 788.36989 464.85933 788.36 464.8H787.52C787.41 465.88 787.1999999999999 466.97 787.04 468.05L787 468.29H787.92C788.04 467.48 788.14 466.82 788.2099999999999 466.29C788.5199999999999 466 788.68 465.75 788.9999999999999 465.77000000000004C788.8499999999999 466.11 788.7699999999999 466.50000000000006 788.7699999999999 466.90000000000003C788.7699999999999 467.77000000000004 789.2099999999999 468.35 789.8799999999999 468.35C790.2199999999999 468.35 790.4799999999999 468.23 790.7299999999999 467.96000000000004L790.68 468.29H791.55L792.25 464H791.35ZM789.73 466.8C789.73 466.11 790.02 465.62 790.44 465.62C790.7600000000001 465.62 790.9300000000001 465.86 790.9300000000001 466.31C790.9300000000001 467 790.6300000000001 467.48 790.2 467.48C789.8900000000001 467.48 789.73 467.25 789.73 466.8Z " fill="#000066" fill-opacity="1" transform="matrix(1,0,0,1,-758,-453)"></path><path id="SvgjsPath1064" d="M769.68 468.29H768.76L769.29 464.99L768.12 468.29H767.49L767.41 465.01000000000005L766.86 468.29H766L766.72 464H768.0400000000001L768.07 466.66L768.97 464H770.39L769.68 468.29 " fill="#ffffff" fill-opacity="1" transform="matrix(1,0,0,1,-758,-453)"></path><path id="SvgjsPath1065" d="M771.67 467C771.15 467 770.89 467.18 770.89 467.53C770.89 467.75 771.02 467.88 771.22 467.88C771.59 467.88 771.86 467.53 771.88 467.01C771.78 467 771.74 467 771.67 467ZM771.78 468.57L771.8 468.21C771.5699999999999 468.48999999999995 771.26 468.63 770.8399999999999 468.63C770.3399999999999 468.63 769.9999999999999 468.24 769.9999999999999 467.67C769.9999999999999 466.82 770.5899999999999 466.33000000000004 771.6099999999999 466.33000000000004C771.7199999999999 466.33000000000004 771.8499999999999 466.34000000000003 771.9899999999999 466.36C772.0099999999999 466.24 772.0199999999999 466.19 772.0199999999999 466.13C772.0199999999999 465.9 771.8599999999999 465.81 771.4299999999998 465.81C770.9799999999998 465.81 770.6099999999998 465.92 770.4599999999998 465.97C770.4699999999998 465.91 770.5899999999998 465.18 770.5899999999998 465.18C771.0499999999998 465.05 771.3499999999998 465 771.6899999999998 465C772.4799999999998 465 772.8899999999999 465.35 772.8899999999999 466.02C772.8899999999999 466.2 772.8599999999999 466.41999999999996 772.8199999999998 466.71C772.7399999999998 467.21999999999997 772.5699999999998 468.29999999999995 772.5399999999998 468.57C772.4199999999998 468.57 771.7799999999999 468.57 771.7799999999999 468.57Z " fill="#ffffff" fill-opacity="1" transform="matrix(1,0,0,1,-758,-453)"></path><path id="SvgjsPath1066" d="M785.08 464.22L784.9300000000001 465.15000000000003C784.6 464.99 784.36 464.92 784.11 464.92C783.42 464.92 782.94 465.58000000000004 782.94 466.53000000000003C782.94 467.18 783.2600000000001 467.57000000000005 783.8000000000001 467.57000000000005C784.0200000000001 467.57000000000005 784.2700000000001 467.50000000000006 784.58 467.35L784.4200000000001 468.33000000000004C784.08 468.42 783.8600000000001 468.46000000000004 783.6 468.46000000000004C782.62 468.46000000000004 782 467.75000000000006 782 466.61C782 465.07 782.85 464 784.07 464C784.47 464 784.94 464.17 785.08 464.22 " fill="#ffffff" fill-opacity="1" transform="matrix(1,0,0,1,-758,-453)"></path><path id="SvgjsPath1067" d="M786.67 467C786.15 467 785.89 467.18 785.89 467.53C785.89 467.75 786.02 467.88 786.22 467.88C786.59 467.88 786.86 467.53 786.88 467.01C786.78 467 786.74 467 786.67 467ZM786.78 468.57L786.8 468.21C786.5699999999999 468.48999999999995 786.26 468.63 785.8399999999999 468.63C785.3399999999999 468.63 784.9999999999999 468.24 784.9999999999999 467.67C784.9999999999999 466.82 785.5899999999999 466.33000000000004 786.6099999999999 466.33000000000004C786.7199999999999 466.33000000000004 786.8499999999999 466.34000000000003 786.9899999999999 466.36C787.0099999999999 466.24 787.0199999999999 466.19 787.0199999999999 466.13C787.0199999999999 465.9 786.8599999999999 465.81 786.4299999999998 465.81C785.9799999999998 465.81 785.6099999999998 465.92 785.4599999999998 465.97C785.4699999999998 465.91 785.5899999999998 465.18 785.5899999999998 465.18C786.0499999999998 465.05 786.3499999999998 465 786.6899999999998 465C787.4799999999998 465 787.8899999999999 465.35 787.8899999999999 466.02C787.8899999999999 466.2 787.8599999999999 466.41999999999996 787.8199999999998 466.71C787.7399999999998 467.21999999999997 787.5699999999998 468.29999999999995 787.5399999999998 468.57C787.4199999999998 468.57 786.7799999999999 468.57 786.7799999999999 468.57Z " fill="#ffffff" fill-opacity="1" transform="matrix(1,0,0,1,-758,-453)"></path><path id="SvgjsPath1068" d="M777.39 467.96C777.13 468.03999999999996 776.9399999999999 468.08 776.73 468.08C776.26 468.08 776 467.81 776 467.31C775.99 467.16 776.07 466.75 776.13 466.38C776.18 466.05 776.52 464 776.52 464H777.4399999999999L777.3299999999999 464.53H777.8L777.67 465.36999999999995H777.1999999999999C777.0999999999999 466.03 776.9499999999999 466.85999999999996 776.9499999999999 466.96999999999997C776.9499999999999 467.15 777.04 467.21999999999997 777.2599999999999 467.21999999999997C777.3599999999999 467.21999999999997 777.4499999999999 467.21 777.5099999999999 467.19L777.3899999999999 467.96 " fill="#ffffff" fill-opacity="1" transform="matrix(1,0,0,1,-758,-453)"></path><path id="SvgjsPath1069" d="M778.55 468.63C777.53 468.63 777 468.09 777 467.07C777 465.88 777.68 465 778.6 465C779.35 465 779.83 465.49 779.83 466.26C779.83 466.52 779.8000000000001 466.77 779.72 467.12H777.9C777.84 467.63 778.16 467.84000000000003 778.6899999999999 467.84000000000003C779.02 467.84000000000003 779.31 467.77000000000004 779.64 467.62L779.49 468.49C779.1800000000001 468.58 778.87 468.63 778.55 468.63ZM778.55 465.79C778.26 465.79 778.05 466.02000000000004 777.9699999999999 466.42H778.9799999999999C778.9799999999999 466.34000000000003 779.0699999999999 465.79 778.55 465.79Z " fill="#ffffff" fill-opacity="1" transform="matrix(1,0,0,1,-758,-453)"></path><path id="SvgjsPath1070" d="M773.35 466.18C773.35 466.62 773.5600000000001 466.93 774.0500000000001 467.16C774.4200000000001 467.33000000000004 774.48 467.38000000000005 774.48 467.54C774.48 467.76000000000005 774.3100000000001 467.86 773.95 467.86C773.6700000000001 467.86 773.4200000000001 467.81 773.13 467.72C773.13 467.72 773.01 468.49 773 468.52000000000004C773.21 468.57000000000005 773.39 468.61 773.96 468.63000000000005C774.9200000000001 468.63000000000005 775.37 468.26000000000005 775.37 467.46000000000004C775.37 466.98 775.18 466.70000000000005 774.72 466.49C774.34 466.31 774.3000000000001 466.27 774.3000000000001 466.11C774.3000000000001 465.92 774.45 465.82 774.7400000000001 465.82C774.9200000000001 465.82 775.1700000000001 465.84 775.4000000000001 465.88L775.5300000000001 465.07C775.3000000000001 465.03 774.94 465 774.7300000000001 465C773.7000000000002 465 773.3400000000001 465.54 773.3500000000001 466.18 " fill="#ffffff" fill-opacity="1" transform="matrix(1,0,0,1,-758,-453)"></path><path id="SvgjsPath1071" d="M790.91 468.29L790.9599999999999 467.96000000000004C790.6999999999999 468.23 790.4499999999999 468.35 790.1099999999999 468.35C789.4399999999999 468.35 788.9999999999999 467.77000000000004 788.9999999999999 466.90000000000003C788.9999999999999 465.74 789.6799999999998 464.76000000000005 790.4899999999999 464.76000000000005C790.8499999999999 464.76000000000005 791.1199999999999 464.91 791.3699999999999 465.24000000000007L791.5699999999999 464.00000000000006H792.4799999999999L791.7799999999999 468.2900000000001ZM791.15 466.31C791.15 465.86 790.98 465.62 790.67 465.62C790.25 465.62 789.9599999999999 466.11 789.9599999999999 466.8C789.9599999999999 467.25 790.1099999999999 467.48 790.43 467.48C790.8499999999999 467.48 791.15 467 791.15 466.31Z " fill="#ffffff" fill-opacity="1" transform="matrix(1,0,0,1,-758,-453)"></path><path id="SvgjsPath1072" d="M788.52 465.04C788.41 466.12 788.1999999999999 467.21000000000004 788.04 468.29L788 468.53000000000003H788.92C789.25 466.39000000000004 789.3299999999999 465.98 789.8399999999999 466.03000000000003C789.92 465.59000000000003 790.0799999999999 465.21000000000004 790.1899999999999 465.02000000000004C789.8 464.94000000000005 789.5899999999999 465.15000000000003 789.31 465.57000000000005C789.3299999999999 465.39000000000004 789.3699999999999 465.21000000000004 789.3599999999999 465.0400000000001H788.5199999999999 " fill="#ffffff" fill-opacity="1" transform="matrix(1,0,0,1,-758,-453)"></path><path id="SvgjsPath1073" d="M780.52 465.04C780.41 466.12 780.1999999999999 467.21000000000004 780.04 468.29L780 468.53000000000003H780.92C781.25 466.39000000000004 781.3299999999999 465.98 781.8399999999999 466.03000000000003C781.92 465.59000000000003 782.0799999999999 465.21000000000004 782.1899999999999 465.02000000000004C781.81 464.94000000000005 781.5899999999999 465.15000000000003 781.31 465.57000000000005C781.3299999999999 465.39000000000004 781.3699999999999 465.21000000000004 781.3599999999999 465.0400000000001H780.5199999999999 " fill="#ffffff" fill-opacity="1" transform="matrix(1,0,0,1,-758,-453)"></path></svg>