<svg id="SvgjsSvg1000" xmlns="http://www.w3.org/2000/svg" version="1.1" xmlns:xlink="http://www.w3.org/1999/xlink" xmlns:svgjs="http://svgjs.com/svgjs" width="92" height="92" viewBox="0 0 92 92"><title>Icon</title><desc>Created with Avocode.</desc><defs id="SvgjsDefs1001"><linearGradient id="SvgjsLinearGradient1008" gradientUnits="userSpaceOnUse" x1="555" y1="226" x2="555" y2="318"><stop id="SvgjsStop1009" stop-opacity="1" stop-color="#ffb810" offset="0"></stop><stop id="SvgjsStop1010" stop-opacity="1" stop-color="#ff8302" offset="1"></stop></linearGradient></defs><path id="SvgjsPath1007" d="M509 272C509 246.5949 529.5949 226 555 226C580.4051 226 601 246.5949 601 272C601 297.4051 580.4051 318 555 318C529.5949 318 509 297.4051 509 272Z " fill="url(#SvgjsLinearGradient1008)" transform="matrix(1,0,0,1,-509,-226)"></path><path id="SvgjsPath1011" d="M558.96 249.03L558.96 247.83C558.96 245.71 557.24 244 555.11 244C552.97 244 551.25 245.71 551.25 247.83L551.25 249.03C551.25 249.17 551.13 249.29 550.99 249.29L546.83 249.29C545.82 249.29 545 250.1 545 251.10999999999999L545 255.13C545 256.13 545.82 256.94 546.83 256.94L563.38 256.94C564.39 256.94 565.21 256.13 565.21 255.13L565.21 251.10999999999999C565.21 250.1 564.39 249.29 563.38 249.29L559.23 249.29C559.08 249.29 558.96 249.17 558.96 249.03ZM555.11 246.37C555.92 246.37 556.58 247.02 556.58 247.83C556.58 248.63000000000002 555.9200000000001 249.29000000000002 555.11 249.29000000000002C554.29 249.29000000000002 553.63 248.63000000000002 553.63 247.83C553.63 247.02 554.29 246.37 555.11 246.37Z " fill="#ffffff" fill-opacity="1" transform="matrix(1,0,0,1,-509,-226)"></path><path id="SvgjsPath1012" d="M566.66 252C566.52 252 566.4 252.12 566.4 252.26L566.4 254.66C566.4 254.79999999999998 566.52 254.92 566.66 254.92L567.03 254.92C568.51 254.92 569.6999999999999 256.13 569.6999999999999 257.63L569.6999999999999 291.44C569.6999999999999 292.94 568.5099999999999 294.15 567.03 294.15L542.62 294.15C541.14 294.15 539.94 292.94 539.94 291.44L539.94 257.63C539.94 256.13 541.1400000000001 254.92 542.62 254.92L542.99 254.92C543.13 254.92 543.25 254.79999999999998 543.25 254.66L543.25 252.26C543.25 252.12 543.13 252 542.99 252L542.62 252C539.52 252 537 254.53 537 257.63L537 291.44C537 294.54 539.52 297.07 542.62 297.07L567.03 297.07C570.13 297.07 572.65 294.54 572.65 291.44L572.65 257.63C572.65 254.53 570.13 252 567.03 252Z " fill="#ffffff" fill-opacity="1" transform="matrix(1,0,0,1,-509,-226)"></path><path id="SvgjsPath1013" d="M566.78 262L543.1 262C543.0400000000001 262 543 262.05 543 262.12L543 263.69C543 263.76 543.04 263.82 543.1 263.82L566.78 263.82C566.8299999999999 263.82 566.88 263.76 566.88 263.69L566.88 262.12C566.88 262.05 566.83 262 566.78 262Z " fill="#ffffff" fill-opacity="1" transform="matrix(1,0,0,1,-509,-226)"></path><path id="SvgjsPath1014" d="M566.78 267L543.1 267C543.0400000000001 267 543 267.05 543 267.12L543 268.69C543 268.76 543.04 268.82 543.1 268.82L566.78 268.82C566.8299999999999 268.82 566.88 268.76 566.88 268.69L566.88 267.12C566.88 267.05 566.83 267 566.78 267Z " fill="#ffffff" fill-opacity="1" transform="matrix(1,0,0,1,-509,-226)"></path><path id="SvgjsPath1015" d="M566.78 276L543.1 276C543.0400000000001 276 543 276.05 543 276.12L543 277.69C543 277.76 543.04 277.82 543.1 277.82L566.78 277.82C566.8299999999999 277.82 566.88 277.76 566.88 277.69L566.88 276.12C566.88 276.05 566.83 276 566.78 276Z " fill="#ffffff" fill-opacity="1" transform="matrix(1,0,0,1,-509,-226)"></path><path id="SvgjsPath1016" d="M566.78 271L543.1 271C543.0400000000001 271 543 271.05 543 271.12L543 272.69C543 272.76 543.04 272.82 543.1 272.82L566.78 272.82C566.8299999999999 272.82 566.88 272.76 566.88 272.69L566.88 271.12C566.88 271.05 566.83 271 566.78 271Z " fill="#ffffff" fill-opacity="1" transform="matrix(1,0,0,1,-509,-226)"></path><path id="SvgjsPath1017" d="M566.78 280L543.1 280C543.0400000000001 280 543 280.05 543 280.12L543 281.69C543 281.76 543.04 281.82 543.1 281.82L566.78 281.82C566.8299999999999 281.82 566.88 281.76 566.88 281.69L566.88 280.12C566.88 280.05 566.83 280 566.78 280Z " fill="#ffffff" fill-opacity="1" transform="matrix(1,0,0,1,-509,-226)"></path><path id="SvgjsPath1018" d="M566.78 285L543.1 285C543.0400000000001 285 543 285.05 543 285.12L543 286.69C543 286.76 543.04 286.82 543.1 286.82L566.78 286.82C566.8299999999999 286.82 566.88 286.76 566.88 286.69L566.88 285.12C566.88 285.05 566.83 285 566.78 285Z " fill="#ffffff" fill-opacity="1" transform="matrix(1,0,0,1,-509,-226)"></path></svg>