<svg id="SvgjsSvg1080" xmlns="http://www.w3.org/2000/svg" version="1.1" xmlns:xlink="http://www.w3.org/1999/xlink" xmlns:svgjs="http://svgjs.com/svgjs" width="25" height="21" viewBox="0 0 25 21"><title>1474428052_017_231_phone_call_contact_device_communication_preferences</title><desc>Created with Avocode.</desc><defs id="SvgjsDefs1081"></defs><path id="SvgjsPath1082" d="M821.3 318.74C821.01 318.71000000000004 820.75 318.6 820.53 318.44C820.16 318.17 819.9 317.75 819.85 317.27L819.76 316.47999999999996C819.67 315.73999999999995 819.11 315.15999999999997 818.41 315.03C818.31 315.01 818.2099999999999 315 818.1 315L811.07 315C810.96 315 810.86 315.01 810.7600000000001 315.03C810.0500000000001 315.15999999999997 809.5000000000001 315.73999999999995 809.4100000000001 316.47999999999996L809.32 317.27C809.2600000000001 317.75 809.0100000000001 318.16999999999996 808.6400000000001 318.44C808.4200000000001 318.6 808.1600000000001 318.71 807.8700000000001 318.74L806.6100000000001 318.90000000000003L805.0000000000001 325.92L805.0000000000001 329.28000000000003C805.0000000000001 330.20000000000005 805.7500000000001 330.96000000000004 806.6700000000001 330.96000000000004L822.5000000000001 330.96000000000004C823.4200000000001 330.96000000000004 824.1700000000001 330.20000000000005 824.1700000000001 329.28000000000003L824.1700000000001 325.92L822.5600000000001 318.90000000000003Z " fill="#ffffff" fill-opacity="1" transform="matrix(1,0,0,1,-802,-310)"></path><path id="SvgjsPath1083" d="M807.08 330.8C805.9300000000001 330.8 805 329.86 805 328.7L805 325.34C805 325.31 805 325.27 805.01 325.23999999999995L806.62 318.22999999999996C806.66 318.05999999999995 806.8 317.92999999999995 806.97 317.90999999999997L808.23 317.74999999999994C808.44 317.71999999999997 808.64 317.63999999999993 808.8100000000001 317.5199999999999C809.1 317.30999999999995 809.2800000000001 316.98999999999995 809.32 316.63999999999993L809.4100000000001 315.85999999999996C809.5200000000001 314.93999999999994 810.2 314.21 811.1000000000001 314.03999999999996C811.2200000000001 314.01 811.3500000000001 313.99999999999994 811.4800000000001 313.99999999999994L818.5200000000001 313.99999999999994C818.6500000000001 313.99999999999994 818.7800000000001 314.00999999999993 818.9100000000001 314.03999999999996C819.8000000000001 314.21 820.4800000000001 314.93999999999994 820.59 315.85999999999996L820.6800000000001 316.63999999999993C820.72 316.98999999999995 820.9000000000001 317.30999999999995 821.19 317.5199999999999C821.36 317.63999999999993 821.5600000000001 317.7199999999999 821.7700000000001 317.74999999999994L823.0300000000001 317.90999999999997C823.2 317.92999999999995 823.34 318.05999999999995 823.3800000000001 318.22999999999996L824.9900000000001 325.23999999999995C825.0000000000001 325.2699999999999 825.0000000000001 325.30999999999995 825.0000000000001 325.34L825.0000000000001 328.7C825.0000000000001 329.86 824.0700000000002 330.8 822.9200000000001 330.8ZM805.83 328.7C805.83 329.39 806.39 329.96 807.08 329.96L822.9200000000001 329.96C823.6100000000001 329.96 824.1700000000001 329.39 824.1700000000001 328.7L824.1700000000001 325.38L822.6400000000001 318.7L821.6600000000001 318.58C821.32 318.53999999999996 820.9800000000001 318.40999999999997 820.7 318.2C820.23 317.86 819.9200000000001 317.32 819.85 316.74L819.76 315.95C819.6899999999999 315.4 819.29 314.96 818.75 314.86C818.67 314.85 818.6 314.84000000000003 818.52 314.84000000000003L811.48 314.84000000000003C811.4 314.84000000000003 811.33 314.85 811.25 314.86C810.71 314.96000000000004 810.31 315.40000000000003 810.24 315.95L810.15 316.74C810.0799999999999 317.32 809.77 317.86 809.3 318.2C809.02 318.40999999999997 808.68 318.53999999999996 808.3399999999999 318.58L807.3599999999999 318.7L805.8299999999999 325.38Z " fill="#0a94e3" fill-opacity="1" transform="matrix(1,0,0,1,-802,-310)"></path><path id="SvgjsPath1084" d="M819.17 321.98L818.0799999999999 321.62C817.9999999999999 321.34000000000003 817.8899999999999 321.08 817.7599999999999 320.84000000000003L818.2699999999999 319.8L817.3799999999999 318.90000000000003L816.3499999999999 319.42C816.1099999999999 319.28000000000003 815.8499999999999 319.17 815.5799999999999 319.1L815.2199999999999 318L813.9499999999999 318L813.5899999999999 319.1C813.3199999999999 319.17 813.06 319.28000000000003 812.81 319.42L811.79 318.90000000000003L810.9 319.8L811.41 320.84000000000003C811.27 321.08000000000004 811.16 321.34000000000003 811.0899999999999 321.62L809.9999999999999 321.98L809.9999999999999 323.26L811.0899999999999 323.62C811.16 323.9 811.2699999999999 324.16 811.41 324.4L810.9 325.44L811.79 326.34L812.81 325.82C813.06 325.96 813.3199999999999 326.07 813.5899999999999 326.14L813.9499999999999 327.24L815.2199999999999 327.24L815.5799999999999 326.14C815.8499999999999 326.07 816.1099999999999 325.96 816.3499999999999 325.82L817.3799999999999 326.34L818.2699999999999 325.44L817.7599999999999 324.4C817.8899999999999 324.15999999999997 817.9999999999999 323.9 818.0799999999999 323.62L819.17 323.26ZM813.44 322.62C813.44 321.98 813.95 321.46 814.58 321.46C815.22 321.46 815.73 321.97999999999996 815.73 322.62C815.73 323.26 815.22 323.77 814.58 323.77C813.95 323.77 813.44 323.26 813.44 322.62Z " fill="#c2e4f8" fill-opacity="1" transform="matrix(1,0,0,1,-802,-310)"></path><path id="SvgjsPath1085" d="M814.37 328.08C814.19 328.08 814.03 327.96 813.97 327.78999999999996L813.6800000000001 326.9C813.5200000000001 326.84999999999997 813.3700000000001 326.78 813.23 326.71L812.39 327.13C812.23 327.21 812.04 327.18 811.91 327.05L811.02 326.15000000000003C810.89 326.03000000000003 810.86 325.83000000000004 810.9399999999999 325.67L811.3599999999999 324.83000000000004C811.2899999999998 324.68000000000006 811.2199999999999 324.53000000000003 811.1699999999998 324.37000000000006L810.2799999999999 324.08000000000004C810.1099999999999 324.02000000000004 809.9999999999999 323.86 809.9999999999999 323.68000000000006L809.9999999999999 322.4000000000001C809.9999999999999 322.2200000000001 810.1099999999999 322.0600000000001 810.2799999999999 322.0000000000001L811.1699999999998 321.7100000000001C811.2199999999998 321.55000000000007 811.2899999999998 321.4000000000001 811.3599999999999 321.2500000000001L810.9399999999999 320.41000000000014C810.8599999999999 320.2500000000001 810.89 320.0500000000001 811.02 319.9300000000001L811.91 319.03000000000014C812.04 318.90000000000015 812.23 318.8700000000001 812.39 318.95000000000016L813.23 319.3700000000002C813.37 319.3000000000002 813.52 319.2300000000002 813.6800000000001 319.1800000000002L813.97 318.2900000000002C814.03 318.1200000000002 814.19 318.00000000000017 814.37 318.00000000000017L815.63 318.00000000000017C815.81 318.00000000000017 815.97 318.1200000000002 816.03 318.2900000000002L816.3199999999999 319.1800000000002C816.4799999999999 319.2300000000002 816.6299999999999 319.3000000000002 816.77 319.3700000000002L817.61 318.95000000000016C817.77 318.8700000000002 817.96 318.90000000000015 818.09 319.03000000000014L818.98 319.9300000000001C819.11 320.0500000000001 819.14 320.2500000000001 819.0600000000001 320.41000000000014L818.6400000000001 321.2500000000001C818.7100000000002 321.4000000000001 818.7800000000001 321.5500000000001 818.8300000000002 321.7100000000001L819.7200000000001 322.0000000000001C819.8900000000001 322.0600000000001 820.0000000000001 322.22000000000014 820.0000000000001 322.4000000000001L820.0000000000001 323.68000000000006C820.0000000000001 323.86000000000007 819.8900000000001 324.02000000000004 819.7200000000001 324.08000000000004L818.8300000000002 324.37000000000006C818.7800000000002 324.5300000000001 818.7100000000002 324.68000000000006 818.6400000000001 324.83000000000004L819.0600000000001 325.67C819.1400000000001 325.83000000000004 819.11 326.03000000000003 818.98 326.15000000000003L818.09 327.05C817.96 327.18 817.77 327.21000000000004 817.61 327.13L816.77 326.71C816.63 326.78 816.48 326.84999999999997 816.3199999999999 326.9L816.03 327.78999999999996C815.97 327.96 815.81 328.08 815.63 328.08ZM815.33 327.24L815.6 326.43C815.64 326.3 815.75 326.2 815.88 326.16C816.12 326.09000000000003 816.35 326 816.57 325.87C816.69 325.81 816.83 325.8 816.96 325.87L817.71 326.25L818.1800000000001 325.77L817.8000000000001 325.01C817.7400000000001 324.89 817.7400000000001 324.74 817.8100000000001 324.62C817.9300000000001 324.4 818.0300000000001 324.17 818.1 323.93C818.13 323.79 818.23 323.69 818.36 323.64L819.17 323.37L819.17 322.71L818.36 322.44C818.23 322.39 818.13 322.29 818.1 322.15C818.03 321.90999999999997 817.9300000000001 321.67999999999995 817.8100000000001 321.46C817.74 321.34 817.74 321.19 817.8000000000001 321.07L818.1800000000001 320.31L817.71 319.83L816.96 320.21C816.83 320.28 816.69 320.27 816.57 320.21C816.35 320.08 816.12 319.98999999999995 815.88 319.91999999999996C815.75 319.87999999999994 815.64 319.78 815.6 319.65L815.33 318.84L814.6700000000001 318.84L814.4000000000001 319.65C814.3600000000001 319.78 814.2500000000001 319.88 814.1200000000001 319.91999999999996C813.8800000000001 319.98999999999995 813.6500000000001 320.08 813.4300000000001 320.21C813.3100000000001 320.27 813.1700000000001 320.28 813.0400000000001 320.21L812.2900000000001 319.83L811.82 320.31L812.2 321.07C812.26 321.19 812.26 321.34 812.19 321.46C812.07 321.68 811.97 321.90999999999997 811.9000000000001 322.15C811.8700000000001 322.28999999999996 811.7700000000001 322.39 811.6400000000001 322.44L810.8300000000002 322.71L810.8300000000002 323.37L811.6400000000001 323.64C811.7700000000001 323.69 811.8700000000001 323.78999999999996 811.9000000000001 323.93C811.9700000000001 324.17 812.07 324.40000000000003 812.19 324.62C812.2600000000001 324.74 812.2600000000001 324.89 812.2 325.01L811.82 325.77L812.2900000000001 326.25L813.0400000000001 325.87C813.1700000000001 325.8 813.3100000000001 325.81 813.4300000000001 325.87C813.6500000000001 326 813.8800000000001 326.09000000000003 814.1200000000001 326.16C814.2500000000001 326.20000000000005 814.3600000000001 326.3 814.4000000000001 326.43L814.6700000000001 327.24ZM813.44 323.04C813.44 322.17 814.1400000000001 321.47 815 321.47C815.86 321.47 816.56 322.17 816.56 323.04C816.56 323.91 815.8599999999999 324.62 815 324.62C814.14 324.62 813.44 323.91 813.44 323.04ZM814.27 323.04C814.27 323.45000000000005 814.6 323.77000000000004 815 323.77000000000004C815.4 323.77000000000004 815.73 323.45000000000005 815.73 323.04C815.73 322.63 815.4 322.3 815 322.3C814.6 322.3 814.27 322.63 814.27 323.04Z " fill="#0a94e3" fill-opacity="1" transform="matrix(1,0,0,1,-802,-310)"></path><path id="SvgjsPath1086" d="M802 314.19L802 316.71999999999997C802 317.72999999999996 802.88 318.51 803.87 318.39L807.37 317.95C808.13 317.84999999999997 808.73 317.24 808.82 316.47999999999996L808.9100000000001 315.68999999999994C809.0100000000001 314.8399999999999 809.72 314.19999999999993 810.57 314.19999999999993L817.6 314.19999999999993C818.45 314.19999999999993 819.16 314.8399999999999 819.26 315.68999999999994L819.35 316.47999999999996C819.44 317.23999999999995 820.0400000000001 317.84999999999997 820.8000000000001 317.95L824.2900000000001 318.39C825.2900000000001 318.51 826.1700000000001 317.72999999999996 826.1700000000001 316.71999999999997L826.1700000000001 314.19C826.1700000000001 312.44 823.7400000000001 310 814.08 310C804.4300000000001 310 802 312.58 802 314.19Z " fill="#c2e4f8" fill-opacity="1" transform="matrix(1,0,0,1,-802,-310)"></path><path id="SvgjsPath1087" d="M824.66 319.22L821.16 318.78000000000003C820.2099999999999 318.66 819.4599999999999 317.91 819.35 316.94000000000005L819.26 316.1600000000001C819.1899999999999 315.5200000000001 818.65 315.0400000000001 818.02 315.0400000000001L810.98 315.0400000000001C810.35 315.0400000000001 809.8100000000001 315.5200000000001 809.74 316.1600000000001L809.65 316.94000000000005C809.54 317.9100000000001 808.79 318.6600000000001 807.84 318.78000000000003L804.34 319.22C803.75 319.3 803.15 319.11 802.7 318.71000000000004C802.26 318.32000000000005 802 317.74 802 317.14000000000004L802 314.61000000000007C802 313.8400000000001 802.6 310.00000000000006 814.5 310.00000000000006C817.43 310.00000000000006 827 310.33000000000004 827 314.61000000000007L827 317.14000000000004C827 317.74000000000007 826.74 318.32000000000005 826.3 318.71000000000004C825.91 319.05 825.42 319.24 824.92 319.24C824.8299999999999 319.24 824.74 319.23 824.66 319.22ZM818.02 314.2C819.0699999999999 314.2 819.96 315 820.09 316.06L820.1800000000001 316.85C820.2500000000001 317.43 820.69 317.88 821.2700000000001 317.95000000000005L824.7600000000001 318.39000000000004C825.1200000000001 318.43000000000006 825.4800000000001 318.32000000000005 825.7400000000001 318.08000000000004C826.0100000000001 317.85 826.1700000000001 317.50000000000006 826.1700000000001 317.14000000000004L826.1700000000001 314.61000000000007C826.1700000000001 311.8300000000001 819.8800000000001 310.8400000000001 814.5000000000001 310.8400000000001C805.2900000000001 310.8400000000001 802.8300000000002 313.2100000000001 802.8300000000002 314.61000000000007L802.8300000000002 317.14000000000004C802.8300000000002 317.50000000000006 802.9900000000001 317.85 803.2600000000001 318.08000000000004C803.5200000000001 318.32000000000005 803.8800000000001 318.43000000000006 804.2400000000001 318.39000000000004L807.7300000000001 317.95000000000005C808.3100000000002 317.88000000000005 808.7500000000001 317.43000000000006 808.8200000000002 316.85L808.9100000000002 316.06C809.0400000000002 315 809.9300000000002 314.2 810.9800000000002 314.2Z " fill="#0a94e3" fill-opacity="1" transform="matrix(1,0,0,1,-802,-310)"></path></svg>