<svg id="SvgjsSvg1000" xmlns="http://www.w3.org/2000/svg" version="1.1" xmlns:xlink="http://www.w3.org/1999/xlink" xmlns:svgjs="http://svgjs.com/svgjs" width="42" height="56" viewBox="0 0 42 56"><title>1474422394_017_202_photo_photography_image_cam_camera_multimedia_digital_device_dslr_flash</title><desc>Created with Avocode.</desc><defs id="SvgjsDefs1001"></defs><path id="SvgjsPath1007" d="M306 105L306 113C306 114.1 305.1 115 304 115L288 115C286.9 115 286 114.1 286 113L286 105C286 103.9 286.9 103 288 103L304 103C305.1 103 306 103.9 306 105Z " fill="#ffffff" fill-opacity="1" transform="matrix(1,0,0,1,-275,-92)"></path><path id="SvgjsPath1008" d="M288 116C286.35 116 285 114.65 285 113L285 105C285 103.35 286.35 102 288 102L304 102C305.65 102 307 103.35 307 105L307 113C307 114.65 305.65 116 304 116ZM287 105L287 113C287 113.55 287.45 114 288 114L304 114C304.55 114 305 113.55 305 113L305 105C305 104.45 304.55 104 304 104L288 104C287.45 104 287 104.45 287 105Z " fill="#0a94e3" fill-opacity="1" transform="matrix(1,0,0,1,-275,-92)"></path><path id="SvgjsPath1009" d="M292 119L292 115L300 115L300 119Z " fill="#c2e4f8" fill-opacity="1" transform="matrix(1,0,0,1,-275,-92)"></path><path id="SvgjsPath1010" d="M292 120C291.45 120 291 119.55 291 119L291 115C291 114.45 291.45 114 292 114L300 114C300.55 114 301 114.45 301 115L301 119C301 119.55 300.55 120 300 120ZM299 118L299 116L293 116L293 118Z " fill="#0a94e3" fill-opacity="1" transform="matrix(1,0,0,1,-275,-92)"></path><path id="SvgjsPath1011" d="M290 111L290 107L302 107L302 111Z " fill="#c2e4f8" fill-opacity="1" transform="matrix(1,0,0,1,-275,-92)"></path><path id="SvgjsPath1012" d="M290 112C289.45 112 289 111.55 289 111L289 107C289 106.45 289.45 106 290 106L302 106C302.55 106 303 106.45 303 107L303 111C303 111.55 302.55 112 302 112ZM301 110L301 108L291 108L291 110Z " fill="#0a94e3" fill-opacity="1" transform="matrix(1,0,0,1,-275,-92)"></path><path id="SvgjsPath1013" d="M296 98C295.45 98 295 97.55 295 97L295 93C295 92.45 295.45 92 296 92C296.55 92 297 92.45 297 93L297 97C297 97.55 296.55 98 296 98Z " fill="#0a94e3" fill-opacity="1" transform="matrix(1,0,0,1,-275,-92)"></path><path id="SvgjsPath1014" d="M316 110L312 110C311.45 110 311 109.55 311 109C311 108.45 311.45 108 312 108L316 108C316.55 108 317 108.45 317 109C317 109.55 316.55 110 316 110Z " fill="#0a94e3" fill-opacity="1" transform="matrix(1,0,0,1,-275,-92)"></path><path id="SvgjsPath1015" d="M280 110L276 110C275.45 110 275 109.55 275 109C275 108.45 275.45 108 276 108L280 108C280.55 108 281 108.45 281 109C281 109.55 280.55 110 280 110Z " fill="#0a94e3" fill-opacity="1" transform="matrix(1,0,0,1,-275,-92)"></path><path id="SvgjsPath1016" d="M285.83 100.83C285.57 100.83 285.32 100.73 285.12 100.53999999999999L282.29 97.71C281.90000000000003 97.32 281.90000000000003 96.67999999999999 282.29 96.28999999999999C282.68 95.89999999999999 283.32 95.89999999999999 283.71000000000004 96.28999999999999L286.54 99.11999999999999C286.93 99.50999999999999 286.93 100.13999999999999 286.54 100.53999999999999C286.34000000000003 100.72999999999999 286.08000000000004 100.83 285.83000000000004 100.83Z " fill="#0a94e3" fill-opacity="1" transform="matrix(1,0,0,1,-275,-92)"></path><path id="SvgjsPath1017" d="M306 100.83C305.74 100.83 305.49 100.73 305.29 100.53999999999999C304.90000000000003 100.13999999999999 304.90000000000003 99.50999999999999 305.29 99.11999999999999L308.12 96.28999999999999C308.51 95.89999999999999 309.14 95.89999999999999 309.54 96.28999999999999C309.93 96.67999999999999 309.93 97.32 309.54 97.71L306.71000000000004 100.53999999999999C306.51000000000005 100.72999999999999 306.26000000000005 100.83 306.00000000000006 100.83Z " fill="#0a94e3" fill-opacity="1" transform="matrix(1,0,0,1,-275,-92)"></path><path id="SvgjsPath1018" d="M306 125L302.59 119.89C302.21999999999997 119.33 301.59999999999997 119 300.92999999999995 119L291.06999999999994 119C290.3999999999999 119 289.7799999999999 119.33 289.4099999999999 119.89L285.9999999999999 125L279.9999999999999 125C278.89999999999986 125 277.9999999999999 125.9 277.9999999999999 127L277.9999999999999 145C277.9999999999999 146.1 278.89999999999986 147 279.9999999999999 147L311.9999999999999 147C313.0999999999999 147 313.9999999999999 146.1 313.9999999999999 145L313.9999999999999 127C313.9999999999999 125.9 313.0999999999999 125 311.9999999999999 125Z " fill="#ffffff" fill-opacity="1" transform="matrix(1,0,0,1,-275,-92)"></path><path id="SvgjsPath1019" d="M280 148C278.35 148 277 146.65 277 145L277 127C277 125.35 278.35 124 280 124L285.46 124L288.57 119.34C289.13 118.5 290.06 118 291.07 118L300.93 118C301.94 118 302.87 118.5 303.43 119.34L306.54 124L312 124C313.65 124 315 125.35 315 127L315 145C315 146.65 313.65 148 312 148ZM279 127L279 145C279 145.55 279.45 146 280 146L312 146C312.55 146 313 145.55 313 145L313 127C313 126.45 312.55 126 312 126L306 126C305.67 126 305.35 125.83 305.17 125.55L301.76 120.45C301.58 120.17 301.26 120 300.93 120L291.07 120C290.74 120 290.42 120.17 290.24 120.45L286.83 125.55C286.65 125.83 286.33 126 286 126L280 126C279.45 126 279 126.45 279 127Z " fill="#0a94e3" fill-opacity="1" transform="matrix(1,0,0,1,-275,-92)"></path><path id="SvgjsPath1020" d="M310 130C309.74 130 309.48 129.89 309.29 129.71C309.11 129.52 309 129.26000000000002 309 129C309 128.74 309.11 128.48 309.29 128.29C309.52000000000004 128.06 309.87 127.94999999999999 310.20000000000005 128.01999999999998C310.26000000000005 128.02999999999997 310.32000000000005 128.04999999999998 310.38000000000005 128.07999999999998C310.44000000000005 128.1 310.50000000000006 128.13 310.55000000000007 128.17C310.61000000000007 128.2 310.6600000000001 128.25 310.7100000000001 128.29C310.8900000000001 128.48 311.0000000000001 128.73999999999998 311.0000000000001 129C311.0000000000001 129.26 310.8900000000001 129.52 310.7100000000001 129.71C310.6600000000001 129.75 310.61000000000007 129.79000000000002 310.55000000000007 129.83C310.50000000000006 129.87 310.44000000000005 129.9 310.38000000000005 129.92000000000002C310.32000000000005 129.95000000000002 310.26000000000005 129.97000000000003 310.20000000000005 129.98000000000002C310.13000000000005 129.99 310.06000000000006 130.00000000000003 310.00000000000006 130.00000000000003Z " fill="#0a94e3" fill-opacity="1" transform="matrix(1,0,0,1,-275,-92)"></path><path id="SvgjsPath1021" d="M298 124L294 124C293.45 124 293 123.55 293 123C293 122.45 293.45 122 294 122L298 122C298.55 122 299 122.45 299 123C299 123.55 298.55 124 298 124Z " fill="#0a94e3" fill-opacity="1" transform="matrix(1,0,0,1,-275,-92)"></path><path id="SvgjsPath1022" d="M288 135C288 130.58172 291.58172 127 296 127C300.41828 127 304 130.58172 304 135C304 139.41828 300.41828 143 296 143C291.58172 143 288 139.41828 288 135Z " fill="#c2e4f8" fill-opacity="1" transform="matrix(1,0,0,1,-275,-92)"></path><path id="SvgjsPath1023" d="M287 135C287 130.04 291.04 126 296 126C300.96 126 305 130.04 305 135C305 139.96 300.96 144 296 144C291.04 144 287 139.96 287 135ZM289 135C289 138.86 292.14 142 296 142C299.86 142 303 138.86 303 135C303 131.14 299.86 128 296 128C292.14 128 289 131.14 289 135Z " fill="#0a94e3" fill-opacity="1" transform="matrix(1,0,0,1,-275,-92)"></path><path id="SvgjsPath1024" d="M292 136C291.45 136 291 135.55 291 135C291 132.24 293.24 130 296 130C296.55 130 297 130.45 297 131C297 131.55 296.55 132 296 132C294.35 132 293 133.35 293 135C293 135.55 292.55 136 292 136Z " fill="#0a94e3" fill-opacity="1" transform="matrix(1,0,0,1,-275,-92)"></path></svg>