<svg id="SvgjsSvg1000" xmlns="http://www.w3.org/2000/svg" version="1.1" xmlns:xlink="http://www.w3.org/1999/xlink" xmlns:svgjs="http://svgjs.com/svgjs" width="27" height="21" viewBox="0 0 27 21"><title>Shape</title><desc>Created with Avocode.</desc><defs id="SvgjsDefs1001"></defs><path id="SvgjsPath1007" d="M202 1304.16L202.05 1303.3100000000002C202.05 1302.7500000000002 202.74 1302.0000000000002 203.32000000000002 1302.0000000000002L204.20000000000002 1302.0000000000002C204.82000000000002 1302.0000000000002 205.35000000000002 1302.7500000000002 205.35000000000002 1303.3100000000002L205.33 1304.16 " fill-opacity="0" fill="#ffffff" stroke-dasharray="0" stroke-linejoin="miter" stroke-linecap="butt" stroke-opacity="1" stroke="#ffffff" stroke-miterlimit="50" stroke-width="2" transform="matrix(1,0,0,1,-199.5,-1300)"></path><path id="SvgjsPath1008" d="M221.15 1304.45L220 1302.52C219.61 1301.95 219.04 1301.43 218.34 1301L212.78 1301C212.08 1301.43 211.5 1301.95 211.11 1302.52L209.25 1304.45L202.2 1304.45C200.54 1304.45 200 1305.44 200 1306.57L200 1317.8899999999999C200 1319.02 200.56 1319.9399999999998 202.28 1319.9999999999998L223.28 1319.9999999999998C225 1319.9399999999998 225.56 1319.0199999999998 225.56 1317.8899999999999L225.56 1306.1799999999998C225.56 1305.0499999999997 225.04 1304.4499999999998 223.31 1304.4499999999998Z " fill-opacity="0" fill="#ffffff" stroke-dasharray="0" stroke-linejoin="miter" stroke-linecap="butt" stroke-opacity="1" stroke="#ffffff" stroke-miterlimit="50" stroke-width="2" transform="matrix(1,0,0,1,-199.5,-1300)"></path><path id="SvgjsPath1009" d="M209 1312C209 1308.68629 211.68629 1306 215 1306C218.31371 1306 221 1308.68629 221 1312C221 1315.31371 218.31371 1318 215 1318C211.68629 1318 209 1315.31371 209 1312Z " fill-opacity="0" fill="#ffffff" stroke-dasharray="0" stroke-linejoin="miter" stroke-linecap="butt" stroke-opacity="1" stroke="#ffffff" stroke-miterlimit="50" stroke-width="2" transform="matrix(1,0,0,1,-199.5,-1300)"></path><path id="SvgjsPath1010" d="M212 1311.5C212 1309.567 213.567 1308 215.5 1308C217.433 1308 219 1309.567 219 1311.5C219 1313.433 217.433 1315 215.5 1315C213.567 1315 212 1313.433 212 1311.5Z " fill-opacity="0" fill="#ffffff" stroke-dasharray="0" stroke-linejoin="miter" stroke-linecap="butt" stroke-opacity="1" stroke="#ffffff" stroke-miterlimit="50" stroke-width="2" transform="matrix(1,0,0,1,-199.5,-1300)"></path><path id="SvgjsPath1011" d="M202 1308.5C202 1307.67157 202.89543 1307 204 1307C205.10457 1307 206 1307.67157 206 1308.5C206 1309.32843 205.10457 1310 204 1310C202.89543 1310 202 1309.32843 202 1308.5Z " fill-opacity="0" fill="#ffffff" stroke-dasharray="0" stroke-linejoin="miter" stroke-linecap="butt" stroke-opacity="1" stroke="#ffffff" stroke-miterlimit="50" stroke-width="2" transform="matrix(1,0,0,1,-199.5,-1300)"></path></svg>