<svg id="SvgjsSvg1013" xmlns="http://www.w3.org/2000/svg" version="1.1" xmlns:xlink="http://www.w3.org/1999/xlink" xmlns:svgjs="http://svgjs.com/svgjs" width="17" height="17" viewBox="0 0 17 17"><title>Shape</title><desc>Created with Avocode.</desc><defs id="SvgjsDefs1014"></defs><path id="SvgjsPath1015" d="M838 369.33C838 373.93 841.73 377.66999999999996 846.33 377.66999999999996C850.9300000000001 377.66999999999996 854.6700000000001 373.92999999999995 854.6700000000001 369.33C854.6700000000001 364.72999999999996 850.9300000000001 361 846.33 361C841.73 361 838 364.73 838 369.33ZM839.67 369.33C839.67 365.65 842.65 362.66999999999996 846.3299999999999 362.66999999999996C850.02 362.66999999999996 852.9999999999999 365.65 852.9999999999999 369.33C852.9999999999999 373.02 850.0199999999999 376 846.3299999999999 376C842.65 376 839.67 373.02 839.67 369.33Z " fill="#7e8890" fill-opacity="1" transform="matrix(1,0,0,1,-838,-361)"></path><path id="SvgjsPath1016" d="M846.25 365H845V370L849.38 372.63L850 371.6L846.25 369.38Z " fill="#7e8890" fill-opacity="1" transform="matrix(1,0,0,1,-838,-361)"></path></svg>