<svg id="SvgjsSvg1046" xmlns="http://www.w3.org/2000/svg" version="1.1" xmlns:xlink="http://www.w3.org/1999/xlink" xmlns:svgjs="http://svgjs.com/svgjs" width="40" height="8" viewBox="0 0 40 8"><title>Combined Shape</title><desc>Created with Avocode.</desc><defs id="SvgjsDefs1047"></defs><path id="SvgjsPath1048" d="M700 3630C700 3627.79086 701.79086 3626 704 3626C706.20914 3626 708 3627.79086 708 3630C708 3632.20914 706.20914 3634 704 3634C701.79086 3634 700 3632.20914 700 3630ZM716 3630C716 3627.79086 717.79086 3626 720 3626C722.20914 3626 724 3627.79086 724 3630C724 3632.20914 722.20914 3634 720 3634C717.79086 3634 716 3632.20914 716 3630ZM732 3630C732 3627.79086 733.79086 3626 736 3626C738.20914 3626 740 3627.79086 740 3630C740 3632.20914 738.20914 3634 736 3634C733.79086 3634 732 3632.20914 732 3630Z " fill="#ffb300" fill-opacity="1" transform="matrix(1,0,0,1,-700,-3626)"></path></svg>