<svg id="SvgjsSvg1000" xmlns="http://www.w3.org/2000/svg" version="1.1" xmlns:xlink="http://www.w3.org/1999/xlink" xmlns:svgjs="http://svgjs.com/svgjs" width="12" height="12" viewBox="0 0 12 12"><title>Shape</title><desc>Created with Avocode.</desc><defs id="SvgjsDefs1001"></defs><path id="SvgjsPath1007" d="M765.81 121.33L765.6199999999999 121.14999999999999C766.2699999999999 120.38999999999999 766.6699999999998 119.41 766.6699999999998 118.33C766.6699999999998 115.94 764.7299999999998 114 762.3299999999998 114C759.9399999999998 114 757.9999999999998 115.94 757.9999999999998 118.33C757.9999999999998 120.73 759.9399999999998 122.67 762.3299999999998 122.67C763.4099999999999 122.67 764.3899999999998 122.27 765.1499999999999 121.62L765.3299999999998 121.81L765.3299999999998 122.33L768.6699999999998 125.66L769.6599999999999 124.67L766.3299999999998 121.33ZM759.33 118.33C759.33 116.67 760.6700000000001 115.33 762.33 115.33C763.99 115.33 765.33 116.67 765.33 118.33C765.33 119.99 763.99 121.33 762.33 121.33C760.6700000000001 121.33 759.33 119.99 759.33 118.33Z " fill="#8c8e8c" fill-opacity="1" transform="matrix(1,0,0,1,-758,-114)"></path></svg>