<svg id="SvgjsSvg1050" xmlns="http://www.w3.org/2000/svg" version="1.1" xmlns:xlink="http://www.w3.org/1999/xlink" xmlns:svgjs="http://svgjs.com/svgjs" width="34" height="56" viewBox="0 0 34 56"><title>shower</title><desc>Created with Avocode.</desc><defs id="SvgjsDefs1051"></defs><path id="SvgjsPath1052" d="M1214.05 1863C1208.4199999999998 1863 1203.83 1867.46 1203.73 1872.97C1200.46 1873.41 1197.69 1875.59 1196.54 1878.65L1196.24 1878.65C1195.56 1878.65 1195 1879.2 1195 1879.8700000000001L1195 1883.6100000000001C1195 1884.2800000000002 1195.56 1884.8300000000002 1196.24 1884.8300000000002L1213.69 1884.8300000000002C1214.38 1884.8300000000002 1214.93 1884.2800000000002 1214.93 1883.6100000000001L1214.93 1879.8700000000001C1214.93 1879.2 1214.38 1878.65 1213.69 1878.65L1213.39 1878.65C1212.25 1875.6000000000001 1209.48 1873.42 1206.21 1872.97C1206.31 1868.8 1209.79 1865.44 1214.05 1865.44L1223.1399999999999 1865.44C1223.83 1865.44 1224.3799999999999 1864.89 1224.3799999999999 1864.22C1224.3799999999999 1863.55 1223.83 1863 1223.1399999999999 1863ZM1197.48 1882.39L1197.48 1881.0900000000001L1212.45 1881.0900000000001L1212.45 1882.39ZM1199.26 1878.65C1200.37 1876.64 1202.54 1875.3300000000002 1204.97 1875.3300000000002C1207.4 1875.3300000000002 1209.56 1876.64 1210.68 1878.65Z " fill="#ff8402" fill-opacity="1" transform="matrix(1,0,0,1,-1191,-1863)"></path><path id="SvgjsPath1053" d="M1197.05 1887.02C1196.37 1886.91 1195.74 1887.36 1195.6299999999999 1888.03L1195.02 1891.76C1194.91 1892.43 1195.37 1893.05 1196.04 1893.16C1196.11 1893.17 1196.18 1893.17 1196.24 1893.17C1196.84 1893.17 1197.3700000000001 1892.75 1197.47 1892.15L1198.08 1888.41C1198.1899999999998 1887.75 1197.73 1887.1200000000001 1197.05 1887.02Z " fill="#ff8402" fill-opacity="1" transform="matrix(1,0,0,1,-1191,-1863)"></path><path id="SvgjsPath1054" d="M1196.05 1896.02C1195.37 1895.91 1194.74 1896.36 1194.6299999999999 1897.03L1194.02 1900.76C1193.91 1901.43 1194.37 1902.05 1195.04 1902.16C1195.11 1902.17 1195.18 1902.17 1195.24 1902.17C1195.84 1902.17 1196.3700000000001 1901.75 1196.47 1901.15L1197.08 1897.41C1197.1899999999998 1896.75 1196.73 1896.1200000000001 1196.05 1896.02Z " fill="#ff8402" fill-opacity="1" transform="matrix(1,0,0,1,-1191,-1863)"></path><path id="SvgjsPath1055" d="M1194.05 1904.02C1193.37 1903.91 1192.74 1904.36 1192.6299999999999 1905.03L1192.02 1908.76C1191.91 1909.43 1192.37 1910.05 1193.04 1910.16C1193.11 1910.17 1193.18 1910.17 1193.24 1910.17C1193.84 1910.17 1194.3700000000001 1909.75 1194.47 1909.15L1195.08 1905.41C1195.1899999999998 1904.75 1194.73 1904.1200000000001 1194.05 1904.02Z " fill="#ff8402" fill-opacity="1" transform="matrix(1,0,0,1,-1191,-1863)"></path><path id="SvgjsPath1056" d="M1193.01 1913.02C1192.33 1912.91 1191.7 1913.36 1191.59 1914.03L1191.02 1917.53C1190.91 1918.19 1191.37 1918.82 1192.04 1918.93C1192.11 1918.94 1192.18 1918.94 1192.24 1918.94C1192.84 1918.94 1193.3700000000001 1918.52 1193.47 1917.92L1194.04 1914.41C1194.1499999999999 1913.75 1193.69 1913.1200000000001 1193.01 1913.02Z " fill="#ff8402" fill-opacity="1" transform="matrix(1,0,0,1,-1191,-1863)"></path><path id="SvgjsPath1057" d="M1201.51 1905C1200.83 1904.97 1200.24 1905.48 1200.21 1906.15L1200 1909.93C1199.97 1910.6000000000001 1200.49 1911.18 1201.17 1911.22C1201.2 1911.22 1201.22 1911.22 1201.24 1911.22C1201.9 1911.22 1202.44 1910.71 1202.48 1910.06L1202.69 1906.29C1202.72 1905.61 1202.2 1905.04 1201.51 1905Z " fill="#ff8402" fill-opacity="1" transform="matrix(1,0,0,1,-1191,-1863)"></path><path id="SvgjsPath1058" d="M1201.51 1896C1200.83 1895.97 1200.24 1896.48 1200.21 1897.15L1200 1900.93C1199.97 1901.6000000000001 1200.49 1902.18 1201.17 1902.22C1201.2 1902.22 1201.22 1902.22 1201.24 1902.22C1201.9 1902.22 1202.44 1901.71 1202.48 1901.06L1202.69 1897.29C1202.72 1896.61 1202.2 1896.04 1201.51 1896Z " fill="#ff8402" fill-opacity="1" transform="matrix(1,0,0,1,-1191,-1863)"></path><path id="SvgjsPath1059" d="M1200.48 1913C1199.8 1912.97 1199.21 1913.48 1199.18 1914.15L1199 1917.3600000000001C1198.97 1918.0400000000002 1199.49 1918.6100000000001 1200.17 1918.65C1200.2 1918.65 1200.22 1918.65 1200.24 1918.65C1200.9 1918.65 1201.44 1918.15 1201.48 1917.49L1201.65 1914.29C1201.69 1913.61 1201.17 1913.04 1200.48 1913Z " fill="#ff8402" fill-opacity="1" transform="matrix(1,0,0,1,-1191,-1863)"></path><path id="SvgjsPath1060" d="M1202.51 1887C1201.83 1886.97 1201.24 1887.48 1201.21 1888.15L1201 1891.93C1200.97 1892.6000000000001 1201.49 1893.18 1202.17 1893.22C1202.2 1893.22 1202.22 1893.22 1202.24 1893.22C1202.9 1893.22 1203.44 1892.71 1203.48 1892.06L1203.69 1888.29C1203.72 1887.61 1203.2 1887.04 1202.51 1887Z " fill="#ff8402" fill-opacity="1" transform="matrix(1,0,0,1,-1191,-1863)"></path><path id="SvgjsPath1061" d="M1208.45 1911.22C1208.47 1911.22 1208.49 1911.22 1208.51 1911.22C1209.2 1911.18 1209.72 1910.6000000000001 1209.69 1909.93L1209.48 1906.15C1209.44 1905.48 1208.8600000000001 1904.97 1208.17 1905C1207.49 1905.04 1206.97 1905.61 1207 1906.29L1207.21 1910.06C1207.24 1910.71 1207.79 1911.22 1208.45 1911.22Z " fill="#ff8402" fill-opacity="1" transform="matrix(1,0,0,1,-1191,-1863)"></path><path id="SvgjsPath1062" d="M1209.48 1914.15C1209.44 1913.48 1208.8600000000001 1912.97 1208.17 1913C1207.49 1913.04 1206.97 1913.61 1207 1914.29L1207.18 1917.49C1207.21 1918.15 1207.76 1918.65 1208.41 1918.65C1208.44 1918.65 1208.46 1918.65 1208.48 1918.65C1209.17 1918.6100000000001 1209.69 1918.0400000000002 1209.65 1917.3600000000001Z " fill="#ff8402" fill-opacity="1" transform="matrix(1,0,0,1,-1191,-1863)"></path><path id="SvgjsPath1063" d="M1207.45 1893.22C1207.47 1893.22 1207.49 1893.22 1207.51 1893.22C1208.2 1893.18 1208.72 1892.6000000000001 1208.69 1891.93L1208.48 1888.15C1208.44 1887.48 1207.8600000000001 1886.97 1207.17 1887C1206.49 1887.04 1205.97 1887.61 1206 1888.29L1206.21 1892.06C1206.24 1892.71 1206.79 1893.22 1207.45 1893.22Z " fill="#ff8402" fill-opacity="1" transform="matrix(1,0,0,1,-1191,-1863)"></path><path id="SvgjsPath1064" d="M1207.45 1902.22C1207.47 1902.22 1207.49 1902.22 1207.51 1902.22C1208.2 1902.18 1208.72 1901.6000000000001 1208.69 1900.93L1208.48 1897.15C1208.44 1896.48 1207.8600000000001 1895.97 1207.17 1896C1206.49 1896.04 1205.97 1896.61 1206 1897.29L1206.21 1901.06C1206.24 1901.71 1206.79 1902.22 1207.45 1902.22Z " fill="#ff8402" fill-opacity="1" transform="matrix(1,0,0,1,-1191,-1863)"></path><path id="SvgjsPath1065" d="M1216.05 1910.16C1216.73 1910.0500000000002 1217.19 1909.43 1217.08 1908.76L1216.47 1905.03C1216.3600000000001 1904.36 1215.72 1903.91 1215.04 1904.02C1214.37 1904.12 1213.9099999999999 1904.75 1214.02 1905.41L1214.6299999999999 1909.15C1214.7299999999998 1909.75 1215.2499999999998 1910.17 1215.85 1910.17C1215.9199999999998 1910.17 1215.98 1910.17 1216.05 1910.16Z " fill="#ff8402" fill-opacity="1" transform="matrix(1,0,0,1,-1191,-1863)"></path><path id="SvgjsPath1066" d="M1217.47 1914.03C1217.3600000000001 1913.36 1216.72 1912.91 1216.04 1913.02C1215.37 1913.12 1214.9099999999999 1913.75 1215.02 1914.41L1215.59 1917.92C1215.6899999999998 1918.52 1216.2099999999998 1918.94 1216.81 1918.94C1216.8799999999999 1918.94 1216.94 1918.94 1217.01 1918.93C1217.69 1918.8200000000002 1218.15 1918.19 1218.04 1917.53Z " fill="#ff8402" fill-opacity="1" transform="matrix(1,0,0,1,-1191,-1863)"></path><path id="SvgjsPath1067" d="M1213.05 1893.16C1213.73 1893.0500000000002 1214.19 1892.43 1214.08 1891.76L1213.47 1888.03C1213.3600000000001 1887.36 1212.72 1886.91 1212.04 1887.02C1211.37 1887.12 1210.9099999999999 1887.75 1211.02 1888.41L1211.6299999999999 1892.15C1211.7299999999998 1892.75 1212.2499999999998 1893.17 1212.85 1893.17C1212.9199999999998 1893.17 1212.98 1893.17 1213.05 1893.16Z " fill="#ff8402" fill-opacity="1" transform="matrix(1,0,0,1,-1191,-1863)"></path><path id="SvgjsPath1068" d="M1214.05 1902.16C1214.73 1902.0500000000002 1215.19 1901.43 1215.08 1900.76L1214.47 1897.03C1214.3600000000001 1896.36 1213.72 1895.91 1213.04 1896.02C1212.37 1896.12 1211.9099999999999 1896.75 1212.02 1897.41L1212.6299999999999 1901.15C1212.7299999999998 1901.75 1213.2499999999998 1902.17 1213.85 1902.17C1213.9199999999998 1902.17 1213.98 1902.17 1214.05 1902.16Z " fill="#ff8402" fill-opacity="1" transform="matrix(1,0,0,1,-1191,-1863)"></path></svg>