<svg id="SvgjsSvg1112" xmlns="http://www.w3.org/2000/svg" version="1.1" xmlns:xlink="http://www.w3.org/1999/xlink" xmlns:svgjs="http://svgjs.com/svgjs" width="32" height="30" viewBox="0 0 32 30"><title>Shape</title><desc>Created with Avocode.</desc><defs id="SvgjsDefs1113"></defs><path id="SvgjsPath1114" d="M214 772H234L240 778H208Z " fill="#ffb300" fill-opacity="1" transform="matrix(1,0,0,1,-208,-762)"></path><path id="SvgjsPath1115" d="M215 774H233L238 779C238 779 237.59 784 236.87 784H210.94C210.34 784 210 779 210 779Z " fill="#e88115" fill-opacity="1" transform="matrix(1,0,0,1,-208,-762)"></path><path id="SvgjsPath1116" d="M230 778V780C230 781.11 229.1 782 228 782H220C218.9 782 218 781.1 218 780V778H208V790C208 791.1 208.9 792 210 792H238C239.1 792 240 791.1 240 790V778Z " fill="#ffb300" fill-opacity="1" transform="matrix(1,0,0,1,-208,-762)"></path><path id="SvgjsPath1117" d="M229.78 769H227V763C227 762.45 226.55 762 226 762H222C221.45 762 221 762.45 221 763V769H218.22C217.13 769 216.69 769.72 217.23 770.6L223.01 776.32C223.56 777.2 224.44 777.2 224.98999999999998 776.32L230.76999999999998 770.6C231.30999999999997 769.72 230.86999999999998 769 229.77999999999997 769Z " fill="#333838" fill-opacity="1" transform="matrix(1,0,0,1,-208,-762)"></path></svg>