<svg id="SvgjsSvg1000" xmlns="http://www.w3.org/2000/svg" version="1.1" xmlns:xlink="http://www.w3.org/1999/xlink" xmlns:svgjs="http://svgjs.com/svgjs" width="31" height="19" viewBox="0 0 31 19"><title>switch off</title><desc>Created with Avocode.</desc><defs id="SvgjsDefs1001"><filter id="SvgjsFilter1009" width="200%" height="200%" x="-50%" y="-50%"><feMorphology id="SvgjsFeMorphology1010" operator="dilate" radius="0" result="SvgjsFeMorphology1010Out" in="SourceGraphic"></feMorphology><feOffset id="SvgjsFeOffset1011" dx="0" dy="1" result="SvgjsFeOffset1011Out" in="SvgjsFeMorphology1010Out"></feOffset><feGaussianBlur id="SvgjsFeGaussianBlur1012" stdDeviation="0.5 " result="SvgjsFeGaussianBlur1012Out" in="SvgjsFeOffset1011Out"></feGaussianBlur><feComposite id="SvgjsFeComposite1013" in="SvgjsFeGaussianBlur1012Out" in2="SourceAlpha" operator="out" result="SvgjsFeComposite1013Out"></feComposite></filter><filter id="SvgjsFilter1015" width="200%" height="200%" x="-50%" y="-50%"><feMorphology id="SvgjsFeMorphology1016" operator="dilate" radius="0" result="SvgjsFeMorphology1016Out" in="SourceGraphic"></feMorphology><feOffset id="SvgjsFeOffset1017" dx="0" dy="0" result="SvgjsFeOffset1017Out" in="SvgjsFeMorphology1016Out"></feOffset><feGaussianBlur id="SvgjsFeGaussianBlur1018" stdDeviation="0.5 " result="SvgjsFeGaussianBlur1018Out" in="SvgjsFeOffset1017Out"></feGaussianBlur><feComposite id="SvgjsFeComposite1019" in="SvgjsFeGaussianBlur1018Out" in2="SourceAlpha" operator="out" result="SvgjsFeComposite1019Out"></feComposite></filter><clipPath id="SvgjsClipPath1023"><path id="SvgjsPath1022" d="M313 36C313 31.58172 316.58172 28 321 28C325.41828 28 329 31.58172 329 36C329 40.41828 325.41828 44 321 44C316.58172 44 313 40.41828 313 36Z " fill="#ffffff"></path></clipPath><clipPath id="SvgjsClipPath1026"><path id="SvgjsPath1025" d="M313 36C313 31.58172 316.58172 28 321 28C325.41828 28 329 31.58172 329 36C329 40.41828 325.41828 44 321 44C316.58172 44 313 40.41828 313 36Z " fill="#ffffff"></path></clipPath></defs><path id="SvgjsPath1007" d="M336.89 41.35L320.68 41.35C317.51 41.35 315 38.84 315 35.68C315 32.51 317.51 30 320.68 30L336.89 30C340.05 30 342.57 32.51 342.57 35.68C342.57 38.84 340.05 41.35 336.89 41.35Z " fill="#7e8890" fill-opacity="0.2" transform="matrix(1,0,0,1,-312,-27)"></path><path id="SvgjsPath1008" d="M313 36C313 31.58172 316.58172 28 321 28C325.41828 28 329 31.58172 329 36C329 40.41828 325.41828 44 321 44C316.58172 44 313 40.41828 313 36Z " fill="#000000" fill-opacity="0.24" filter="url(#SvgjsFilter1009)" transform="matrix(1,0,0,1,-312,-27)"></path><path id="SvgjsPath1014" d="M313 36C313 31.58172 316.58172 28 321 28C325.41828 28 329 31.58172 329 36C329 40.41828 325.41828 44 321 44C316.58172 44 313 40.41828 313 36Z " fill="#000000" fill-opacity="0.12" filter="url(#SvgjsFilter1015)" transform="matrix(1,0,0,1,-312,-27)"></path><path id="SvgjsPath1020" d="M313 36C313 31.58172 316.58172 28 321 28C325.41828 28 329 31.58172 329 36C329 40.41828 325.41828 44 321 44C316.58172 44 313 40.41828 313 36Z " fill="#f1f1f1" fill-opacity="1" transform="matrix(1,0,0,1,-312,-27)"></path><path id="SvgjsPath1021" d="M313 36C313 31.58172 316.58172 28 321 28C325.41828 28 329 31.58172 329 36C329 40.41828 325.41828 44 321 44C316.58172 44 313 40.41828 313 36Z " fill-opacity="0" fill="#ffffff" stroke-dasharray="0" stroke-linejoin="miter" stroke-linecap="butt" stroke-opacity="1" stroke="#000000" stroke-miterlimit="50" stroke-width="1" clip-path="url(&quot;#SvgjsClipPath1023&quot;)" transform="matrix(1,0,0,1,-312,-27)"></path><path id="SvgjsPath1024" d="M313 36C313 31.58172 316.58172 28 321 28C325.41828 28 329 31.58172 329 36C329 40.41828 325.41828 44 321 44C316.58172 44 313 40.41828 313 36Z " fill-opacity="0" fill="#ffffff" stroke-dasharray="0" stroke-linejoin="miter" stroke-linecap="butt" stroke-opacity="1" stroke="#979797" stroke-miterlimit="50" stroke-width="1" clip-path="url(&quot;#SvgjsClipPath1026&quot;)" transform="matrix(1,0,0,1,-312,-27)"></path></svg>