<svg width="16px" height="6px" viewBox="394 5 16 6" version="1.1" xmlns="http://www.w3.org/2000/svg" xmlns:xlink="http://www.w3.org/1999/xlink">
    <!-- Generator: Sketch 40.3 (33839) - http://www.bohemiancoding.com/sketch -->
    <desc>Created with Sketch.</desc>
    <defs></defs>
    <path d="M402,4 C403.1,4 404,3.1 404,2 C404,0.9 403.1,0 402,0 C400.9,0 400,0.9 400,2 C400,3.1 400.9,4 402,4 L402,4 Z M402,6 C400.9,6 400,6.9 400,8 C400,9.1 400.9,10 402,10 C403.1,10 404,9.1 404,8 C404,6.9 403.1,6 402,6 L402,6 Z M402,12 C400.9,12 400,12.9 400,14 C400,15.1 400.9,16 402,16 C403.1,16 404,15.1 404,14 C404,12.9 403.1,12 402,12 L402,12 Z" id="Shape" stroke="none" fill="#FFFFFF" fill-rule="evenodd" transform="translate(402.000000, 8.000000) rotate(-270.000000) translate(-402.000000, -8.000000) "></path>
</svg>
