<svg id="SvgjsSvg1012" xmlns="http://www.w3.org/2000/svg" version="1.1" xmlns:xlink="http://www.w3.org/1999/xlink" xmlns:svgjs="http://svgjs.com/svgjs" width="25" height="19" viewBox="0 0 25 19"><title>Shape</title><desc>Created with Avocode.</desc><defs id="SvgjsDefs1013"></defs><path id="SvgjsPath1014" d="M753.17 1119.75C751.9699999999999 1119.75 751 1118.76 751 1117.54L751 1103.21C751 1101.99 751.97 1101 753.17 1101L773.8299999999999 1101C775.03 1101 775.9999999999999 1101.99 775.9999999999999 1103.21L775.9999999999999 1117.54C775.9999999999999 1118.76 775.0299999999999 1119.75 773.8299999999999 1119.75ZM773.83 1102.1L753.1700000000001 1102.1C752.57 1102.1 752.09 1102.6 752.09 1103.2099999999998L752.09 1117.5399999999997C752.09 1118.1499999999996 752.57 1118.6499999999996 753.1700000000001 1118.6499999999996L773.83 1118.6499999999996C774.4300000000001 1118.6499999999996 774.9100000000001 1118.1499999999996 774.9100000000001 1117.5399999999997L774.9100000000001 1103.2099999999998C774.9100000000001 1102.6 774.4300000000001 1102.1 773.83 1102.1ZM769.48 1112.79L767.51 1114.79L769.3199999999999 1116.6299999999999C769.53 1116.84 769.53 1117.1799999999998 769.3199999999999 1117.3899999999999C769.1199999999999 1117.6 768.78 1117.6 768.5699999999999 1117.3899999999999L760.78 1109.4799999999998L754.0799999999999 1116.2799999999997C753.8699999999999 1116.4899999999998 753.54 1116.4899999999998 753.3299999999999 1116.2799999999997C753.1199999999999 1116.0699999999997 753.1199999999999 1115.7299999999998 753.3299999999999 1115.5199999999998L760.3399999999999 1108.4099999999999C760.3599999999999 1108.3799999999999 760.3699999999999 1108.35 760.3899999999999 1108.33C760.4999999999999 1108.22 760.6399999999999 1108.1699999999998 760.7799999999999 1108.1699999999998C760.9199999999998 1108.1699999999998 761.0599999999998 1108.2199999999998 761.1699999999998 1108.33C761.1899999999998 1108.35 761.1999999999998 1108.3799999999999 761.2199999999998 1108.4099999999999L766.7599999999998 1114.0299999999997L769.0399999999997 1111.7099999999998C769.0599999999997 1111.6899999999998 769.0699999999997 1111.6599999999999 769.0899999999997 1111.6399999999999C769.1999999999997 1111.53 769.3399999999997 1111.4799999999998 769.4799999999997 1111.4799999999998C769.6199999999997 1111.4799999999998 769.7599999999996 1111.5299999999997 769.8699999999997 1111.6399999999999C769.8899999999996 1111.6599999999999 769.8999999999996 1111.6899999999998 769.9199999999996 1111.7099999999998L773.6699999999996 1115.5199999999998C773.8799999999997 1115.7299999999998 773.8799999999997 1116.0699999999997 773.6699999999996 1116.2799999999997C773.4599999999996 1116.4899999999998 773.1299999999997 1116.4899999999998 772.9199999999996 1116.2799999999997ZM766.22 1107.62C767.1 1107.62 767.86 1107.08 768.2 1106.32C767.9200000000001 1106.4399999999998 767.62 1106.51 767.3000000000001 1106.51C766.1 1106.51 765.1300000000001 1105.53 765.1300000000001 1104.31C765.1300000000001 1103.99 765.2000000000002 1103.6799999999998 765.3300000000002 1103.3999999999999C764.5700000000002 1103.7499999999998 764.0400000000002 1104.5199999999998 764.0400000000002 1105.4099999999999C764.0400000000002 1106.6299999999999 765.0200000000002 1107.62 766.2200000000001 1107.62Z " fill="#ffffff" fill-opacity="1" transform="matrix(1,0,0,1,-751,-1101)"></path></svg>