<svg id="SvgjsSvg1000" xmlns="http://www.w3.org/2000/svg" version="1.1" xmlns:xlink="http://www.w3.org/1999/xlink" xmlns:svgjs="http://svgjs.com/svgjs" width="20" height="20" viewBox="0 0 20 20"><title>Rectangle</title><desc>Created with Avocode.</desc><defs id="SvgjsDefs1001"><clipPath id="SvgjsClipPath1009"><path id="SvgjsPath1008" d="M206 701C206 699.89543 206.89543 699 208 699L224 699C225.10457 699 226 699.89543 226 701L226 717C226 718.10457 225.10457 719 224 719L208 719C206.89543 719 206 718.10457 206 717Z " fill="#ffffff"></path></clipPath></defs><path id="SvgjsPath1007" d="M206 701C206 699.89543 206.89543 699 208 699L224 699C225.10457 699 226 699.89543 226 701L226 717C226 718.10457 225.10457 719 224 719L208 719C206.89543 719 206 718.10457 206 717Z " fill-opacity="0" fill="#ffffff" stroke-dasharray="0" stroke-linejoin="miter" stroke-linecap="butt" stroke-opacity="1" stroke="#7e8890" stroke-miterlimit="50" stroke-width="1" clip-path="url(&quot;#SvgjsClipPath1009&quot;)" transform="matrix(1,0,0,1,-206,-699)"></path></svg>