<svg id="SvgjsSvg1025" xmlns="http://www.w3.org/2000/svg" version="1.1" xmlns:xlink="http://www.w3.org/1999/xlink" xmlns:svgjs="http://svgjs.com/svgjs" width="26" height="20" viewBox="0 0 26 20"><title>Shape</title><desc>Created with Avocode.</desc><defs id="SvgjsDefs1026"></defs><path id="SvgjsPath1027" d="M225.66 1869.58C225.66 1867.37 225.4 1865.1499999999999 225.4 1865.1499999999999C225.4 1865.1499999999999 225.15 1863.2699999999998 224.38 1862.4399999999998C223.41 1861.35 222.31 1861.34 221.81 1861.2799999999997C218.22 1860.9999999999998 212.83 1860.9999999999998 212.83 1860.9999999999998L212.82000000000002 1860.9999999999998C212.82000000000002 1860.9999999999998 207.44000000000003 1860.9999999999998 203.85000000000002 1861.2799999999997C203.35000000000002 1861.3399999999997 202.25000000000003 1861.3499999999997 201.28000000000003 1862.4399999999998C200.51000000000002 1863.2699999999998 200.26000000000002 1865.1499999999999 200.26000000000002 1865.1499999999999C200.26000000000002 1865.1499999999999 200.00000000000003 1867.37 200.00000000000003 1869.58L200.00000000000003 1871.6699999999998C200.00000000000003 1873.8799999999999 200.26000000000002 1876.1 200.26000000000002 1876.1C200.26000000000002 1876.1 200.51000000000002 1877.98 201.28000000000003 1878.81C202.25000000000003 1879.8999999999999 203.35000000000002 1879.9099999999999 203.85000000000002 1879.97C207.44000000000003 1880.25 212.82000000000002 1880.25 212.82000000000002 1880.25L212.83 1880.25C212.83 1880.25 218.22 1880.25 221.81 1879.97C222.31 1879.91 223.41 1879.9 224.38 1878.81C225.15 1877.98 225.4 1876.1 225.4 1876.1C225.4 1876.1 225.66 1873.8799999999999 225.66 1871.6699999999998ZM209.62 1865.28L218.17000000000002 1870.62L209.62 1875.9699999999998ZM224.34 1865.27C224.37 1865.71 224.43 1866.17 224.46 1866.62C224.54000000000002 1867.6 224.59 1868.6 224.59 1869.58L224.59 1871.6699999999998C224.59 1873.07 224.5 1874.56 224.34 1875.9599999999998C224.26 1876.5399999999997 223.97 1877.6699999999998 223.59 1878.09C223.01 1878.73 222.51 1878.83 221.70000000000002 1878.9099999999999C218.76000000000002 1879.1999999999998 215.79000000000002 1879.1799999999998 212.83 1879.1799999999998L212.82000000000002 1879.1799999999998C209.87000000000003 1879.1799999999998 206.90000000000003 1879.1999999999998 203.95000000000002 1878.9099999999999C203.15 1878.83 202.65 1878.7299999999998 202.07000000000002 1878.09C201.68000000000004 1877.6699999999998 201.40000000000003 1876.54 201.32000000000002 1875.9599999999998C201.16000000000003 1874.5599999999997 201.07000000000002 1873.0699999999997 201.07000000000002 1871.6699999999998L201.07000000000002 1869.58C201.07000000000002 1868.1799999999998 201.16000000000003 1866.6899999999998 201.32000000000002 1865.29C201.40000000000003 1864.71 201.68000000000004 1863.57 202.07000000000002 1863.1599999999999C202.65000000000003 1862.5199999999998 203.15000000000003 1862.4199999999998 203.95000000000002 1862.34C206.9 1862.05 209.87 1862.07 212.82000000000002 1862.07L212.83 1862.07C215.79000000000002 1862.07 218.76000000000002 1862.05 221.70000000000002 1862.34C222.51000000000002 1862.4199999999998 223.01000000000002 1862.52 223.59 1863.1599999999999C223.97 1863.57 224.25 1864.6799999999998 224.34 1865.2699999999998Z " fill="#ffffff" fill-opacity="1" transform="matrix(1,0,0,1,-200,-1861)"></path></svg>