<svg id="SvgjsSvg1025" xmlns="http://www.w3.org/2000/svg" version="1.1" xmlns:xlink="http://www.w3.org/1999/xlink" xmlns:svgjs="http://svgjs.com/svgjs" width="52" height="52" viewBox="0 0 52 52"><title>1474422669_017_209_cam_camera_video_record_2</title><desc>Created with Avocode.</desc><defs id="SvgjsDefs1026"></defs><path id="SvgjsPath1027" d="M526 144L488 144C484.69 144 482 141.31 482 138L482 100C482 96.69 484.69 94 488 94L526 94C529.31 94 532 96.69 532 100L532 138C532 141.31 529.31 144 526 144Z " fill="#ffffff" fill-opacity="1" transform="matrix(1,0,0,1,-481,-93)"></path><path id="SvgjsPath1028" d="M488 145C484.14 145 481 141.86 481 138L481 100C481 96.14 484.14 93 488 93L526 93C529.86 93 533 96.14 533 100L533 138C533 141.86 529.86 145 526 145ZM483 100L483 138C483 140.76 485.24 143 488 143L526 143C528.76 143 531 140.76 531 138L531 100C531 97.24 528.76 95 526 95L488 95C485.24 95 483 97.24 483 100Z " fill="#0a94e3" fill-opacity="1" transform="matrix(1,0,0,1,-481,-93)"></path><path id="SvgjsPath1029" d="M523.93 110.93L516 116.56L516 110C516 108.9 515.1 108 514 108L490 108C488.9 108 488 108.9 488 110L488 128C488 129.1 488.9 130 490 130L514 130C515.1 130 516 129.1 516 128L516 121.44L523.93 127.07C524.79 127.72 526 127.07 526 125.94999999999999L526 112.04999999999998C526 110.92999999999998 524.79 110.27999999999999 523.93 110.92999999999998Z " fill="#c2e4f8" fill-opacity="1" transform="matrix(1,0,0,1,-481,-93)"></path><path id="SvgjsPath1030" d="M490 131C488.35 131 487 129.65 487 128L487 110C487 108.35 488.35 107 490 107L514 107C515.65 107 517 108.35 517 110L517 114.62L523.34 110.12C524.0300000000001 109.61 524.9300000000001 109.53 525.7 109.91000000000001C526.5 110.31000000000002 527 111.13000000000001 527 112.05000000000001L527 125.95000000000002C527 126.87000000000002 526.5 127.69000000000001 525.7 128.09C524.9300000000001 128.47 524.0200000000001 128.39000000000001 523.33 127.87L517 123.38000000000001L517 128C517 129.65 515.65 131 514 131ZM489 110L489 128C489 128.55 489.45 129 490 129L514 129C514.55 129 515 128.55 515 128L515 121.44C515 121.07 515.21 120.73 515.54 120.56C515.87 120.39 516.27 120.41 516.5799999999999 120.63L524.5099999999999 126.25C524.5599999999998 126.29 524.6599999999999 126.37 524.8099999999998 126.3C524.8599999999998 126.27 524.9999999999999 126.17999999999999 524.9999999999999 125.95L524.9999999999999 112.05C524.9999999999999 111.82 524.8599999999999 111.73 524.8099999999998 111.7C524.6599999999999 111.63000000000001 524.5599999999998 111.71000000000001 524.5299999999999 111.73C524.5199999999999 111.74000000000001 524.5099999999999 111.74000000000001 524.5099999999999 111.75L516.5799999999999 117.37C516.27 117.59 515.8699999999999 117.62 515.54 117.44C515.2099999999999 117.27 515 116.92999999999999 515 116.56L515 110C515 109.45 514.55 109 514 109L490 109C489.45 109 489 109.45 489 110Z " fill="#0a94e3" fill-opacity="1" transform="matrix(1,0,0,1,-481,-93)"></path></svg>