<svg id="SvgjsSvg1107" xmlns="http://www.w3.org/2000/svg" version="1.1" xmlns:xlink="http://www.w3.org/1999/xlink" xmlns:svgjs="http://svgjs.com/svgjs" width="35" height="28" viewBox="0 0 35 28"><title>Shape</title><desc>Created with Avocode.</desc><defs id="SvgjsDefs1108"></defs><path id="SvgjsPath1109" d="M220.93 459.81C220.51000000000002 458.06 218.68 457.06 217.06 457H205.12L205 457.55C214.32 459.82 220.99 465.8 223.53 472.37Z " fill="#efc75e" fill-opacity="1" transform="matrix(1,0,0,1,-205,-454)"></path><path id="SvgjsPath1110" d="M231.84 454L224.76 472.76L223.98999999999998 469.06C222.67999999999998 464.79 218.57999999999998 460.15 213.99999999999997 457.85L220.47999999999996 481.58000000000004H228.11999999999995L239.46999999999994 454.00000000000006Z " fill="#2394bc" fill-opacity="1" transform="matrix(1,0,0,1,-205,-454)"></path><path id="SvgjsPath1111" d="M221.93 456.81C221.51000000000002 455.06 219.68 454.06 218.06 454H206.12L206 454.55C215.32 456.82 221.99 462.8 224.53 469.37Z " fill="#ffb300" fill-opacity="1" transform="matrix(1,0,0,1,-205,-454)"></path></svg>