<svg id="SvgjsSvg1020" xmlns="http://www.w3.org/2000/svg" version="1.1" xmlns:xlink="http://www.w3.org/1999/xlink" xmlns:svgjs="http://svgjs.com/svgjs" width="43" height="26" viewBox="0 0 43 26"><title>Fill 3</title><desc>Created with Avocode.</desc><defs id="SvgjsDefs1021"></defs><path id="SvgjsPath1022" d="M722 475.27L723.33 467H725.46L724.13 475.27H722 " fill="#ffffff" fill-opacity="1" transform="matrix(1,0,0,1,-704,-453)"></path><path id="SvgjsPath1023" d="M731.39 467.35C730.97 467.18 730.31 467 729.48 467C727.38 467 725.89 468.12 725.88 469.73C725.87 470.92 726.9399999999999 471.58000000000004 727.75 471.97C728.58 472.38000000000005 728.86 472.64000000000004 728.85 473C728.85 473.55 728.19 473.81 727.58 473.81C726.73 473.81 726.2700000000001 473.68 725.57 473.37L725.3000000000001 473.24L725.0000000000001 475.09000000000003C725.5000000000001 475.32000000000005 726.4200000000001 475.52000000000004 727.3700000000001 475.53000000000003C729.6100000000001 475.53000000000003 731.0600000000002 474.42 731.0800000000002 472.71000000000004C731.0900000000001 471.77000000000004 730.5200000000002 471.05 729.2900000000002 470.46000000000004C728.5500000000002 470.08000000000004 728.0900000000001 469.83000000000004 728.1000000000001 469.44000000000005C728.1000000000001 469.09000000000003 728.4800000000001 468.7300000000001 729.3200000000002 468.7300000000001C730.0100000000002 468.7200000000001 730.5200000000002 468.88000000000005 730.9100000000002 469.0400000000001L731.1000000000003 469.1400000000001L731.3900000000002 467.3500000000001 " fill="#ffffff" fill-opacity="1" transform="matrix(1,0,0,1,-704,-453)"></path><path id="SvgjsPath1024" d="M735.15 470.02C735.13 470.03999999999996 735.3199999999999 469.53999999999996 735.43 469.22999999999996L735.5699999999999 469.93999999999994C735.5699999999999 469.93999999999994 735.9799999999999 471.90999999999997 736.0699999999999 472.3299999999999C735.7299999999999 472.3299999999999 734.7099999999999 472.3299999999999 734.3 472.3299999999999C734.4699999999999 471.8499999999999 735.15 470.0199999999999 735.15 470.0199999999999ZM735.28 467C734.77 467 734.39 467.15 734.16 467.69L731 475.26H733.24C733.24 475.26 733.6 474.24 733.6800000000001 474.02C733.9300000000001 474.02 736.1 474.02 736.4100000000001 474.02C736.4800000000001 474.31 736.6700000000001 475.26 736.6700000000001 475.26H738.6500000000001L736.9300000000001 467Z " fill="#ffffff" fill-opacity="1" transform="matrix(1,0,0,1,-704,-453)"></path><path id="SvgjsPath1025" d="M720.26 467L718.17 472.64L717.9499999999999 471.49C717.56 470.17 716.3499999999999 468.74 714.9999999999999 468.02L716.9099999999999 475.25H719.1599999999999L722.5199999999999 467H720.2599999999999 " fill="#ffffff" fill-opacity="1" transform="matrix(1,0,0,1,-704,-453)"></path><path id="SvgjsPath1026" d="M716.46 467H713.0300000000001L713.0000000000001 467.17C715.6700000000001 467.86 717.4400000000002 469.51 718.1700000000001 471.5L717.4300000000001 467.7C717.3000000000001 467.17 716.9300000000001 467.02 716.46 467 " fill="#ffb300" fill-opacity="1" transform="matrix(1,0,0,1,-704,-453)"></path><path id="SvgjsPath1027" d="M704 457C704 454.79086 705.79086 453 708 453H743C745.20914 453 747 454.79086 747 457V475C747 477.20914 745.20914 479 743 479H708C705.79086 479 704 477.20914 704 475Z " fill="#2394bc" fill-opacity="1" transform="matrix(1,0,0,1,-704,-453)"></path><path id="SvgjsPath1028" d="M722 470.27L723.33 462H725.46L724.13 470.27H722 " fill="#fafafa" fill-opacity="1" transform="matrix(1,0,0,1,-704,-453)"></path><path id="SvgjsPath1029" d="M731.39 462.35C730.97 462.18 730.31 462 729.48 462C727.38 462 725.89 463.12 725.88 464.73C725.87 465.92 726.9399999999999 466.58000000000004 727.75 466.97C728.58 467.38000000000005 728.86 467.64000000000004 728.85 468C728.85 468.55 728.19 468.81 727.58 468.81C726.73 468.81 726.2700000000001 468.68 725.57 468.37L725.3000000000001 468.24L725.0000000000001 470.09000000000003C725.5000000000001 470.32000000000005 726.4200000000001 470.52000000000004 727.3700000000001 470.53000000000003C729.6100000000001 470.53000000000003 731.0600000000002 469.42 731.0800000000002 467.71000000000004C731.0900000000001 466.77000000000004 730.5200000000002 466.05 729.2900000000002 465.46000000000004C728.5500000000002 465.08000000000004 728.0900000000001 464.83000000000004 728.1000000000001 464.44000000000005C728.1000000000001 464.09000000000003 728.4800000000001 463.7300000000001 729.3200000000002 463.7300000000001C730.0100000000002 463.7200000000001 730.5200000000002 463.88000000000005 730.9100000000002 464.0400000000001L731.1000000000003 464.1400000000001L731.3900000000002 462.3500000000001 " fill="#fafafa" fill-opacity="1" transform="matrix(1,0,0,1,-704,-453)"></path><path id="SvgjsPath1030" d="M735.15 465.02C735.13 465.03999999999996 735.3199999999999 464.53999999999996 735.43 464.22999999999996L735.5699999999999 464.93999999999994C735.5699999999999 464.93999999999994 735.9799999999999 466.90999999999997 736.0699999999999 467.3299999999999C735.7299999999999 467.3299999999999 734.7099999999999 467.3299999999999 734.3 467.3299999999999C734.4699999999999 466.8499999999999 735.15 465.0199999999999 735.15 465.0199999999999ZM735.28 462C734.77 462 734.39 462.15 734.16 462.69L731 470.26H733.24C733.24 470.26 733.6 469.24 733.6800000000001 469.02C733.9300000000001 469.02 736.1 469.02 736.4100000000001 469.02C736.4800000000001 469.31 736.6700000000001 470.26 736.6700000000001 470.26H738.6500000000001L736.9300000000001 462Z " fill="#fafafa" fill-opacity="1" transform="matrix(1,0,0,1,-704,-453)"></path><path id="SvgjsPath1031" d="M720.26 462L718.17 467.64L717.9499999999999 466.49C717.56 465.17 716.3499999999999 463.74 714.9999999999999 463.02L716.9099999999999 470.25H719.1599999999999L722.5199999999999 462H720.2599999999999 " fill="#fafafa" fill-opacity="1" transform="matrix(1,0,0,1,-704,-453)"></path><path id="SvgjsPath1032" d="M716.46 462H713.0300000000001L713.0000000000001 462.17C715.6700000000001 462.86 717.4400000000002 464.51 718.1700000000001 466.5L717.4300000000001 462.7C717.3000000000001 462.17 716.9300000000001 462.02 716.46 462 " fill="#ffb300" fill-opacity="1" transform="matrix(1,0,0,1,-704,-453)"></path></svg>