<svg xmlns="http://www.w3.org/2000/svg" width="32" height="32" viewBox="0 0 32 32"><g fill="none"><path fill="#FFF" d="M15.988 0c-8.83 0-15.988 7.158-15.988 15.988 0 8.83 7.158 15.988 15.988 15.988 8.83 0 15.987-7.158 15.987-15.988 0-8.83-7.158-15.988-15.987-15.988z"/><path fill="#F99400" fill-rule="nonzero" d="M19.132 17.233c-.368-.185-1.189-.433-2.166-.498-.977-.065-2.231 0-2.231 0v4.232s1.309.028 2.185-.037c.875-.065 1.779-.286 2.231-.535.452-.249.996-.636.996-1.604 0-.968-.645-1.374-1.014-1.558zm-2.757-2.462c.72-.028 1.485-.194 2.037-.498.553-.304.867-.783.849-1.503-.019-.719-.498-1.328-1.309-1.577-.812-.249-1.355-.267-1.973-.277-.618-.009-1.245.046-1.245.046v3.808s.922.028 1.641 0zM15.988 0c-8.83 0-15.988 7.158-15.988 15.988 0 8.83 7.158 15.988 15.988 15.988 8.83 0 15.987-7.158 15.987-15.988 0-8.83-7.158-15.988-15.987-15.988zm6.51 22.101c-1.19.83-2.462.978-3.024 1.051-.278.037-.753.075-1.263.105v3.205h-1.973v-3.153h-1.503v3.153h-1.973v-3.153h-3.882l.406-2.37h1.18c.397 0 .562-.037.728-.193.166-.157.203-.396.203-.59v-8.164c0-.511-.042-.65-.277-.912-.235-.263-.788-.298-1.1-.298h-1.141v-2.049h3.882v-3.163h1.973v3.163h1.503v-3.163h1.973v3.2c1.471.091 2.566.371 3.522 1.078 1.236.913 1.171 2.499 1.143 2.877-.027.378-.193 1.107-.526 1.576-.332.47-1.143.941-1.143.941s.959.203 1.632.71c.673.507 1.171 1.401 1.143 2.711-.027 1.309-.294 2.609-1.484 3.439z"/></g></svg>