<svg xmlns="http://www.w3.org/2000/svg" width="20" height="20" viewBox="0 0 20 20"><g fill="none"><path fill="#FFF" d="M10 0c-5.523 0-10 4.477-10 10s4.477 10 10 10 10-4.477 10-10-4.477-10-10-10z"/><path fill="#F99400" fill-rule="nonzero" d="M11.762 10.693c-.207-.104-.669-.244-1.219-.28-.55-.036-1.255 0-1.255 0v2.38s.736.016 1.229-.021c.492-.036 1.001-.161 1.255-.301.254-.14.56-.358.56-.902 0-.545-.363-.773-.571-.876zm-1.551-1.385c.405-.016.835-.109 1.146-.28.311-.171.488-.441.477-.845-.011-.405-.28-.747-.736-.887-.457-.14-.762-.15-1.11-.156-.347-.005-.7.026-.7.026v2.142s.519.016.923 0zM9.993 1c-4.967 0-8.993 4.026-8.993 8.993 0 4.967 4.026 8.993 8.993 8.993 4.967 0 8.993-4.026 8.993-8.993 0-4.967-4.026-8.993-8.993-8.993zm3.662 12.432c-.669.467-1.385.55-1.701.591-.156.021-.424.042-.71.059v1.803h-1.11v-1.774h-.845v1.774h-1.11v-1.774h-2.183l.228-1.333h.664c.223 0 .316-.021.41-.109.093-.088.114-.223.114-.332v-4.592c0-.288-.023-.366-.156-.513-.132-.148-.443-.167-.619-.167h-.642v-1.152h2.183v-1.779h1.11v1.779h.845v-1.779h1.11v1.8c.827.051 1.443.209 1.981.606.695.513.659 1.405.643 1.618-.015.213-.109.622-.296.887s-.643.529-.643.529.539.114.918.399c.378.285.659.788.643 1.525-.015.736-.166 1.468-.835 1.935z"/></g></svg>