<?xml version="1.0" encoding="UTF-8"?>
<svg width="53px" height="40px" viewBox="0 0 53 40" version="1.1" xmlns="http://www.w3.org/2000/svg" xmlns:xlink="http://www.w3.org/1999/xlink">
    <!-- Generator: Sketch 44.1 (41455) - http://www.bohemiancoding.com/sketch -->
    <title>Shape</title>
    <desc>Created with Sketch.</desc>
    <defs></defs>
    <g id="Settings---Security" stroke="none" stroke-width="1" fill="none" fill-rule="evenodd">
        <g id="Settings---Security---3.-2FA---Check-email" transform="translate(-161.000000, -356.000000)" fill-rule="nonzero" fill="#5B5B5B">
            <g id="Check-email" transform="translate(0.000000, -46.000000)">
                <g id="Group-3" transform="translate(23.000000, 186.000000)">
                    <g id="Group-4" transform="translate(35.000000, 32.000000)">
                        <path d="M104.766667,224 L154.233333,224 C155.208533,224 156,223.185455 156,222.181818 L156,185.818182 C156,185.647273 155.947,185.494545 155.9046,185.338182 C155.894,185.301818 155.9152,185.261818 155.901067,185.225455 C155.897533,185.210909 155.879867,185.203636 155.8728,185.189091 C155.759733,184.876364 155.561867,184.621818 155.311,184.418182 C155.254467,184.374545 155.205,184.341818 155.144933,184.301818 C154.879933,184.127273 154.576067,184 154.233333,184 L104.766667,184 C104.423933,184 104.120067,184.127273 103.851533,184.301818 C103.791467,184.338182 103.738467,184.370909 103.681933,184.418182 C103.4346,184.621818 103.2332,184.876364 103.120133,185.189091 C103.113067,185.203636 103.098933,185.210909 103.091867,185.225455 C103.077733,185.261818 103.098933,185.301818 103.088333,185.338182 C103.053,185.494545 103,185.647273 103,185.818182 L103,222.181818 C103,223.185455 103.791467,224 104.766667,224 Z M106.533333,220.363636 L106.533333,189.56 L128.4082,207.250909 C128.729733,207.509091 129.114867,207.636364 129.5,207.636364 C129.885133,207.636364 130.270267,207.509091 130.5918,207.250909 L152.466667,189.56 L152.466667,220.363636 L106.533333,220.363636 Z M149.127667,187.636364 L129.5,203.505455 L109.872333,187.636364 L149.127667,187.636364 Z" id="Shape"></path>
                    </g>
                </g>
            </g>
        </g>
    </g>
</svg>