<svg xmlns="http://www.w3.org/2000/svg" width="20" height="20" viewBox="0 0 20 20"><g fill="none"><path fill="#FFF" d="M10 0c-5.523 0-10 4.477-10 10s4.477 10 10 10 10-4.477 10-10-4.477-10-10-10z"/><path fill="#626790" fill-rule="nonzero" d="M10 1c-4.971 0-9 4.029-9 9s4.029 9 9 9 9-4.029 9-9-4.029-9-9-9zm-.117 14.963l-3.557-5.031 3.557 2.082v2.949zm0-3.686l-3.581-2.097 3.581-1.569v3.666zm0-3.918l-3.465 1.518 3.465-5.822v4.305zm.231-4.306l3.514 5.846-3.514-1.539v-4.306zm0 11.91v-2.949l3.557-2.082-3.557 5.031zm0-3.686v-3.666l3.583 1.57-3.583 2.096z"/></g></svg>