<svg xmlns="http://www.w3.org/2000/svg" width="32" height="32" viewBox="0 0 32 32"><g fill="none"><path fill="#FFF" d="M16 0c-8.837 0-16 7.163-16 16s7.163 16 16 16 16-7.163 16-16-7.163-16-16-16z"/><path fill="#626790" fill-rule="nonzero" d="M16 0c-8.837 0-16 7.163-16 16s7.163 16 16 16 16-7.163 16-16-7.163-16-16-16zm-.207 26.6l-6.323-8.944 6.323 3.702v5.242zm0-6.553l-6.366-3.729 6.366-2.788v6.517zm0-6.965l-6.161 2.698 6.161-10.351v7.653zm.41-7.656l6.247 10.392-6.247-2.737v-7.656zm0 21.174v-5.242l6.323-3.702-6.323 8.944zm0-6.553v-6.517l6.37 2.79-6.37 3.727z"/></g></svg>