<svg xmlns="http://www.w3.org/2000/svg" width="32" height="32" viewBox="0 0 32 32"><g fill="none"><path fill="#FFF" d="M16 0c-8.837 0-16 7.163-16 16s7.164 16 16 16c8.837 0 16-7.163 16-16s-7.163-16-16-16z"/><path fill="#172A9D" d="M16 0c8.837 0 16 7.163 16 16s-7.163 16-16 16-16-7.163-16-16 7.164-16 16-16zm1.637 22.549c-2.524 0-4.706-1.428-5.792-3.52h5.792v-2.011h-6.456c-.05-.332-.08-.664-.08-1.006 0-.342.03-.674.08-1.006h6.456v-2.011h-5.792c1.086-2.092 3.278-3.52 5.792-3.52 1.619 0 3.107.593 4.254 1.579l1.78-1.78c-1.599-1.438-3.721-2.313-6.034-2.313-3.942 0-7.281 2.524-8.528 6.034h-3.54v2.011h3.077c-.04.332-.06.664-.06 1.006 0 .342.02.674.06 1.006h-3.077v2.011h3.54c1.247 3.51 4.586 6.034 8.528 6.034 2.323 0 4.435-.875 6.034-2.313l-1.79-1.78c-1.136.985-2.615 1.579-4.244 1.579z"/></g></svg>