<svg xmlns="http://www.w3.org/2000/svg" width="20" height="20" viewBox="0 0 20 20"><g fill="none"><path fill="#FFF" d="M10 0c-5.523 0-10 4.477-10 10s4.477 10 10 10 10-4.477 10-10-4.477-10-10-10z"/><path fill="#172A9D" d="M10 1c4.971 0 9 4.029 9 9s-4.029 9-9 9-9-4.029-9-9 4.029-9 9-9zm.921 12.684c-1.42 0-2.647-.803-3.258-1.98h3.258v-1.131h-3.632c-.028-.187-.045-.373-.045-.566 0-.192.017-.379.045-.566h3.632v-1.131h-3.258c.611-1.177 1.844-1.98 3.258-1.98.911 0 1.748.334 2.393.888l1.001-1.001c-.899-.809-2.093-1.301-3.394-1.301-2.217 0-4.095 1.42-4.797 3.394h-1.991v1.131h1.731c-.023.187-.034.373-.034.566 0 .192.011.379.034.566h-1.731v1.131h1.991c.701 1.974 2.579 3.394 4.797 3.394 1.307 0 2.495-.492 3.394-1.301l-1.007-1.001c-.639.554-1.471.888-2.387.888z"/></g></svg>