<svg xmlns="http://www.w3.org/2000/svg" width="186" height="22" viewBox="0 0 186 22">
  <g fill="#FFF" fill-rule="evenodd">
    <path d="M52.7315165,11.0472426 C52.7315165,5.01257421 55.5672493,1.99528526 61.2388002,1.99528526 C62.9852228,1.99528526 64.8180746,2.41891609 66.7374104,3.26619045 L66.7374104,6.92328497 C65.0774443,5.81664091 63.4347941,5.26332718 61.8094107,5.26332718 C60.2186098,5.26332718 59.0298498,5.70857182 58.2430951,6.59907446 C57.4563403,7.48957711 57.0629688,8.972285 57.0629688,11.0472426 C57.0629688,13.1222002 57.4649858,14.5919398 58.2690319,15.4565055 C59.073078,16.3210712 60.3137111,16.7533475 61.9909685,16.7533475 C62.6826211,16.7533475 63.4347819,16.6236646 64.2474737,16.3642949 C65.0601654,16.1049252 65.890136,15.6985855 66.7374104,15.1452634 L66.7374104,18.8023579 C66.0284665,19.1654755 65.1639138,19.4594235 64.1437263,19.6842105 C63.1235388,19.9089976 62.1552398,20.0213895 61.2388002,20.0213895 C55.5672493,20.0213895 52.7315165,17.0300371 52.7315165,11.0472426 Z M70.7316838,18.309558 C69.6250397,17.1337487 69.071726,15.3873522 69.071726,13.0703162 C69.071726,10.6495323 69.620717,8.88584477 70.7187154,7.77920071 C71.8167138,6.67255665 73.4809778,6.11924291 75.7115572,6.11924291 C77.9421366,6.11924291 79.6193689,6.68552494 80.7433043,7.81810597 C81.8672396,8.950687 82.4291989,10.7014062 82.4291989,13.0703162 C82.4291989,15.3527696 81.8499486,17.0905205 80.6914306,18.2836211 C79.5329126,19.4767218 77.8729714,20.0732631 75.7115572,20.0732631 C73.4982691,20.0732631 71.8383279,19.4853673 70.7316838,18.309558 Z M77.864315,15.9882107 C78.3484717,15.3224952 78.5905465,14.3498734 78.5905465,13.0703162 C78.5905465,11.6697198 78.3527945,10.6711614 77.8772834,10.0746111 C77.4017723,9.47806078 76.6798707,9.1797901 75.7115572,9.1797901 C74.708661,9.1797901 73.9867595,9.47806078 73.545831,10.0746111 C73.1049025,10.6711614 72.8844416,11.6697198 72.8844416,13.0703162 C72.8844416,14.4017473 73.113548,15.3873374 73.5717678,16.027116 C74.0299877,16.6668946 74.7432436,16.9867791 75.7115572,16.9867791 C76.6625794,16.9867791 77.3801582,16.6539263 77.864315,15.9882107 Z M85.1006935,1.78779054 L89.0949669,1.78779054 L89.0949669,4.7705272 L85.1006935,4.7705272 L85.1006935,1.78779054 Z M85.178504,6.74172709 L89.0430932,6.74172709 L89.0690301,19.6842105 L85.178504,19.6842105 L85.178504,6.74172709 Z M95.6051139,6.66391657 C96.988419,6.35267292 98.2247294,6.19705344 99.3140821,6.19705344 C101.164253,6.19705344 102.556183,6.56016557 103.489913,7.28640074 C104.423644,8.01263591 104.890503,9.20571864 104.890503,10.8656847 L104.890503,19.6842105 L101.025914,19.6842105 L101.025914,11.64379 C101.025914,10.1394457 100.178652,9.38728482 98.4841032,9.38728482 C98.1036943,9.38728482 97.7146456,9.43051246 97.3169454,9.51696903 C96.9192452,9.60342559 96.6080062,9.70717192 96.3832191,9.82821111 L96.3832191,19.6842105 L92.5186299,19.6842105 L92.5186299,7.67545335 C93.1929911,7.31233576 94.2218088,6.97516021 95.6051139,6.66391657 Z M108.44385,2.38433787 L120.219176,2.38433787 L120.219176,5.62644294 L112.645618,5.62644294 L112.645618,9.75040059 L119.181702,9.75040059 L119.181702,13.0443793 L112.645618,13.0443793 L112.645618,19.6842105 L108.44385,19.6842105 L108.44385,2.38433787 Z M132.74667,7.16968496 C133.922479,7.83540053 134.510375,9.03280602 134.510375,10.7619374 L134.484438,16.9608423 C134.467147,18.050195 133.922478,18.8412607 132.850417,19.3340632 C131.778356,19.8268656 130.213515,20.0732631 128.155849,20.0732631 C124.317177,20.0732631 122.39787,18.577587 122.39787,15.5861897 C122.39787,14.3239238 122.791242,13.3383337 123.577996,12.6293899 C124.364751,11.920446 125.53622,11.5659794 127.092438,11.5659794 C127.732217,11.5659794 128.371986,11.6481119 129.011765,11.8123794 C129.651543,11.9766469 130.204857,12.1884623 130.671722,12.447832 L130.671722,11.6178531 C130.671722,10.1135088 129.703423,9.36134798 127.766796,9.36134798 C127.02327,9.36134798 126.258141,9.49535365 125.471386,9.76336901 C124.684631,10.0313844 124.05783,10.3555916 123.590965,10.7360005 L123.590965,7.31233758 C124.05783,7.00109394 124.771086,6.7330826 125.730754,6.50829552 C126.690422,6.28350845 127.723563,6.17111659 128.830207,6.17111659 C130.265386,6.17111659 131.57086,6.50396939 132.74667,7.16968496 Z M130.152986,17.168337 C130.498812,17.0472978 130.671722,16.805223 130.671722,16.4421055 L130.671722,14.4190319 C130.066526,14.2115361 129.400821,14.1077898 128.674586,14.1077898 C127.827311,14.1077898 127.209156,14.2331499 126.820102,14.483874 C126.431047,14.734598 126.236523,15.1279695 126.236523,15.6640002 C126.236523,16.1654483 126.439692,16.5717881 126.846038,16.8830317 C127.252384,17.1942754 127.732211,17.3498949 128.285533,17.3498949 C129.184681,17.3498949 129.807159,17.2893762 130.152986,17.168337 Z M137.934038,19.6842105 L137.934038,1.60623266 L141.77269,1.60623266 L141.77269,19.6842105 L137.934038,19.6842105 Z M147.867848,19.2692211 C146.830369,18.767773 146.004721,18.0112894 145.390879,16.9997475 C144.777038,15.9882057 144.470122,14.7562181 144.470122,13.3037477 C144.470122,10.9694204 145.092599,9.20141014 146.337574,7.99966385 C147.582549,6.79791757 149.24249,6.19705344 151.317447,6.19705344 C152.043683,6.19705344 152.778552,6.27054042 153.522079,6.41751658 C154.265605,6.56449274 154.922665,6.76766263 155.493279,7.02703233 L155.493279,10.3469479 C154.784335,10.0357043 154.153211,9.79795229 153.599889,9.63368481 C153.046567,9.46941733 152.493254,9.38728482 151.939932,9.38728482 C150.798705,9.38728482 149.908216,9.66826445 149.268437,10.2302321 C148.628658,10.7921998 148.308774,11.6697208 148.308774,12.8628215 C148.308774,14.1942526 148.607045,15.1798427 149.203595,15.8196213 C149.800145,16.4593999 150.772767,16.7792844 152.121489,16.7792844 C153.141677,16.7792844 154.274241,16.4334633 155.519216,15.7418108 L155.519216,19.0357895 C154.896728,19.3643245 154.252637,19.610722 153.586921,19.7749895 C152.921205,19.9392569 152.173367,20.0213895 151.343384,20.0213895 C150.063827,20.0213895 148.905326,19.7706692 147.867848,19.2692211 Z M159.150373,18.309558 C158.043729,17.1337487 157.490415,15.3873522 157.490415,13.0703162 C157.490415,10.6495323 158.039406,8.88584477 159.137405,7.77920071 C160.235403,6.67255665 161.899667,6.11924291 164.130247,6.11924291 C166.360826,6.11924291 168.038058,6.68552494 169.161994,7.81810597 C170.285929,8.950687 170.847888,10.7014062 170.847888,13.0703162 C170.847888,15.3527696 170.268638,17.0905205 169.11012,18.2836211 C167.951602,19.4767218 166.291661,20.0732631 164.130247,20.0732631 C161.916959,20.0732631 160.257017,19.4853673 159.150373,18.309558 Z M166.283004,15.9882107 C166.767161,15.3224952 167.009236,14.3498734 167.009236,13.0703162 C167.009236,11.6697198 166.771484,10.6711614 166.295973,10.0746111 C165.820462,9.47806078 165.09856,9.1797901 164.130247,9.1797901 C163.12735,9.1797901 162.405449,9.47806078 161.96452,10.0746111 C161.523592,10.6711614 161.303131,11.6697198 161.303131,13.0703162 C161.303131,14.4017473 161.532238,15.3873374 161.990457,16.027116 C162.448677,16.6668946 163.161933,16.9867791 164.130247,16.9867791 C165.081269,16.9867791 165.798848,16.6539263 166.283004,15.9882107 Z M176.605867,6.66391657 C177.989172,6.35267292 179.225482,6.19705344 180.314835,6.19705344 C182.165006,6.19705344 183.556936,6.56016557 184.490666,7.28640074 C185.424397,8.01263591 185.891256,9.20571864 185.891256,10.8656847 L185.891256,19.6842105 L182.026667,19.6842105 L182.026667,11.64379 C182.026667,10.1394457 181.179405,9.38728482 179.484856,9.38728482 C179.104447,9.38728482 178.715399,9.43051246 178.317698,9.51696903 C177.919998,9.60342559 177.608759,9.70717192 177.383972,9.82821111 L177.383972,19.6842105 L173.519383,19.6842105 L173.519383,7.67545335 C174.193744,7.31233576 175.222562,6.97516021 176.605867,6.66391657 Z"/>
    <path fill-rule="nonzero" d="M43.4296085,0.251571235 C42.9014754,1.20871973 42.0212537,2.72889676 40.7302618,4.81210232 C39.5566327,6.78270217 38.676411,8.30287919 38.0895965,9.42893625 C34.2753021,10.7802047 30.3436449,12.3003817 26.2359433,13.9331645 C26.3533062,14.2709816 26.8814393,14.7777073 27.7616611,15.5659472 C28.5832014,16.2978843 29.1113344,16.8609128 29.1700159,17.2550328 C28.2311127,17.5365471 26.9401207,18.0432727 25.3557216,18.6626041 C23.6539595,19.3382384 22.3629676,19.844964 21.6001087,20.0701754 C19.1941692,19.0004212 16.7882297,18.0995756 14.2649273,17.2550328 C14.4409717,16.80461 14.8517418,16.2978843 15.6146007,15.6222501 C16.4948224,14.8340101 17.081637,14.2709816 17.3163628,13.9331645 C15.8493265,13.3701359 13.8541571,12.6381989 11.3895362,11.6810504 C8.45546364,10.6112962 6.4602943,9.82305622 5.46270963,9.42893625 C1.70709676,3.17931958 -0.112028225,0.195268382 0.00533467737,0.364176941 C0.533467737,0.476782647 2.29391127,0.364176941 5.28666528,0.13896553 C8.10337493,-0.0862458818 9.92249992,-0.0299430289 10.8027217,0.251571235 C11.1548104,0.364176941 11.624262,0.814599764 12.269758,1.6028397 C12.4458023,1.82805112 12.6805281,2.16586823 12.9739354,2.61629106 C13.2673426,3.01041102 13.443387,3.29192529 13.5607499,3.46083385 C14.3236087,4.36167949 15.7319636,6.05076508 17.7271329,8.47178775 C19.4875764,10.5549933 20.7785684,12.187776 21.6587901,13.3138331 C22.7737377,11.9625646 24.5928627,9.76675337 27.0574836,6.78270217 C29.4047417,3.96755952 31.1651852,1.77174826 32.4561771,0.251571235 L43.4296085,0.251571235 L43.4296085,0.251571235 Z M21.5414272,11.9062618 C21.1306571,10.1045705 20.0157095,8.75330202 18.1965845,7.85245637 C21.24802,8.35918205 23.595278,8.30287919 25.1209958,7.73985066 C23.7713224,8.5280906 22.5390119,9.93566193 21.5414272,11.9062618 Z" transform="translate(0 .596)"/>
  </g>
</svg>
