<?xml version="1.0" encoding="UTF-8"?>
<svg width="38px" height="18px" viewBox="0 0 38 18" version="1.1" xmlns="http://www.w3.org/2000/svg" xmlns:xlink="http://www.w3.org/1999/xlink">
    <!-- Generator: Sketch 43.2 (39069) - http://www.bohemiancoding.com/sketch -->
    <title>Logo</title>
    <desc>Created with Sketch.</desc>
    <defs></defs>
    <g id="Symbols" stroke="none" stroke-width="1" fill="none" fill-rule="evenodd">
        <g id="nav---mobile" transform="translate(-11.000000, -19.000000)" fill-rule="nonzero" fill="#FFFFFF">
            <g id="Logo" transform="translate(11.000000, 19.000000)">
                <g id="noun_575726_cc" transform="translate(0.000000, 0.515152)">
                    <path d="M37.5073892,0.217266067 C37.0512742,1.04389432 36.2910827,2.35677448 35.1761352,4.15590655 C34.1625464,5.85778823 33.4023549,7.17066839 32.8955606,8.14317222 C29.6013973,9.3101768 26.2058751,10.623057 22.6583147,12.0331875 C22.7596736,12.3249387 23.2157885,12.7625654 23.97598,13.443318 C24.6854921,14.0754455 25.141607,14.5616974 25.1922864,14.9020738 C24.3814155,15.1451997 23.2664679,15.5828265 21.8981232,16.1177036 C20.4284195,16.7012058 19.313472,17.1388326 18.6546393,17.3333333 C16.5767825,16.4094547 14.4989256,15.6314516 12.3197099,14.9020738 C12.4717482,14.5130722 12.8265043,14.0754455 13.4853369,13.4919432 C14.2455285,12.8111906 14.7523228,12.3249387 14.9550406,12.0331875 C13.6880547,11.5469356 11.9649539,10.9148081 9.83641762,10.0881799 C7.30244587,9.16430123 5.57934508,8.48354855 4.71779468,8.14317222 C1.47431084,2.745776 -0.0967516487,0.168640876 0.00460722137,0.314516449 C0.460722137,0.411766831 1.98110519,0.314516449 4.56575638,0.120015685 C6.99836926,-0.0744850797 8.56943175,-0.0258598886 9.32962327,0.217266067 C9.63369988,0.314516449 10.0391354,0.703517978 10.5966091,1.38427065 C10.7486475,1.57877142 10.9513652,1.87052256 11.2047624,2.25952409 C11.4581595,2.59990043 11.6101978,2.84302639 11.7115567,2.98890196 C12.3703894,3.76690502 13.5866958,5.22566075 15.3097966,7.31654397 C16.8301797,9.11567604 17.9451272,10.5258066 18.7053188,11.4983104 C19.668228,10.3313058 21.2392905,8.43492336 23.3678268,5.85778823 C25.3950042,3.42652868 26.9153872,1.53014623 28.0303348,0.217266067 L37.5073892,0.217266067 L37.5073892,0.217266067 Z M18.6039599,10.2826806 C18.2492038,8.72667451 17.2862946,7.55966992 15.7152321,6.78166687 C18.3505627,7.21929358 20.3777401,7.17066839 21.6954054,6.68441648 C20.5297784,7.36516916 19.4655103,8.58079894 18.6039599,10.2826806 Z" id="Shape"></path>
                </g>
            </g>
        </g>
    </g>
</svg>