<svg xmlns="http://www.w3.org/2000/svg" width="16" height="16" viewBox="0 0 16 16"><path fill="#A5ADB7" d="M14.113 8.784c.033-.256.058-.512.058-.784s-.025-.528-.058-.784l1.735-1.32c.156-.12.197-.336.099-.512l-1.645-2.768c-.099-.176-.321-.24-.502-.176l-2.048.8c-.428-.32-.888-.584-1.39-.784l-.313-2.12c-.025-.192-.197-.336-.403-.336h-3.29c-.206 0-.378.144-.403.336l-.313 2.12c-.502.2-.962.472-1.39.784l-2.048-.8c-.189-.072-.403 0-.502.176l-1.645 2.768c-.107.176-.058.392.099.512l1.735 1.32c-.033.256-.058.52-.058.784s.025.528.058.784l-1.735 1.32c-.156.12-.197.336-.099.512l1.645 2.768c.099.176.321.24.502.176l2.048-.8c.428.32.888.584 1.39.784l.313 2.12c.025.192.197.336.403.336h3.29c.206 0 .378-.144.403-.336l.313-2.12c.502-.2.962-.472 1.39-.784l2.048.8c.189.072.403 0 .502-.176l1.645-2.768c.099-.176.058-.392-.099-.512l-1.735-1.32zm-6.111 2.016c-1.587 0-2.879-1.256-2.879-2.8 0-1.544 1.291-2.8 2.879-2.8 1.587 0 2.879 1.256 2.879 2.8 0 1.544-1.291 2.8-2.879 2.8z"/></svg>