<svg xmlns="http://www.w3.org/2000/svg" width="16" height="16" viewBox="0 0 16 16"><path d="M6.823 8.674h-6.105c-.272 0-.492.221-.492.492v6.106c0 .272.221.492.492.492h6.105c.272 0 .492-.221.492-.492v-6.106c0-.272-.221-.492-.492-.492zm.492-8.171c0-.272-.221-.492-.492-.492h-6.105c-.272 0-.492.221-.492.492v6.105c0 .272.221.492.492.492h6.105c.272 0 .492-.221.492-.492v-6.105zm8.662 0c0-.272-.221-.492-.492-.492h-6.105c-.272 0-.492.221-.492.492v6.105c0 .272.221.492.492.492h6.105c.272 0 .492-.221.492-.492v-6.105zm-.492 8.171h-6.105c-.272 0-.492.221-.492.492v6.106c0 .272.221.492.492.492h6.105c.272 0 .492-.221.492-.492v-6.106c0-.272-.22-.492-.492-.492z" fill="#A5ADB7"/></svg>