<?xml version="1.0" standalone="no"?>
<!DOCTYPE svg PUBLIC "-//W3C//DTD SVG 1.1//EN" "http://www.w3.org/Graphics/SVG/1.1/DTD/svg11.dtd" >
<svg xmlns="http://www.w3.org/2000/svg">
<metadata>Generated by IcoMoon</metadata>
<defs>
<font id="icomoon" horiz-adv-x="1024">
<font-face units-per-em="1024" ascent="960" descent="-64" />
<missing-glyph horiz-adv-x="1024" />
<glyph unicode="&#x20;" horiz-adv-x="512" d="" />
<glyph unicode="&#xe900;" glyph-name="box" d="M510.4 585.2v-422l336 63.6v205.6c0 8.4 7.6 15.2 16 14.4l41.2-6.4c7.2-0.8 12.8-7.2 12.8-14.4v-238.8c0-6.8-4.8-12.8-11.2-14l-368-79.2c-17.6-4-36-4-54 0l-364 76.4c-6.4 1.2-11.2 7.2-11.2 13.6l-6.4 242.8c0 7.6 5.6 14 13.2 14.8l309.2 27.2c5.2 0.4 10 4 12 8.8l46.4 113.2c6.4 14.4 28 10 28-5.6zM98.4 723.2l-97.2-207.2c-4.8-10.4 3.2-21.6 14.4-20.4l364.4 36.8c5.2 0.4 9.6 3.6 11.6 8.4l117.2 264-400-73.6c-4.4-0.8-8.4-3.6-10.4-8zM509.2 804.8l124-272.4c2-4.8 6.8-8 12-8.4l363.6-29.2c10.8-0.8 18.8 10.4 14.4 20.4l-94.8 208c-2 4.4-6 7.2-10.4 8.4l-408.8 73.2z" />
<glyph unicode="&#xe901;" glyph-name="car" d="M1017.6 584.4c-5.2 5.2-13.2 10.4-20.8 10.4h-99.6c-23.6 65.6-57.6 128.4-92 152-126 84-461.6 84-587.6 0-34-23.6-68-86.4-92-152h-99.2c-8 0-15.6-2.8-20.8-10.4-5.6-5.2-5.6-13.2-5.6-20.8l15.6-70.8c2.8-13.2 13.2-20.8 26.4-20.8h28.8c-28.8-34-42-73.6-42-115.6 0-52.4 18.4-97.2 55.2-131.2v0-99.6c0-20.8 18.4-39.2 39.2-39.2h92c20.8 0 39.2 18.4 39.2 39.2v39.2h514v-39.2c0-20.8 18.4-39.2 39.2-39.2h92c20.8 0 39.2 18.4 39.2 39.2v97.2c36.8 34 55.2 81.2 55.2 128.4 0 42-13.2 86.4-44.4 120.8h31.6c13.2 0 23.6 8 26.4 20.8l15.6 70.8c2.4 7.6-0.4 15.6-5.6 20.8zM262.4 681.6c99.6 65.6 398.8 65.6 500.8 0 18.4-13.2 44.4-65.6 68-128.4h-637.2c23.6 65.2 50 115.2 68.4 128.4zM144.4 345.6c0 42 34 78.8 78.8 78.8 42 0 78.8-34 78.8-78.8 0-42-34-78.8-78.8-78.8s-78.8 36.8-78.8 78.8zM802.8 267.2c-42 0-78.8 34-78.8 78.8 0 42 34 78.8 78.8 78.8 42 0 78.8-34 78.8-78.8-0.4-42.4-34.4-78.8-78.8-78.8z" />
<glyph unicode="&#xe902;" glyph-name="chart" d="M490.225 435.65l207.675-359.777c-55.9-27.95-118.625-43.875-185.25-43.875-230.1 0-416.652 186.55-416.652 416.652 0 221.325 172.575 401.702 390.652 415.352v-415.352c0-4.55 0.975-8.775 3.575-13zM928.002 474.65h-389.352v389.352c209.3-13 376.352-180.050 389.352-389.352zM590.975 526.975h277.551c-30.225 138.125-139.1 247.326-277.551 277.551v-277.551zM743.075 101.548c105.3 70.2 176.475 187.2 184.925 321.102h-370.177l185.25-321.102z" />
<glyph unicode="&#xe903;" glyph-name="education" d="M841.6 497.2l-332-198-325.2 198-27.2-169.2c0 0 0.4 0.4 0.8 0.8-3.6-6.4-6-13.2-6-20 0-59.6 262.8-243.6 346.4-243.6s376 184 376 243.6c0 6.4-2 12.8-5.6 31.6l-27.2 156.8zM1024 670.4l-510 160.4-456-145.2c-6.4-1.2-12.4-2.8-17.2-5.6v0 0c-6-3.6-10-8.4-10-16-2.4-29.2-30.8-368.4-30.8-368.4l30.8-101.6 28.4 101.6-12 349.6 465.2-286.4 511.6 311.6zM476.8 655.6h-430l44.8 24.4h379.6c4.8 8.4 16.4 14.8 30 14.8 18 0 32.8-10.8 32.8-24s-14.8-24-32.8-24c-9.6 0-18.4 3.6-24.4 8.8z" />
<glyph unicode="&#xe904;" glyph-name="facebook" d="M725.6 448h-138.4v-512h-231.2v512h-89.6v172.4h89.6v110c0 144 60 229.6 229.6 229.6h172v-172h-100c-66 0-70.4-24.8-70.4-70.8l-0.4-96.8h157.2l-18.4-172.4z" />
<glyph unicode="&#xe905;" glyph-name="google-plus" d="M1024 721.203h-173.67v173.67h-51.814v-173.67h-173.67v-52.224h173.67v-173.466h51.814v173.466h173.67zM498.483 358.912c0 0-27.034 25.19-58.368 51.61 0 0-56.32 40.346-54.682 64.922s17.408 36.864 17.408 36.864l43.622 37.888c0 0 60.416 45.466 66.56 118.784 6.144 73.114-1.638 150.733-71.475 181.862 0 0-2.253 6.554 29.286 11.059s84.173 5.939 83.354 32.973h-254.771c0 0-162.816-8.602-220.979-116.531-58.573-107.93-21.504-258.662 108.954-286.72 0 0 24.166-7.578 86.016-6.963v-55.706c0 0 0.819-9.83 13.517-16.998 12.698-7.373 20.89-31.13 20.070-39.936 0 0-130.048 5.325-222.618-46.080s-83.558-142.746-84.173-147.046c-0.614-4.096-9.216-179.61 268.288-177.766 277.299 2.253 307.61 194.97 279.347 279.347-0.205 0-11.878 38.502-49.357 78.438zM172.032 662.016c-23.552 85.811 6.144 169.165 66.765 185.754s129.024-39.322 152.576-125.338c23.552-85.811-6.144-169.165-67.174-185.754-60.211-16.384-128.614 39.526-152.166 125.338zM297.165 64.41c-102.605-5.12-188.621 51.2-192.307 125.338s76.595 138.445 178.995 143.36c102.605 5.12 188.621-50.79 192.307-125.338 3.686-74.138-76.39-138.24-178.995-143.36z" />
<glyph unicode="&#xe906;" glyph-name="heart" d="M976 799.2c-44 57.6-112.8 90.8-211.2 101.2-8 0.8-16.4 1.2-24.8 1.2-87.2 0-173.6-40.8-228-105.6-54 64.8-140.8 105.6-227.6 105.6-8.8 0-16.8-0.4-25.2-1.2-98-10.8-167.2-43.6-210.8-101.2-43.6-57.2-58-134.8-42.4-230.4 6-35.2 22-72.8 45.2-111.2h144.8l15.2 242.8c1.2 19.2 16 34.8 34.8 37.2 19.2 2.4 37.2-9.2 43.2-27.2l115.2-351.6 64 254c4.4 17.6 20.4 30 38.8 30.4h0.4c18.4 0 34-12.4 38.8-30l40.8-155.6 36.8 60.4c6.4 10 16.8 16.8 28.4 18.8s24-2 32.8-10l42.8-38.8h75.2c22 0 40-18 40-40s-18-40-40-40h-91.2c-10 0-19.6 3.6-27.2 10.4l-18 16.4-60.8-98.8c-8.4-13.6-24-21.2-40-18.8s-28.8 14-32.8 29.6l-25.2 95.6-59.6-236.8c-4.4-17.2-19.6-29.6-37.6-30.4-0.4 0-0.8 0-1.6 0-17.2 0-32.8 11.2-38 27.6l-93.2 285.2-4.4-72.4c-1.2-21.2-18.8-37.6-40-37.6h-125.6c69.6-87.2 162.8-174.8 244.8-252l3.2-3.2c40.4-38 74.8-70.4 97.2-94.8 3.2-3.6 30.4-33.6 60.8-33.6s57.2 30.4 59.6 33.6c24 26 62.8 62.8 101.6 99.2 142.4 135.2 320 303.6 342.4 442 16 95.6 1.6 172.8-41.6 230z" />
<glyph unicode="&#xe907;" glyph-name="house" d="M896 512h128l-192 320h-320v128h-192v-128h-128l-192-320h128v-512h-128v-64h1024v64h-128v512zM448 256h-192v192h192v-192zM768 0h-192v384h192v-384z" />
<glyph unicode="&#xe908;" glyph-name="lead" d="M708.8 260.4v-132.4c0-40.8-33.2-73.6-73.6-73.6h-443.2c-40.8 0-73.6 33.2-73.6 73.6v443.2c0 40.8 33.2 73.6 73.6 73.6h135.2l118 118h-253.2c-106 0-192-86-192-192v-442.8c0-106 86-192 192-192h443.2c106 0 192 86 192 192v250.8l-118.4-118.4zM889.2 960h-404c-74.4 0-69.2-20-30-59.2l126.8-126.8-217.2-217.6c-45.2-45.2-45.2-118 0-163.2l94.8-94.8c45.2-44.8 118-44.8 163.2 0l217.6 217.6 124.4-124.4c43.2-43.2 59.2-44.4 59.2 29.6v404c0 135.6 0.8 134.8-134.8 134.8z" />
<glyph unicode="&#xe909;" glyph-name="login" d="M544.4 254.4c-17.2-17.2-17.2-45.6 0-62.8 8.4-8.4 19.6-12.8 31.2-12.8 12 0 22.8 4.8 31.2 12.8l161.2 161.2c4 4 7.2 8.8 9.6 14.4 2.4 5.2 3.2 11.2 3.2 16.8s-1.2 11.2-3.6 17.2c-2.4 5.2-5.6 10-9.6 14l-161.2 161.2c-8.4 8.4-19.6 12.8-31.2 12.8-12 0-23.2-4.8-31.2-12.8-17.2-17.2-17.2-45.6 0-62.8l85.2-85.2h-584.8c-24.4 0-44.4-20-44.4-44.4 0-24 19.6-44 44.4-44h585.6l-85.6-85.6zM876.4 780.8h-498c-81.2 0-147.6-66.4-147.6-147.6v-151.2c-0.4-1.6-0.4-3.2-0.4-4.8 0-18 20-32.8 44.4-32.8s44.4 14.8 44.4 32.4v0 156c0 32.4 26.4 59.2 59.2 59.2h498c32.4 0 59.2-26.4 59.2-59.2v-498c0-32.4-26.4-59.2-59.2-59.2h-498c-32.4 0-59.2 26.4-59.2 59.2v151.6c0 0.4 0 1.2 0 1.6 0 0.8 0 1.2 0 2v1.2c-2.4 16.8-21.2 29.6-44.4 29.6-24.4 0-44.4-14.8-44.4-32.8 0-1.2 0-2.8 0.4-4v-149.2c0-81.2 66.4-147.6 147.6-147.6h498c81.2 0 147.6 66.4 147.6 147.6v498.4c0 81.2-66.4 147.6-147.6 147.6z" />
<glyph unicode="&#xe90a;" glyph-name="phone" d="M967.2 248.8c-68.4 0-136.4 11.2-204.8 34-17.2 5.6-40 0-56.8-11.2l-125.2-125.2c-159.2 79.6-290 216-375.6 375.6l125.2 125.2c16.8 17.2 22.8 40 11.2 56.8-16.8 62.4-28.4 130.8-28.4 199.2 0.4 34-22.8 56.8-56.8 56.8h-199.2c-34 0-56.8-22.8-56.8-56.8 0-534.8 432.4-967.2 967.2-967.2 34 0 56.8 22.8 56.8 56.8v199.2c0 34.4-22.8 56.8-56.8 56.8zM910.4 448h113.6c0 284.4-227.6 512-512 512v-113.6c222 0 398.4-176.8 398.4-398.4zM682.8 448h113.6c0 159.2-125.2 284.4-284.4 284.4v-113.6c96.4 0 170.8-74 170.8-170.8z" />
<glyph unicode="&#xe90b;" glyph-name="phone2" d="M820 271.2c-7.2 7.2-17.2 11.2-27.2 11.2s-20-4-27.2-11.2l-51.2-51.2-248.4 248 51.2 51.2c15.2 15.2 15.2 39.6 0 54.8l-149.6 149.6c-7.6 7.6-17.2 11.2-27.2 11.2s-19.6-3.6-27.2-11.2l-51.2-51.2c-64.4-64.4 30-264 211.6-445.6 142.8-142.8 296.4-231.6 387.2-231.6 24.4 0 44.4 6.4 58 20.4v0l51.2 50.8c15.2 15.2 15.2 39.6 0 54.8l-150 150zM512 39.6c-225.2 0-408.4 183.2-408.4 408.4 0 238.4 195.6 408.4 408.4 408.4 225.2 0 408.4-183.2 408.4-408.4 0-53.2-10.4-103.6-29.2-150.4l78.4-78c34.4 68.8 54.4 146.4 54.4 228.4 0 282.4-229.6 512-512 512s-512-229.6-512-512 229.6-512 512-512c66.4 0 129.2 13.2 187.6 36-38.8 19.2-79.2 44-120.4 73.6-22-3.6-44.4-6-67.2-6z" />
<glyph unicode="&#xe90c;" glyph-name="scale" d="M861.708 474.146l-317.753-186.294c-25.059 9.805-54.472 6.9-77.713-10.168-36.314-26.51-44.304-77.713-18.159-114.027 26.873-36.678 77.713-44.667 114.391-18.159 23.605 16.705 35.225 43.94 33.41 70.451l275.264 245.487-9.442 12.711zM105.638 217.402c-5.447 27.234-8.352 55.198-8.352 83.887 0 22.152 2.179 43.578 5.447 64.64l83.524-18.159 12.711 57.377-83.524 18.159c11.621 37.767 28.688 72.992 49.751 105.312l60.645-45.029 35.225 47.209-59.919 44.304c27.234 30.867 59.193 57.74 94.781 79.529l34.499-65.366 51.929 27.599-34.499 65.366c42.488 18.52 88.971 29.415 137.632 32.684v-71.176h58.466v70.451c48.661-3.632 94.781-15.615 136.906-34.499l-33.41-62.824 51.567-27.599 33.41 62.461c34.499-21.788 65.73-48.661 92.239-79.166l-56.287-41.761 35.225-47.209 56.651 42.125c20.335-31.958 37.041-66.456 48.299-103.496l-77.713-16.705 12.711-57.377 77.713 16.705c3.268-20.699 5.447-41.761 5.447-63.551 0-28.688-2.905-56.651-8.352-83.887h51.204c5.084 27.234 7.989 55.198 7.989 83.887 0 256.744-208.082 464.827-464.827 464.827s-465.555-208.082-465.555-464.827c0-28.688 2.905-56.651 7.989-83.887h50.478z" />
<glyph unicode="&#xe90d;" glyph-name="sign-up" d="M480 960c0-34.4 0-122 0-156.8 22.4 0 41.2 0 63.6 0 0 34.8 0 122.4 0 156.8-22 0-41.2 0-63.6 0zM182.4 810.4c24.4-24.4 86.4-86.4 111.2-110.8 16 16 29.2 29.2 45.2 44.8-24.8 24.4-86.8 86.4-111.2 111.2-16-16-29.2-29.6-45.2-45.2zM685.6 744.4c16-15.6 29.2-29.2 45.2-44.8 24.4 24.4 86.4 86.4 110.8 110.8-16 15.6-29.2 29.2-45.2 45.2-24-24.8-86.4-86.8-110.8-111.2zM789.6 557.6c0-22.4 0-41.2 0-64 34.4 0 122.4 0 156.8 0 0 22.4 0 41.2 0 64-34.8 0-122 0-156.8 0zM77.6 557.6c0-22.4 0-41.2 0-63.6 34.4 0 122.4 0 157.2 0 0 22.4 0 41.2 0 64-34.8-0.4-122.4-0.4-157.2-0.4zM652 298.4h-280c-50 0-90.8-46-90.8-102v-260.4h462.4v260.4c-0.4 56-41.2 102-91.6 102zM512 343.6c87.6 0 158.4 70.8 158.4 158s-70.8 158.4-158.4 158.4c-87.2 0-158-70.8-158-158.4 0-87.2 70.8-158 158-158z" />
<glyph unicode="&#xe90e;" glyph-name="store" d="M911.6 449.6c-43.6 0-81.2 25.2-99.6 61.6-18.4-36.8-56-61.6-99.6-61.6s-81.2 25.2-99.6 61.6c-18.4-36.4-56.4-61.6-100-61.6s-81.2 25.2-100 61.6c-18.4-36.4-56.4-61.6-99.6-61.6-43.6 0-81.6 25.2-100 61.6-18.4-36.8-56.8-61.6-100.4-61.6-19.6 0-36.8 4.8-54 13.6v-416.8h-58.8v-110.4h1022.8v110.8h-55.2v418.4c-17.2-9.6-35.2-15.6-56-15.6v0zM513.2 389.2h340.8v-169.6h-340.8v169.6zM172 389.2h227.2v-403.2h-227.2v403.2zM1.2 558.8v0 0 0zM216 562l72 228.4h152.8l-31.2-228.4h206l-30.8 228.4h157.6l67.2-228.4h212.8l-110 228.4v169.6h-795.2v-169.6l-114.4-228.4z" />
<glyph unicode="&#xe90f;" glyph-name="twitter" d="M919.2 655.2l0.8-27.2c0-277.6-211.2-597.6-597.6-597.6-118.8 0-228.8 34.8-322 94.4 16.4-2 33.2-2.8 50-2.8 98.4 0 188.8 33.6 260.8 90-92 1.6-169.6 62.4-196.4 146 12.8-2.4 26-3.6 39.6-3.6 19.2 0 37.6 2.4 55.2 7.2-96 19.6-168.4 104.4-168.4 206v2.8c28.4-15.6 60.8-25.2 95.2-26.4-56.4 36.8-93.6 101.2-93.6 174 0 38.4 10.4 74.4 28.4 105.6 103.6-127.2 258.4-210.8 433.2-219.6-3.6 15.2-5.6 31.6-5.6 48 0 116 94 210 210 210 60.4 0 114.8-25.6 153.2-66.4 47.6 9.6 92.8 26.8 133.6 50.8-15.6-49.2-48.8-90.4-92.4-116.4 42.4 5.2 82.8 16.4 120.8 33.2-28-41.6-64-78.8-104.8-108z" />
<glyph unicode="&#xe910;" glyph-name="money" d="M884.899 269.812c-50.824-3.141-117.696-53.934-182.191-83.146-79.057-35.793-202.101-7.017-202.116-7.017 18.984 8.908 96.119 27.282 111.653 34.095 82.575 36.345 75.568 112.035 36.241 111.398-51.955-0.828-82.46-13.58-186.124-27.716-78.582-10.683-171.518-6.777-216.096-23.8-62.928-24.035-164.271-185.755-164.271-185.755l156.7-151.862c0 0 97.011 95.545 144.21 95.545 107.558 0 111.924 1.44 211.782 6.873 42.466 2.273 51.331 4.019 75.654 12.207 129.444 43.774 268.461 160.343 271.012 174.363 5.913 32.48-29.605 46.435-56.454 44.813zM575.471 807.809c21.799 12.973 41.257 30.997 58.431 49.301 14.477 15.411 33.615 35.183 31.544 58.031-1.449 16.083-14.955 24.057-29.72 25.885-4.749 0.595-9.524 0.749-14.319 0.679-3.22-0.046-9.736 0.813-12.258-1.639-5.291-5.143-10.551-10.275-15.804-15.452-1.128 3.511-2.229 7.029-3.345 10.59-0.658 2.097-2.512 2.906-4.583 2.608-14.578-2.304-28.856-5.171-43.527-2.467-18.014 3.324-35.742 8.365-53.541 12.534-2.047 0.494-3.959-0.614-4.6-2.604-1.442-4.574-2.896-9.143-4.331-13.709-6.29 6.225-12.61 12.378-18.958 18.55-1.505 1.442-3.58 4.583-5.85 4.963-4.221 0.768-8.459 1.495-12.718 2.165-6.638 1.034-13.304 1.807-20.004 2.328-14.715 1.145-41.298 1.392-42.118-18.97-0.773-32.597 27.992-58.427 48.617-80.062 12.766-13.4 28.084-28.897 36.666-46.419-91.154-29.463-168.878-140.137-168.878-259.198 0-139.094 66.010-177.221 215.835-177.221 149.808 0 215.808 38.128 215.808 177.221-0.002 111.797-68.525 216.167-152.347 252.886zM575.404 534.457c-5.488-8.19-13.054-14.756-21.746-19.341-4.583-2.366-9.4-4.25-14.326-5.706-0.698-0.235-7.127-1.982-7.127-1.982v-17.971c0-8.361-1.598-17.218-9.088-22.185-8.185-5.378-20.297-3.772-26.373 4.051-4.451 5.711-4.706 13.225-4.706 20.16 0 5.26 0 15.96 0 15.96s-4.101 1.245-4.979 1.469c-2.877 0.782-5.73 1.711-8.552 2.671-1.673 0.59-3.309 1.209-4.965 1.86-1.185-0.794-2.431-1.521-3.712-2.157-2.256-1.118-4.689-1.917-7.177-2.186-9.846-0.931-18.499 4.927-21.057 14.425-1.603 6.038-1.149 12.505-1.149 18.725 0 6.194-0.47 12.73 1.149 18.816 2.721 10.038 11.991 15.742 22.212 14.288 4.804-0.665 9.145-3.028 12.092-6.882 1.555-2.013 2.678-4.346 3.484-6.722 0.749-2.251 1.296-4.552 2.776-6.434 2.92-3.676 8.221-5.579 12.507-6.949 5.694-1.841 11.682-2.745 17.662-2.745 9.584 0 21.439 2.054 28.384 9.325 4.739 4.999 2.976 13.705-3.566 15.968-6.234 2.114-11.547 3.187-17.623 4.298-5.596 1.061-11.197 2.066-16.771 3.117-15.336 2.812-31.297 6.621-42.56 18.197-14.401 14.758-17.213 38.111-6.51 55.837 5.263 8.713 13.15 15.773 22.224 20.354 4.708 2.397 9.726 4.103 14.84 5.308 1.488 0.37 1.296 0.233 1.296 1.569 0 1.128 0 2.294 0 3.465 0 5.488-0.319 11.137 0.173 16.603 0.828 9.7 6.088 18.427 16.335 20.097 10.016 1.589 19.361-3.806 22.296-13.594 1.829-6.062 1.363-12.615 1.363-18.907 0-2.644 0-5.282 0-7.926 0-0.242 0-0.538 0-0.787 0-0.115 2.601-0.552 2.896-0.607 1.449-0.286 2.896-0.655 4.319-1.051 1.169-0.307 3.105-1.401 4.065-0.626 8.25 6.693 21.504 6.438 28.506-1.881 5.222-6.266 5.090-16.246 5.090-23.946 0-7.115 0.574-14.636-2.376-21.28-4.18-9.364-15.308-13.318-24.724-9.841-4.603 1.653-8.421 5.097-10.587 9.484-0.65 1.284-1.149 2.625-1.533 3.998-0.173 0.624-0.334 1.257-0.468 1.891-0.473 0.305-0.962 0.598-1.471 0.852-2.025 1.142-4.183 2.035-6.407 2.767-5.203 1.646-10.671 2.167-16.097 2.088-5.006-0.067-10.11-0.49-14.892-1.956-6.006-1.85-16.356-9.119-8.181-15.005 4.876-3.552 11.912-4.533 17.638-5.666 5.097-0.972 10.182-1.992 15.281-2.966 15.147-2.985 31.633-6.074 43.745-16.354-8.25 6.983 11.029-9.232 0 0 18.634-15.615 21.789-43.925 8.394-63.984z" />
<glyph unicode="&#xe911;" glyph-name="tools" d="M149.077 186.785c-28.11-28.098-28.11-73.618 0-101.716 14.048-14.048 32.467-21.074 50.881-21.074 18.404 0 36.823 7.026 50.869 21.074l236.18 236.167-101.754 101.716-236.177-236.167zM739.343 624.51l102.77 53.177 53.901 104.118-50.205 50.203-104.102-53.901-53.199-102.768-125.25-125.248 50.835-50.837 125.25 125.26zM761.843 351.488c-3.28 0.186-6.368 0.982-9.691 0.982-17.563 0-34.187-3.606-49.736-9.367l-295.304 295.302c5.76 15.547 9.355 32.185 9.355 49.735 0 3.314-0.774 6.426-0.962 9.682-5.080 74.859-66.754 134.182-142.9 134.182-22.15 0-42.921-5.42-61.666-14.388l95.571-95.568c5.034-5.034 8.488-10.982 10.783-17.27 6.286-17.023 2.88-36.823-10.783-50.541-9.355-9.355-21.624-14.048-33.908-14.048-5.656 0-11.275 1.242-16.639 3.256-6.286 2.352-12.235 5.76-17.268 10.795l-95.568 95.58c-8.968-18.752-14.388-39.524-14.388-61.677 0-76.147 59.325-137.822 134.182-142.904 3.256-0.186 6.368-0.96 9.682-0.96 17.55 0 34.184 3.594 49.733 9.354l295.316-295.288c-5.76-15.547-9.367-32.195-9.367-49.735 0-3.324 0.774-6.438 0.962-9.692 5.082-74.857 66.757-134.17 142.906-134.17 22.148 0 42.919 5.406 61.675 14.376l-95.58 95.581c-5.034 5.010-8.476 10.96-10.772 17.258-6.294 17.023-2.904 36.833 10.772 50.553 9.367 9.343 21.636 14.048 33.908 14.048 5.666 0 11.286-1.266 16.624-3.28 6.298-2.344 12.247-5.76 17.28-10.771l95.583-95.581c8.946 18.732 14.376 39.525 14.376 61.677-0.004 76.149-59.338 137.824-134.174 142.883z" />
<glyph unicode="&#xe912;" glyph-name="click" horiz-adv-x="917" d="M399.723 573.573l441.721-249.669c14.14-8.020 13.296-28.702-1.477-35.456l-91.594-41.998c-12.452-5.698-15.617-22.16-5.909-32.079l168.627-173.059c7.809-8.020 7.598-20.894-0.633-28.491l-75.133-71.123c-8.020-7.598-20.472-7.176-28.069 0.633l-172.636 176.646c-9.286 9.497-25.115 7.387-31.657-4.010l-51.707-90.961c-8.864-15.406-31.868-12.663-36.722 4.643l-144.145 522.763c-4.432 16.462 13.718 30.813 29.336 22.16zM279.004 665.378c-9.497 0-18.15 3.799-24.692 10.552l-129.372 135.492c-6.331 6.542-9.708 15.195-9.497 24.27s4.010 17.517 10.552 23.848c6.331 6.12 14.773 9.497 23.637 9.497 9.497 0 18.15-3.799 24.692-10.552l129.583-135.492c13.085-13.507 12.452-35.245-1.055-48.119-6.754-6.12-14.984-9.497-23.848-9.497zM261.909 683.106l-129.372 135.492c-9.075 9.286-8.653 24.27 0.844 33.345v0c9.286 9.075 24.27 8.653 33.345-0.844l129.583-135.492c9.075-9.286 8.653-24.27-0.844-33.345v0c-9.497-8.864-24.481-8.442-33.556 0.844zM120.297 274.308c-9.497 0-18.15 3.799-24.692 10.552-12.874 13.507-12.452 35.245 1.055 48.119l135.492 129.583c6.331 6.12 14.773 9.497 23.637 9.497 9.497 0 18.15-3.799 24.692-10.552 6.331-6.542 9.708-15.195 9.497-24.27s-4.010-17.517-10.552-23.848l-135.492-129.583c-6.331-6.12-14.773-9.497-23.637-9.497zM103.413 292.036v0c-9.075 9.286-8.653 24.27 0.844 33.345l135.492 129.583c9.286 9.075 24.27 8.653 33.345-0.844v0c9.075-9.286 8.653-24.27-0.844-33.345l-135.492-129.583c-9.497-8.864-24.481-8.442-33.345 0.844zM516.010 647.65c-9.497 0-18.15 3.799-24.692 10.552-6.331 6.542-9.708 15.195-9.497 24.27s4.010 17.517 10.552 23.848l135.492 129.583c6.331 6.12 14.773 9.497 23.637 9.497 9.497 0 18.15-3.799 24.692-10.552 12.874-13.507 12.452-35.245-1.055-48.119l-135.492-129.583c-6.331-6.12-14.773-9.497-23.637-9.497zM499.126 665.589v0c-9.075 9.286-8.653 24.27 0.844 33.345l135.281 129.372c9.286 9.075 24.27 8.653 33.345-0.844v0c9.075-9.286 8.653-24.27-0.844-33.345l-135.492-129.583c-9.286-8.653-24.27-8.442-33.134 1.055zM219.278 544.237c-1.688 0-3.588 0.211-5.276 0.422l-185.299 29.124c-18.572 2.955-31.235 20.472-28.28 39.044 2.533 16.673 16.673 28.702 33.556 28.702 1.688 0 3.588-0.211 5.276-0.422l185.088-29.124c18.572-2.955 31.235-20.472 28.28-39.044-2.322-16.673-16.462-28.702-33.345-28.702zM215.479 555.001l-185.088 29.124c-12.874 2.11-21.527 14.14-19.627 26.803v0c2.11 12.874 14.14 21.527 26.803 19.627l185.088-29.124c12.874-2.11 21.527-14.14 19.627-26.803v0c-1.899-12.874-13.929-21.527-26.803-19.627zM408.798 706.744c-1.688 0-3.588 0.211-5.276 0.422-9.075 1.477-16.884 6.331-22.16 13.507-5.276 7.387-7.598 16.462-6.12 25.326l29.124 185.088c2.533 16.884 16.673 28.913 33.556 28.913 1.688 0 3.588-0.211 5.276-0.422 9.075-1.477 16.884-6.331 22.16-13.507 5.276-7.387 7.598-16.462 6.12-25.326l-29.124-185.088c-2.533-16.884-16.673-28.913-33.556-28.913zM404.999 717.507v0c-12.874 2.11-21.527 14.14-19.627 26.803l29.124 185.088c2.11 12.874 14.14 21.527 26.803 19.627v0c12.874-2.11 21.527-14.14 19.627-26.803l-29.124-185.088c-1.899-12.874-13.929-21.527-26.803-19.627z" />
<glyph unicode="&#xe913;" glyph-name="close" d="M64.107 809.558l85.848 85.848 809.529-809.529-85.848-85.848-809.529 809.529zM64.663 86.432l809.529 809.529 85.848-85.848-809.529-809.529-85.848 85.848z" />
<glyph unicode="&#xeaca;" glyph-name="linkedin2" d="M384 576h177.106v-90.782h2.532c24.64 44.194 84.958 90.782 174.842 90.782 186.946 0 221.52-116.376 221.52-267.734v-308.266h-184.61v273.278c0 65.184-1.334 149.026-96.028 149.026-96.148 0-110.82-70.986-110.82-144.292v-278.012h-184.542v576zM64 576h192v-576h-192v576zM256 736c0-53.019-42.981-96-96-96s-96 42.981-96 96c0 53.019 42.981 96 96 96s96-42.981 96-96z" />
</font>
</defs>
</svg>
