<?xml version="1.0" encoding="UTF-8"?>
<svg width="56px" height="56px" viewBox="0 0 56 56" version="1.1" xmlns="http://www.w3.org/2000/svg" xmlns:xlink="http://www.w3.org/1999/xlink">
    <!-- Generator: Sketch 44.1 (41455) - http://www.bohemiancoding.com/sketch -->
    <title>right-arrow (2)</title>
    <desc>Created with Sketch.</desc>
    <defs></defs>
    <g id="Desing" stroke="none" stroke-width="1" fill="none" fill-rule="evenodd">
        <g id="Home" transform="translate(-238.000000, -5285.000000)" fill="#FFFFFF">
            <g id="Video-active" transform="translate(0.000000, 4753.000000)">
                <g id="Bitmap" transform="translate(238.000000, 167.000000)">
                    <g id="right-arrow-(2)" transform="translate(28.000000, 393.000000) scale(-1, 1) translate(-28.000000, -393.000000) translate(0.000000, 365.000000)">
                        <path d="M27.9657841,55.9315682 C43.3857434,55.9315682 55.9315682,43.3857434 55.9315682,27.9657841 C55.9315682,12.5458248 43.3857434,0 27.9657841,0 C12.5458248,0 0,12.5458248 0,27.9657841 C0,43.3857434 12.5458248,55.9315682 27.9657841,55.9315682 L27.9657841,55.9315682 Z M27.9657841,2.79429735 C41.8460285,2.79429735 53.1372709,14.0855397 53.1372709,27.9657841 C53.1372709,41.8460285 41.8460285,53.1372709 27.9657841,53.1372709 C14.0855397,53.1372709 2.79429735,41.8460285 2.79429735,27.9657841 C2.79429735,14.0855397 14.0855397,2.79429735 27.9657841,2.79429735 L27.9657841,2.79429735 Z" id="Shape"></path>
                        <path d="M15.8191446,29.3686354 L36.7364562,29.3686354 L31.2619145,34.8431772 C30.7144603,35.3906314 30.7144603,36.2688391 31.2619145,36.8162933 C31.5356415,37.0900204 31.8892057,37.2268839 32.2541752,37.2268839 C32.6191446,37.2268839 32.9727088,37.0900204 33.2464358,36.8162933 L41.1046843,28.9580448 C41.6521385,28.4105906 41.6521385,27.5323829 41.1046843,26.9849287 L33.2464358,19.1266802 C32.6989817,18.5792261 31.8207739,18.5792261 31.2733198,19.1266802 C30.7258656,19.6741344 30.7258656,20.5523422 31.2733198,21.0997963 L36.7478615,26.5743381 L15.8191446,26.5743381 C15.0435845,26.5743381 14.4162933,27.2016293 14.4162933,27.9771894 C14.4162933,28.7527495 15.0435845,29.3686354 15.8191446,29.3686354 L15.8191446,29.3686354 Z" id="Shape"></path>
                    </g>
                </g>
            </g>
        </g>
    </g>
</svg>